<?xml version="1.0" standalone="no"?>
<!DOCTYPE svg PUBLIC "-//W3C//DTD SVG 1.1//EN" "http://www.w3.org/Graphics/SVG/1.1/DTD/svg11.dtd" >
<svg xmlns="http://www.w3.org/2000/svg">
<metadata></metadata>
<defs>
<font id="reenie_beanieregular" horiz-adv-x="755" >
<font-face units-per-em="2048" ascent="1536" descent="-512" />
<missing-glyph horiz-adv-x="847" />
<glyph horiz-adv-x="2048" />
<glyph horiz-adv-x="2048" />
<glyph unicode="&#xd;" horiz-adv-x="2048" />
<glyph unicode=" "  horiz-adv-x="847" />
<glyph unicode="&#x09;" horiz-adv-x="847" />
<glyph unicode="&#xa0;" horiz-adv-x="847" />
<glyph unicode="!" horiz-adv-x="464" d="M106 528q0 43 12.5 112t31 145.5t42 153.5t46.5 134q4 4 10 8t16 4q14 0 22.5 -11t12.5 -26.5t6 -32t2 -26.5q0 -18 -18.5 -79.5t-40 -136.5t-38.5 -146.5t-17 -112.5q0 -43 4 -70.5t9 -46t9 -32t4 -31.5q0 -41 -37 -41q-6 0 -12 8q-45 66 -54.5 129.5t-9.5 97.5zM254 88 q0 12 5 31.5t26 19.5q8 0 22.5 -2t29.5 -9t26.5 -21t11.5 -37t-13.5 -46.5t-33.5 -23.5q-27 0 -50.5 26.5t-23.5 61.5z" />
<glyph unicode="&#x22;" horiz-adv-x="477" d="M100 829q0 72 13.5 95.5t44.5 23.5q27 0 33 -23.5t6 -41.5q0 -23 3 -52.5t7 -62.5t7 -64t3 -51q0 -8 -3 -22.5t-9 -27.5t-14.5 -23.5t-16.5 -10.5q-20 0 -34.5 31t-22.5 74t-12.5 87t-4.5 68zM295 893q0 18 13.5 28.5t51.5 10.5q20 0 31.5 -32t17 -75t6.5 -85.5t1 -67.5 q0 -8 -10.5 -25.5t-20.5 -17.5q-25 0 -42 35.5t-28.5 82t-15.5 89.5t-4 57z" />
<glyph unicode="#" horiz-adv-x="1300" d="M0 236q0 16 10 27t27 11q47 0 116.5 13.5t143.5 34t142.5 45t115.5 49.5q16 10 23.5 20t13.5 31l90 295q-29 -4 -98.5 -36t-149.5 -74t-154.5 -83t-113.5 -65q-16 12 -22.5 27.5t-6.5 29.5q0 12 24.5 32.5t63.5 44.5t88 48.5t95.5 47t86.5 38.5t62 25q29 10 71 16t77 23 q14 6 22 21t14 34q4 12 17.5 20.5t23.5 8.5q33 0 33 -23q0 -25 35 -25q41 0 78 10.5t51 14.5q25 6 37 14.5t22 24.5q16 29 29.5 67.5t29 73.5t33 59.5t41.5 24.5q16 0 29.5 -9.5t13.5 -21.5q0 -6 -10 -34.5t-24.5 -62.5t-26.5 -64.5t-16 -42.5q16 0 33.5 -6.5t17.5 -18.5 q0 -8 -3 -13t-20 -9q-12 -4 -22 -6.5t-18.5 -7.5t-13.5 -14t-11 -28q-16 -59 -42 -136t-52 -159q23 6 45 16.5t51 10.5q8 0 19.5 -4t11.5 -21q0 -16 -13.5 -24t-33 -14.5t-42 -11.5t-43.5 -17q-8 -4 -13 -13.5t-9 -19.5q-8 -27 -18.5 -81t-26.5 -108.5t-39 -95.5t-55 -41 q-18 0 -22.5 11.5t-4.5 21.5q0 12 7 45t16.5 76t20.5 88t20 82q-23 0 -50.5 -6t-56.5 -14.5t-55.5 -17.5t-46.5 -17q-25 -66 -40.5 -135.5t-56.5 -131.5q-6 -8 -20 -8q-12 0 -21.5 14.5t-9.5 45.5q0 18 6 44.5t13.5 52.5t13.5 44t6 20q0 10 -12 11q-23 0 -76 -20.5 t-119.5 -45t-136.5 -45t-125 -20.5q-4 0 -19.5 2t-30.5 7t-27.5 11t-12.5 17zM686 455l213 49q12 33 26.5 75t29 87t28 90t23.5 84q-53 -12 -109.5 -25.5t-108.5 -28.5q-33 -80 -59.5 -162.5t-42.5 -168.5z" />
<glyph unicode="$" horiz-adv-x="753" d="M102 195q0 16 14.5 40.5t37.5 24.5q6 0 14 -8t8 -14t-5 -12.5t-5 -12.5t9 -17.5t21.5 -21.5t23.5 -18.5t18 -8.5q8 0 24.5 31t32.5 67t27 67l12 30q-4 2 -19.5 11t-33 20.5t-35 24t-25.5 20.5q-10 10 -17 27.5t-12.5 35t-8.5 32.5t-3 24q0 39 35 89t86 94t107.5 73.5 t97.5 29.5q8 0 24 -4q25 51 51.5 124t54.5 138.5t55.5 112.5t56.5 47q36 0 36 -49q0 -4 -11 -34t-29.5 -72t-38 -90t-38 -90t-29.5 -69.5t-11 -29.5q0 -8 9 -18.5t20.5 -22.5t20.5 -29.5t9 -40.5q0 -12 -9 -26.5t-28 -22.5q-4 10 -24.5 31.5t-32.5 30.5q-10 -16 -32.5 -68.5 t-46.5 -111t-43 -105.5t-21 -53q23 -23 46 -45.5t41.5 -47t31 -53t12.5 -67.5q0 -66 -56.5 -103t-126.5 -37q-8 0 -24.5 4.5t-31.5 8.5t-27 8l-13 4q-14 0 -32.5 -41t-39 -91t-42 -91t-42.5 -41q-16 0 -24 21.5t-8 23.5q0 29 14 66.5t32.5 73.5t33 66.5t14.5 43.5 q0 6 -16.5 17t-36 26.5t-36 35t-16.5 42.5zM279 522q0 -10 7 -26.5t18 -33t25.5 -28.5t30.5 -12q6 0 28 45t45.5 100.5t43 102.5t19.5 49q-16 -2 -52 -19.5t-73 -44t-64.5 -61.5t-27.5 -72zM328 121q10 -6 27.5 -10.5t25.5 -4.5q31 0 57.5 15.5t34.5 38.5q4 12 4 20 q0 18 -9 39t-19.5 37t-19.5 27.5t-11 11.5q-25 -41 -46.5 -85t-43.5 -89z" />
<glyph unicode="%" horiz-adv-x="1282" d="M113 850q0 33 17 70.5t45 69.5t61.5 52.5t68.5 20.5q18 0 46 -16.5t28 -32.5q0 -2 -9.5 -16.5t-21.5 -18.5q2 0 25.5 -11.5t57.5 -24.5t70 -24.5t64 -11.5q90 0 158 33t119 83t88 108.5t65.5 108.5t52 83t48.5 33q23 0 46 -16.5t23 -47.5q-66 -106 -143.5 -218.5 t-140.5 -229.5q-10 -18 -41 -75.5t-69 -132.5t-80 -157t-77.5 -152.5t-58.5 -118.5t-23 -54l-53 -111q-20 -41 -35.5 -78t-15.5 -39q-14 -35 -25 -63q-10 -25 -17 -49.5t-7 -34.5q0 -6 7 -25.5t7 -25.5q0 -23 -20.5 -42.5t-30.5 -19.5q-39 0 -54.5 29t-15.5 57q0 43 34 133 t85 203t112.5 234.5t118 231.5t99.5 192.5t57 115.5q0 2 -24.5 -5t-58 -16.5t-69.5 -17.5t-57 -8q-35 0 -63.5 7t-55 16.5t-53 16.5t-53.5 9q-4 0 -15.5 -14t-27.5 -31.5t-38.5 -32t-49.5 -14.5q-53 0 -76.5 24.5t-23.5 53.5zM209 881q0 -8 8 -9q6 0 17.5 13.5t22.5 30 t15 23.5l11 22q-23 0 -48.5 -23t-25.5 -57zM809 190q0 18 10 45t26.5 50.5t38 40t44.5 16.5q12 0 28.5 -11.5t16.5 -23.5q0 -14 -9.5 -28.5t-19.5 -28.5t-19.5 -28.5t-9.5 -31.5q0 -10 7.5 -16t11.5 -6q31 0 57.5 24.5t48 57.5t33.5 66.5t12 52.5q0 10 -12 10 q-6 0 -21.5 -8.5t-29.5 -8.5q-18 0 -28.5 16.5t-10.5 22.5q0 8 8 20.5t20.5 25t25 20.5t22.5 8q12 0 32.5 -2t39 -9t32 -20.5t13.5 -33.5q0 -31 -13.5 -86.5t-39 -109.5t-65.5 -94t-93 -40q-25 0 -52.5 5t-51 17.5t-38 34t-14.5 53.5z" />
<glyph unicode="&#x26;" horiz-adv-x="669" d="M100 436q0 37 40 84t90.5 90t96.5 74t56 35q16 8 41 17t35 9q27 0 26 -28q0 -16 -4 -33.5t-20 -17.5q-12 0 -18.5 3t-10.5 3q-12 0 -31.5 -9.5t-33.5 -19.5q-18 -14 -43 -35.5t-49.5 -44t-45 -46t-32.5 -44.5q4 -2 15 -5t17 -3q8 0 20.5 8t26 17.5t28.5 17.5t28 8 q23 0 33 -13.5t10 -19.5q0 -35 -31 -65.5t-59 -46.5q-6 -16 -6 -23q0 -18 20 -18q14 0 44 13t65.5 28.5t69.5 29t59 13.5q20 0 31.5 -16.5t11.5 -28.5q0 -37 -35 -47q-25 -6 -64 -23.5t-81 -35t-80.5 -31t-65.5 -13.5q-45 0 -73.5 14.5t-28.5 40.5q0 35 12 58.5t26 42.5 q0 2 -14 6t-30.5 12t-31 18.5t-14.5 24.5zM168 -457q0 33 7 73t17.5 84t20.5 89t16 90q2 23 11.5 53.5t35.5 30.5q27 0 32 -31.5t5 -76.5q0 -37 -10 -96.5t-20 -114.5q-12 -66 -29 -136q-4 -10 -19.5 -19t-35.5 -9q-12 0 -18.5 8t-9.5 19.5t-3 21.5v14zM403 950 q0 14 12.5 63.5t31 102.5t41 95t44.5 42q14 0 24.5 -8t10.5 -18q0 -8 -10 -46t-24.5 -87.5t-32 -101.5t-29.5 -87q-4 -10 -8 -22.5t-21 -12.5q-12 0 -20 9.5t-12 22.5t-5.5 26.5t-1.5 21.5z" />
<glyph unicode="'" horiz-adv-x="374" d="M109 838q0 4 5 29.5t13 62.5t20.5 79t26.5 77.5t31.5 59t38.5 23.5q12 0 19 -15t7 -19q0 -27 -11 -61t-25.5 -73.5t-25.5 -84t-11 -93.5q0 -70 -8.5 -91t-16.5 -21q-23 0 -35 14t-18 34.5t-8 42t-2 36.5z" />
<glyph unicode="(" horiz-adv-x="487" d="M109 406q0 106 27.5 209.5t67.5 184.5t82.5 131t75.5 50q6 0 31 -4t25 -14q0 -4 -10.5 -14.5l-14.5 -14.5q-41 -41 -79 -107.5t-66.5 -139.5t-46 -143.5t-17.5 -121.5q0 -53 11.5 -108.5t31 -100.5t45 -73.5t54.5 -28.5q6 0 14 7t16 9q10 0 15.5 -14.5t5.5 -28.5 q0 -10 -12.5 -18.5t-27.5 -14.5t-30.5 -9t-19.5 -3q-29 0 -59.5 23.5t-57.5 69.5t-44 114.5t-17 159.5z" />
<glyph unicode=")" horiz-adv-x="585" d="M86 49q0 6 3 17.5t9 19.5q6 -4 21 -4q29 0 74 29.5t87 86t72.5 140.5t30.5 192q0 41 -10.5 89.5t-24.5 93.5t-29.5 79.5t-27.5 49.5q-6 6 -6 14q0 10 14 25.5t31 15.5q14 0 40.5 -25.5t52.5 -78t44 -132t18 -190.5q0 -104 -37.5 -188t-92 -142.5t-116 -89.5t-108.5 -31 q-16 0 -30.5 4.5t-14.5 24.5z" />
<glyph unicode="*" horiz-adv-x="698" d="M68 711q0 10 13 16t28 6q16 0 45.5 -8t76.5 -8q14 0 19 6q-8 14 -17.5 46t-9.5 75q0 25 19.5 34t27.5 9q18 0 29.5 -19.5t20 -45t17.5 -51.5t21 -38q4 4 41 38t83 73t87 70.5t52 31.5q14 0 32.5 -15.5t18.5 -21.5q0 -10 -24.5 -33.5t-55.5 -50t-58.5 -50t-33.5 -32.5 q12 -2 30.5 -3t36 -4t28.5 -10t11 -21q0 -10 -19.5 -17.5t-25.5 -7.5q-29 0 -49 -1t-38.5 -4t-37 -8t-41.5 -12v-18q0 -18 23.5 -37.5t53.5 -39t53.5 -39t23.5 -38.5q0 -6 -6 -14t-15 -8q-14 0 -44.5 14t-63.5 34.5t-60.5 41t-35.5 33.5q-39 -23 -65 -67t-54 -83 q-25 0 -40 8.5t-15 30.5q0 41 34.5 82t63.5 78q-20 0 -53 4t-50 6q-23 2 -50 22.5t-27 45.5z" />
<glyph unicode="+" horiz-adv-x="659" d="M117 467q0 18 16 25q6 -6 14 -7q2 0 19.5 3.5t37 7.5t35 9t15.5 9t-7 41t-16.5 81t-16.5 87t-7 59q0 2 1 12.5t4 20.5t9 18.5t19 8.5q39 0 45 -25q16 -70 25 -126t16.5 -96t14.5 -61.5t24 -21.5q49 6 92 12q35 4 69.5 8.5t44.5 4.5q4 0 25.5 -4.5t21.5 -14.5 q0 -6 -11 -15t-27.5 -17.5t-36 -15.5t-35.5 -9q-35 -8 -72 -10t-69 -9q16 -78 16 -153q0 -78 -19.5 -123t-48.5 -45q-12 0 -21 15.5t-9 39.5q0 6 5 25.5t5 38.5q0 4 -2 27.5t-5 53t-6 59.5t-6 44q-20 0 -50.5 -3t-37.5 -3q-29 0 -50 8t-21 41z" />
<glyph unicode="," horiz-adv-x="364" d="M45 -160q0 2 19.5 25.5t44 56.5t44 72t19.5 76q0 39 -9 58t-19.5 32.5t-19.5 25t-9 33.5q0 31 32 31q33 0 55.5 -21.5t38 -51.5t22.5 -60.5t7 -50.5q0 -23 -17 -66t-44 -86t-60.5 -75t-64.5 -32q-16 0 -27.5 13.5t-11.5 19.5z" />
<glyph unicode="-" horiz-adv-x="524" d="M98 420q0 8 3 10t16 2q23 0 66.5 10.5t87.5 22.5t81 22.5t45 10.5q10 0 22.5 -15.5t12.5 -23.5q0 -20 -33.5 -40t-76.5 -34t-82 -23.5t-50 -9.5q-37 0 -50 4t-23 27q-6 8 -12.5 19.5t-6.5 17.5z" />
<glyph unicode="." horiz-adv-x="284" d="M78 133q0 8 4 21.5t12 26t19.5 21.5t25.5 9q27 0 50.5 -22.5t23.5 -57.5q0 -12 -12.5 -23.5t-27.5 -20.5t-29.5 -14t-16.5 -5q-18 0 -27.5 9t-14.5 20.5t-6 21.5t-1 14z" />
<glyph unicode="/" horiz-adv-x="628" d="M57 -98q0 4 58 149q27 68 58.5 156t65 184t65.5 191.5t61 177.5q16 49 34.5 93t35 77t29.5 51t21 18q4 0 11.5 -3t15.5 -7q12 -4 12 -24q0 -4 -1 -7.5t-1 -5.5v-4q-47 -117 -89 -260t-91 -288.5t-107.5 -282.5t-136.5 -240q-16 -23 -20 -22q-6 0 -13.5 21.5t-7.5 25.5z " />
<glyph unicode="0" horiz-adv-x="731" d="M98 365q0 49 12.5 97t26 90t25.5 74.5t12 53.5q0 4 -1 10t-1 12q0 12 8 19q16 12 25.5 18t21.5 6q14 0 41 -7t37 -7h23.5t27.5 2q16 2 33 4q27 0 74 -9t93 -35.5t79 -76t33 -129.5q0 -86 -21.5 -148.5t-53.5 -106.5t-72 -71.5t-76.5 -43t-66.5 -21.5t-42 -6 q-47 0 -90 21.5t-76 58.5t-52.5 87t-19.5 108zM197 406q0 -31 5 -70t21.5 -72t46 -55.5t76.5 -22.5q55 0 98 23.5t73 64.5t44 95.5t14 113.5q0 45 -16 78t-41.5 53.5t-58.5 29.5t-64 9q-41 0 -71.5 -6t-65.5 -6q-6 -18 -16.5 -49t-20.5 -64.5t-17 -65.5t-7 -56z" />
<glyph unicode="1" horiz-adv-x="591" d="M86 535q0 4 3 13t7 15t34 32t63.5 57.5t60.5 63.5t27 50q0 16 12 20.5t16 4.5q16 0 26.5 -12.5t16.5 -31t9.5 -38t3.5 -31.5q0 -106 9 -179t21 -139q8 -72 20.5 -122t24 -83.5t19.5 -54t8 -30.5q0 -20 -25.5 -32.5t-38.5 -12.5q-8 0 -23 7t-20 17q-23 80 -36 147.5 t-22 131t-16 129t-18 143.5q-16 -6 -42.5 -23.5t-53.5 -35t-46.5 -31.5t-23.5 -14q-6 0 -11 16t-5 23z" />
<glyph unicode="2" horiz-adv-x="751" d="M133 684q0 8 48 34.5t116 54.5t138.5 49.5t115.5 21.5q27 0 47 -16.5t20 -45.5q0 -31 -22.5 -84t-57 -116.5t-74.5 -131t-75 -124t-59.5 -96.5t-26.5 -50q14 8 36.5 15.5t46.5 13.5t45.5 10t33.5 4q16 0 45 -4t57.5 -13t49 -25.5t20.5 -41.5q0 -23 -19.5 -35t-31.5 -12 q-18 0 -27.5 6t-21 14.5t-28.5 14.5t-50 6q-41 0 -73 -20.5t-59.5 -44t-54 -44t-55.5 -20.5q-35 0 -45 24.5t-10 63.5q0 8 26.5 60.5t62.5 116t68.5 122t45.5 80.5q12 23 34.5 63.5t46 82.5t40 74t16.5 38q0 14 -6.5 18.5t-12.5 4.5q-14 0 -62 -16.5t-102.5 -35t-102.5 -35 t-60 -16.5q-2 0 -13 10q-4 6 -7 12.5t-3 12.5z" />
<glyph unicode="3" horiz-adv-x="751" d="M121 119q0 12 9 31.5t20 29.5q25 -23 56.5 -35t80.5 -12q33 0 74.5 13.5t78.5 35t61.5 49t24.5 58.5q0 43 -43 61.5t-94 31.5t-94 30.5t-43 60.5q0 29 42 57.5t93 55t93 50t42 44.5q0 14 -26 14q-33 0 -72 -10t-75 -22.5t-65.5 -22.5t-43.5 -10q-29 0 -38 10t-9 35 q0 14 20 27.5t52 25.5t70 21.5t72.5 16.5t62.5 11t38 4q14 0 37.5 -3t46 -12t40 -25.5t17.5 -43.5q0 -35 -35.5 -67.5t-78.5 -60t-81 -45t-44 -19.5q-25 -10 -25 -23q0 -8 17.5 -9t60.5 -17q25 -8 53.5 -21.5t53 -35t41 -53.5t16.5 -77q0 -47 -35 -90t-85 -75.5t-108.5 -52 t-105.5 -19.5q-29 0 -58.5 5t-55 15t-42 26.5t-16.5 41.5z" />
<glyph unicode="4" horiz-adv-x="811" d="M106 422q0 29 23 61.5t57.5 67.5t73.5 68.5t74 64.5t57.5 55.5t22.5 40.5v72q0 10 9 14t15 4q18 0 29.5 -15t18 -36.5t8.5 -42t2 -31.5q0 -55 1 -91t3 -65.5t3 -61t1 -81.5q0 -20 16 -20q6 0 25.5 5t43 10t44 10.5t29.5 5.5q23 0 38 -16.5t15 -43.5q0 -10 -11.5 -24.5 t-23.5 -18.5q-27 -12 -57.5 -12t-57 -3t-44 -14.5t-17.5 -43.5q0 -10 4 -48t9 -88.5t9 -107.5t4 -105q0 -12 -2 -27.5t-8 -29.5t-16 -24.5t-29 -10.5q-16 0 -25.5 17.5t-14.5 38t-6 39t-1 20.5t-1 39t-2 89t-2 110.5t-3 103.5q0 20 -10 20q-6 0 -30 -3t-46 -3q-10 0 -46 2 t-77 13.5t-73 33t-32 62.5zM219 428q27 -10 61.5 -12t61.5 -2q16 0 37.5 1t38.5 5v108q0 33 -1 66t-9 49q-53 -53 -95 -96q-35 -37 -64.5 -73t-29.5 -46z" />
<glyph unicode="5" horiz-adv-x="722" d="M92 424q0 14 24.5 50t58.5 72t69 63.5t57 27.5q6 0 8 -5t8 -5q31 14 83.5 34.5t109.5 39t112.5 31.5t90.5 13q43 0 75.5 -5t32.5 -17q0 -8 -47 -25q-98 -31 -178 -53t-158 -57q-72 -33 -106.5 -57.5t-40.5 -24.5q-4 0 -8 3t-7 3q-10 -10 -32.5 -31.5t-32.5 -38.5 q4 -4 12 -6t19 -4q10 -2 22 -2q20 0 69.5 -8t100.5 -28.5t91 -58.5t40 -95q0 -35 -33.5 -61.5t-75.5 -45t-82 -28t-52 -9.5q-39 0 -70 32t-31 71q0 8 12 8q14 0 32 -5t34 -5q4 0 28.5 5t52.5 16t49.5 25.5t21.5 32.5q0 12 -19.5 22.5t-44.5 19t-48.5 12.5t-33.5 4 q-12 0 -24.5 -2t-40.5 -2q-18 0 -43 3t-48.5 12t-40 28.5t-16.5 50.5z" />
<glyph unicode="6" horiz-adv-x="622" d="M117 186q0 6 5 25.5t5 26.5v102q0 78 17.5 175t49 183t74.5 144.5t97 58.5q35 0 51 -15.5t16 -27.5t-10 -18t-21 -15q-43 -35 -76.5 -88t-57 -114.5t-37 -126t-13.5 -121.5q10 10 27.5 23.5t38 25.5t43 21.5t41.5 9.5q41 0 66.5 -15.5t40.5 -39t20.5 -53t5.5 -58.5 q0 -41 -19.5 -87t-48.5 -87t-61.5 -68t-59.5 -27q-29 0 -63.5 20.5t-50.5 51.5q-4 10 -9 10q-8 0 -15 -9t-15 -9q-4 0 -11.5 13.5t-13.5 30.5t-11 33.5t-5 24.5zM225 215q0 -10 8.5 -25.5t18.5 -30t22.5 -25.5t22.5 -11q20 0 40.5 20.5t38 48t28 58.5t10.5 51q0 57 -41 57 q-23 0 -48.5 -17t-48 -41t-37 -48.5t-14.5 -36.5z" />
<glyph unicode="7" horiz-adv-x="798" d="M37 682q0 16 11 22.5t22 6.5q-2 0 48 -9.5t115 -9.5q115 0 212.5 13.5t138.5 29.5q12 4 14 4q6 0 16 -8q23 -12 41.5 -27.5t18.5 -44.5q0 -18 -16.5 -42.5t-38 -61.5t-46 -91t-41.5 -134q-10 -49 -13 -110.5t-23 -108.5q-10 -23 -27.5 -43.5t-42.5 -20.5 q-16 0 -21.5 24.5t-5.5 41.5q0 27 12.5 93t31 143t41 149.5t42.5 109.5q-4 4 -10 7t-27 3l-33 -3q-34 -3 -78 -6t-89 -6t-70 -3q-39 0 -71.5 2t-57 10.5t-39 24.5t-14.5 45z" />
<glyph unicode="8" horiz-adv-x="851" d="M123 158q0 57 27.5 103t60.5 80t60.5 53.5t27.5 25.5t-21.5 36.5t-48 73.5t-48 91.5t-21.5 87.5t19.5 69.5t51 51t72.5 30.5t84 10t86 -5t76 -18t53.5 -37t20.5 -62q0 -4 -7.5 -17.5t-18.5 -29t-22.5 -27.5t-19.5 -12q-12 0 -12 20q0 6 3 15.5t3 15.5q0 37 -40 52t-95 15 q-18 0 -45 -4t-53.5 -15t-45 -30.5t-18.5 -48.5q0 -10 16.5 -41t37 -65.5t40 -64.5t25.5 -38q43 23 96 56.5t119 66.5q45 23 88 52.5t76.5 55t56 44t27.5 18.5q6 0 9 -8.5t3 -12.5q0 -27 -30 -61.5t-76 -70t-100 -70.5t-102.5 -64.5t-83 -49t-42.5 -26.5q14 -18 29.5 -52 t28.5 -72.5t22.5 -75.5t9.5 -64q0 -33 -13.5 -60.5t-36 -47t-50 -30.5t-54.5 -11q-43 0 -84 10t-71.5 30.5t-50 52.5t-19.5 75zM209 182q0 -35 28.5 -67.5t81.5 -32.5q35 0 63 22.5t28 57.5q0 6 -5.5 34.5t-14.5 60.5t-22.5 57.5t-29.5 25.5q-8 0 -29.5 -17.5t-43 -42 t-39 -52t-17.5 -46.5z" />
<glyph unicode="9" horiz-adv-x="819" d="M109 651q0 53 23.5 94t59 69t76.5 42t76 14q84 0 136 -28.5t87 -126.5q2 -4 3 -11.5t1 -9.5q0 -8 -3 -15t-3 -15q0 -2 4 -15q23 12 38.5 45t37.5 60q4 0 14.5 -6.5t21.5 -15.5t19.5 -19.5t8.5 -18.5q0 -23 -17.5 -66.5t-41 -116.5t-48 -178.5t-37.5 -248.5q-2 -27 -3 -43 t-2 -28.5t-1 -24v-25.5t3 -21.5t3 -17.5q0 -47 -49 -47q-23 0 -42 22.5t-17 49.5t9 98.5t18.5 157.5t25.5 170t31 135q-23 -12 -51.5 -24.5t-61.5 -21.5t-63.5 -15.5t-55.5 -6.5q-86 0 -143 59.5t-57 149.5zM197 643q0 -59 36.5 -78.5t90.5 -19.5q27 0 60.5 6t63 15t50 20.5 t20.5 23.5q0 18 -7 46t-24.5 53.5t-46 43t-71.5 17.5q-31 0 -62 -10t-55.5 -26.5t-39.5 -40t-15 -50.5z" />
<glyph unicode=":" horiz-adv-x="399" d="M123 573q0 8 4 21.5t12 26t19.5 21.5t25.5 9q27 0 50.5 -22.5t23.5 -57.5q0 -12 -12.5 -23t-27.5 -20.5t-29.5 -14.5t-16.5 -5q-18 0 -27.5 9t-14.5 20.5t-6 21.5t-1 14zM141 195q0 6 9.5 25.5t22.5 41t28.5 38.5t27.5 17q10 0 21.5 -12t20 -28.5t13.5 -36t5 -31.5 q0 -23 -21.5 -39t-74.5 -16q-16 0 -34 10t-18 31z" />
<glyph unicode=";" horiz-adv-x="403" d="M8 -117q0 23 15.5 32t31.5 9q8 0 7 -3t6 -3q55 0 75.5 44t30.5 97.5t20.5 97.5t45.5 44q29 0 38 -28t9 -42q0 -45 -12.5 -96t-39 -95t-69.5 -74t-107 -30q-20 0 -35.5 11.5t-15.5 35.5zM106 537q0 8 4.5 21t12.5 25.5t19.5 21.5t25.5 9q27 0 50.5 -22t23.5 -57 q0 -12 -12.5 -23.5t-28 -21t-29.5 -14.5t-16 -5q-18 0 -27.5 9t-14.5 20.5t-6.5 21.5t-1.5 15z" />
<glyph unicode="&#x3c;" horiz-adv-x="956" d="M106 258q0 18 16.5 41t44.5 52.5t61.5 63.5t70.5 74q14 14 48 59.5t73 91.5t75.5 83t59.5 37q10 0 19.5 -9.5t9.5 -19.5q0 -14 -9 -22q-29 -53 -71.5 -112.5t-89.5 -118t-95.5 -111t-87.5 -91.5q2 -2 18.5 -6t36 -7t38 -6t24.5 -3q16 0 144.5 -12.5t357.5 -28.5 q6 0 20.5 5t20.5 5q23 0 35 -21.5t12 -33.5q0 -10 -13.5 -23.5t-33.5 -13.5q-6 0 -19.5 -2t-19.5 -2q-90 0 -191.5 18.5t-218.5 18.5h-10t-18.5 -1t-34 -1h-55.5q-12 0 -48 5t-73 16.5t-67 29.5t-30 45z" />
<glyph unicode="=" horiz-adv-x="794" d="M100 283q0 23 6.5 29.5t14.5 6.5q10 0 17 -6t16 -6q6 0 37.5 7.5t75.5 17.5t95.5 23.5t97.5 23.5t80.5 17t47.5 7q23 0 44 -4t21 -20q0 -10 -34.5 -25.5t-89 -32t-117 -34t-117.5 -31.5t-94 -22.5t-45 -8.5q-35 0 -45.5 13.5t-10.5 44.5zM135 516q0 10 6 17.5t11 11.5 q14 8 87.5 27.5t239.5 31.5q39 2 62.5 3t43 2t39 1t50.5 4q10 0 21.5 -14t11.5 -22q0 -16 -18.5 -24.5t-29.5 -8.5q-12 0 -53 -4t-96 -11.5t-114.5 -15.5t-111 -15t-85 -11.5t-35.5 -4.5q-10 0 -19.5 10.5t-9.5 22.5z" />
<glyph unicode="&#x3e;" horiz-adv-x="946" d="M113 145q0 14 34.5 32t88 34t120 32.5t130 30t115.5 23.5t81 14q-127 104 -241.5 229.5t-229.5 229.5q-8 6 -14.5 26.5t-6.5 28.5q0 12 9.5 22.5t25.5 14.5q8 0 38 -25.5t67 -62.5t75.5 -76t67.5 -65l361 -324q27 -25 -22.5 -45t-174.5 -43q-72 -12 -145.5 -31.5 t-140 -38t-120 -32t-79.5 -13.5q-23 0 -31 14.5t-8 24.5z" />
<glyph unicode="?" horiz-adv-x="802" d="M131 1014q0 25 37 41t85 24t92 11.5t58 3.5q63 0 121 -18.5t102 -47.5t69.5 -66.5t25.5 -76.5q0 -37 -31 -77t-76 -82t-98 -85t-98 -85t-76 -81t-31 -72q0 -23 5.5 -48t15.5 -42q-10 -18 -20.5 -28.5t-26.5 -10.5q-14 0 -25.5 12.5t-20 31t-13.5 39t-5 36.5q0 47 12.5 79 t38 59.5t62.5 56t86 65.5q37 29 74.5 62t67.5 64.5t49.5 61t19.5 54.5q0 20 -17.5 40.5t-46 36t-67.5 25t-82 9.5q-96 0 -150.5 -14.5t-87.5 -14.5q-16 0 -32.5 9t-16.5 28zM315 18q0 6 1 17.5t6.5 24t13.5 21.5t22 9q6 0 21.5 -9t32 -21.5t29 -26t12.5 -21.5q0 -25 -25 -38 t-45 -13q-18 0 -43 19.5t-25 37.5z" />
<glyph unicode="@" horiz-adv-x="1089" d="M90 260q0 109 36 208t95.5 184t134 153.5t151.5 117t149.5 75t125.5 26.5q37 0 75 -6t67.5 -18.5t48 -28t18.5 -33.5v-39q0 -8 -4 -8t-8 4q-23 16 -70 35.5t-118 19.5q-49 0 -115 -26.5t-136.5 -74.5t-138 -112.5t-122 -141.5t-87 -162t-32.5 -173q0 -47 12 -103.5 t41 -105.5t79 -81.5t128 -32.5q51 0 94 11t75 23.5t52.5 23.5t28.5 11q14 0 14 -16q0 -29 -26.5 -51.5t-66.5 -39t-86 -25.5t-83 -9q-59 0 -118.5 21.5t-106.5 69.5t-77 123t-30 181zM401 338q0 41 22.5 97.5t53.5 108.5t64.5 89t56.5 37q16 0 30.5 -11.5t14.5 -25.5 q0 -6 -11 -15.5t-18 -15.5q-18 -18 -40.5 -50t-42 -66.5t-34 -67.5t-14.5 -51q0 -6 1 -14.5t5 -12.5q16 6 27.5 33.5t22 58.5t21.5 55.5t26 24.5q20 0 34.5 -12.5t22.5 -29.5t11 -33.5t3 -24.5q0 -10 9.5 -22.5t21.5 -25t25.5 -20.5t21.5 -8q37 0 74 17.5t70.5 45t64.5 63.5 t55 70q4 -2 12.5 -8t8.5 -14q0 -35 -32 -79t-75 -84t-90 -67.5t-78 -27.5q-14 0 -35.5 8t-43 20.5t-43 28t-35.5 27.5q-8 -12 -21.5 -28.5t-29 -32t-32 -25.5t-30.5 -10q-35 0 -54.5 34.5t-19.5 63.5z" />
<glyph unicode="A" horiz-adv-x="831" d="M113 16q0 18 10 86t22.5 151t24.5 165t16 129q2 25 13.5 80t24 113.5t24.5 105.5t16 53q33 76 42 156t14.5 146.5t17.5 108.5t51 42q10 0 21.5 -16.5t21.5 -39t16.5 -44t8.5 -33.5t5 -49t6 -81.5t6 -86t5 -64.5q6 -68 19.5 -152t28 -157.5t26.5 -123.5t18 -50q8 0 21.5 4 t25.5 4q16 0 17 -17q0 -16 -8.5 -26t-17.5 -18.5t-16 -14.5t-7 -14q0 -16 18 -84l33 -121q4 -16 18.5 -55t29.5 -81t27.5 -78t12.5 -44q2 -8 2 -15.5v-11.5q0 -20 -9 -28.5t-36 -8.5q-25 0 -33 9q-12 12 -32.5 63t-43 121t-44 149.5t-37.5 151.5q-23 -10 -62 -21.5 t-80 -21.5q-47 -10 -98 -23q-18 -88 -27.5 -150.5t-16.5 -102t-18.5 -59t-35.5 -19.5q-16 0 -28.5 18.5t-12.5 54.5zM264 387q0 -8 6 -8q12 0 45 7t68 17.5t61.5 20.5t26.5 16t-7 32t-16.5 66t-19.5 91t-18 108q-4 37 -10.5 100.5t-12.5 126t-10 107.5l-4 45l-7 -30 q-6 -29 -13 -65t-12 -67.5t-5 -35.5v-58q0 -4 -5 -35.5t-13.5 -80t-17.5 -104.5t-17.5 -107.5t-13.5 -91.5t-5 -54z" />
<glyph unicode="B" horiz-adv-x="1157" d="M-43 852q0 29 33 72t85 92t115.5 97t124.5 89q61 39 134 75t144 62.5t134.5 42t103.5 15.5q16 0 37 -4t39.5 -12.5t30.5 -21.5t12 -32q0 -55 -32.5 -113.5t-86 -118t-120 -120t-133 -116.5t-128 -108.5t-102.5 -95.5q23 8 74 27.5t111.5 39t122 34t108.5 14.5q14 0 61 -2 t98.5 -16.5t92.5 -46.5t41 -89q0 -53 -24.5 -104t-61.5 -96t-80 -83t-78 -65q-37 -29 -86 -61.5t-95 -61t-81 -52t-43 -32.5l-59 -47q-10 -8 -23.5 -10t-22.5 -2q-14 0 -22 15.5t-8 31.5q0 12 23.5 44t54.5 54q31 23 75.5 45.5t122.5 71.5q39 25 94.5 65t104.5 86t84 96 t35 97q0 18 -44 38t-124 20q-82 0 -172 -25t-167 -53.5t-132.5 -53t-67.5 -24.5q6 -47 15.5 -115.5t19.5 -132.5q10 -74 22 -153h9q4 -20 16 -59.5t12 -61.5q0 -33 -24 -33q-12 0 -27.5 22.5t-31 53t-27 60.5t-15.5 42q-18 68 -35.5 156t-30.5 177t-20.5 168t-7.5 130 q0 14 7.5 24.5t7.5 20.5t-5.5 15t-5.5 18q0 6 3 13t18 7q14 -4 27.5 -4t23.5 -5t16 -17.5t6 -38.5v-13q0 -4 -1 -9t-1 -9q0 -35 2.5 -55.5t6.5 -20.5q6 0 44 30t91 75t115.5 100t119.5 106q23 20 62 58.5t76.5 81.5t65.5 81t28 58t-13 20q-16 0 -69 -14t-121 -37.5 t-139.5 -54.5t-126.5 -64q-57 -39 -114.5 -86t-103.5 -89t-76 -71.5t-32 -33.5q-4 -4 -4 -8t3 -11.5t3 -11.5q0 -6 -8 -10t-18 -4q-16 0 -41 7t-25 40z" />
<glyph unicode="C" horiz-adv-x="1069" d="M96 223q0 23 18.5 88.5t47 149.5t67.5 176t80 169t81 126t75 49q23 0 34 -14.5t11 -30.5q-2 -12 -28.5 -52t-55.5 -81q-4 -6 -14.5 -20.5t-20.5 -28.5q-12 -16 -24 -35q-8 -14 -36 -72.5t-58.5 -135.5t-55 -160t-24.5 -144q0 -35 15 -55.5t36.5 -30.5t45 -13.5t42.5 -3.5 q76 0 161 34t162.5 89.5t143 128t102.5 150.5q8 14 17.5 18t17.5 4q16 0 28.5 -22.5t12.5 -36.5q0 -29 -15.5 -59.5t-38 -61.5t-49 -58.5t-49.5 -47.5q-55 -49 -113.5 -93.5t-121 -79t-130 -55t-141.5 -20.5q-223 0 -223 229z" />
<glyph unicode="D" horiz-adv-x="917" d="M-291 -113q0 23 16.5 53.5t32.5 30.5t23.5 -10t7.5 -22q0 -6 -1 -10.5t-1 -6.5v-4q78 8 208 48t310 138q78 43 154 101.5t136 125t97 139.5t37 142q0 49 -50 101.5t-127 98.5t-167 80t-168 46q2 -10 6 -50t12.5 -93.5t19.5 -113.5t26 -112q16 -57 21 -84.5t7 -46.5 q2 -20 7.5 -52t8.5 -65.5t6 -63.5t3 -46q0 -18 -7.5 -38.5t-17.5 -20.5q-25 0 -34 17t-16 59t-17.5 110t-38.5 166q-41 137 -57.5 259t-20.5 193l-9 1q-10 1 -25 1t-34.5 1.5t-36.5 1.5q-35 0 -63.5 -13.5t-48 -30t-32.5 -30t-17 -13.5q-14 0 -40 7.5t-26 27.5 q0 27 25.5 54.5t62.5 49t80 35t80 13.5q61 0 143 -16.5t169 -45t172 -69.5t152.5 -90t108.5 -107t41 -119q0 -70 -24.5 -133t-69.5 -122.5t-105.5 -116t-131.5 -109.5q-76 -57 -176.5 -110.5t-202 -95.5t-191.5 -66.5t-145 -24.5q-37 0 -54.5 9.5t-17.5 41.5z" />
<glyph unicode="E" d="M57 473q0 16 12.5 26.5t28.5 18.5l21 12q18 78 43.5 151t64.5 146q-16 0 -34.5 4.5t-18.5 28.5q0 29 34 63.5t78 65.5t87 52.5t61 21.5q8 0 11.5 -3t11.5 -3q16 0 41.5 6t54.5 14t54.5 14.5t41.5 6.5q18 0 27.5 -12.5t9.5 -26.5q0 -16 -20.5 -23.5t-36.5 -11.5 q-57 -10 -120 -35.5t-116 -56.5q-20 -23 -49 -65t-55.5 -95t-48 -110.5t-27.5 -108.5l35 16q158 76 257 119t154 43q11 0 19 -8q2 -4 4 -5t2 -5q0 -12 -51 -46t-127 -76t-160 -84t-149 -69q0 -4 -4.5 -26.5t-4.5 -28.5v-39q0 -47 14.5 -93t44 -83t72.5 -59.5t101 -22.5 q25 0 60.5 9t69.5 26.5t60.5 42t32.5 55.5q25 -2 30 -14t5 -17q0 -53 -25.5 -91t-63.5 -61.5t-80 -34.5t-75 -11q-176 0 -256 98t-80 258q0 8 4 37t4 39q0 2 -8 5t-17 7t-16.5 13.5t-7.5 25.5z" />
<glyph unicode="F" horiz-adv-x="688" d="M84 424q0 16 10 28.5t24.5 22.5t31 18.5t28.5 16.5l-57 391q0 16 6 33.5t27 17.5q4 0 12 -9t12 -9q6 4 53.5 42t116 82t147 80t146.5 36q27 0 57.5 -22.5t30.5 -51.5q0 -8 -6 -12.5t-12 -8.5q-8 -4 -19 -6q-16 0 -28.5 2t-28.5 2q-23 0 -89.5 -25.5t-138 -64.5t-128 -82 t-58.5 -76l25 -139q10 -53 17 -96t9 -43q4 2 28 17.5t58.5 35t76.5 42t81 41t72 30.5t51 12q14 0 25.5 -6t11.5 -23q0 -12 -29 -34.5t-72 -49t-93 -56.5t-93.5 -55.5t-71.5 -47t-28 -31.5t7 -64.5t20.5 -120t31 -127t37.5 -85.5q4 -4 3 -13q0 -12 -16 -27.5t-28 -15.5 q-16 0 -33.5 31t-32 78t-27.5 100.5t-22.5 100.5t-15.5 77.5t-8 30.5q-6 0 -28.5 -7t-47.5 -7q-18 0 -31.5 15.5t-13.5 31.5z" />
<glyph unicode="G" horiz-adv-x="962" d="M94 307q0 131 49.5 275.5t137.5 310.5q57 109 106 191.5t96 139t94.5 85t100.5 28.5q41 0 70.5 -15t29.5 -60q0 -14 -6 -25.5t-18 -11.5q-16 0 -23.5 9t-40.5 9q-55 0 -108.5 -51t-99.5 -117.5t-79.5 -132t-48.5 -96.5q-25 -51 -54.5 -121t-56 -143.5t-45 -142 t-18.5 -113.5q0 -57 19.5 -101.5t52.5 -75t77 -46t93 -15.5q68 0 138.5 33t126.5 86t92 122.5t36 141.5t-37 119t-82 47q-29 0 -40 -9.5t-21 -23.5q-14 -23 -26.5 -37t-43.5 -24q-49 -16 -76.5 -23.5t-39.5 -11.5l-17 -4q-12 0 -33.5 17.5t-21.5 27.5q0 37 44 70.5t99 61.5 t106.5 44t63.5 16q61 0 101 -24.5t64 -63.5t34 -85t10 -89q0 -41 -5 -77.5t-22.5 -74.5t-48 -81t-80.5 -99q-59 -66 -139 -116.5t-178 -50.5q-61 0 -121.5 20t-106.5 61t-75 102.5t-29 143.5z" />
<glyph unicode="H" horiz-adv-x="782" d="M121 504q0 25 22.5 40t49.5 25q-2 18 -2.5 40t-0.5 75v67v100t1.5 123.5t1.5 137.5q2 16 10 40t26 24q14 0 24.5 -11.5t16.5 -28t9.5 -34t3.5 -29.5v-489q18 0 48.5 2t63.5 5t65 7t52 8l-47 430q-2 14 -3 30.5t-1 27.5q0 41 11 66.5t34 25.5q29 0 35 -26.5t8 -78.5 q2 -33 4 -64.5t6 -62.5l47 -346q25 0 50.5 -3t25.5 -21q0 -10 -9 -16.5t-20.5 -10.5t-24 -9t-18.5 -11l15 -97q12 -80 21 -155.5t9 -143.5q0 -53 -11 -95t-40 -42q-14 0 -25.5 36t-18.5 82t-10 92t-3 67q0 14 -2 45.5t-6 67.5t-8.5 68t-6.5 48q-35 -2 -94 -9t-145 -30v-25 q0 -45 4 -99t9 -110.5t9 -112.5t4 -108q0 -20 -4 -33.5t-18 -13.5q-25 0 -38 24.5t-19.5 58.5t-9.5 71t-5 61q-8 53 -13 124t-9 145q-8 0 -20.5 5t-25 12t-20.5 15.5t-8 18.5z" />
<glyph unicode="I" horiz-adv-x="1062" d="M10 20q0 27 15.5 39.5t35.5 18.5q4 2 40 10t87.5 19.5t109.5 25.5t108.5 26.5t82 23t31.5 14.5q0 12 -9 44.5t-17 61.5l-13 41q-29 131 -45 264t-26 262q-4 4 -11 4q-10 0 -53 -20t-92 -44t-91 -44.5t-50 -20.5q-14 0 -27.5 12.5t-13.5 24.5q0 16 26.5 38t66.5 45.5 t88 45t92 39t76 27.5t42 10q16 0 42.5 6t57.5 14.5t62.5 14.5t56.5 6q27 0 27 -18q0 -10 -9 -17l-59 -16q-23 -6 -48.5 -13.5t-47 -16.5t-34.5 -20.5t-13 -23.5q0 -51 11 -134t26.5 -178t34 -193.5t30.5 -184.5l367 94q12 2 24 6q10 4 20.5 6.5t18.5 2.5q19 0 19 -29 q0 -39 -48 -57q-47 -18 -109.5 -38t-119.5 -35.5t-101 -28.5t-55 -19v-10.5t2 -12.5l7 -49q0 -18 -5.5 -28.5t-21.5 -10.5q-18 0 -25.5 11.5t-12.5 26.5t-8 31.5t-11 24.5q-4 0 -33 -8t-73 -20.5t-98 -27.5t-105.5 -27.5t-96.5 -20.5t-69 -8q-55 0 -56 34z" />
<glyph unicode="J" horiz-adv-x="749" d="M-145 948q0 23 51 52.5t129 60.5t169 60.5t171 52t135 37t61 14.5q14 0 17.5 -8.5t3.5 -14.5q0 -12 -30 -28.5t-69.5 -35t-82.5 -35t-70 -26.5l-23 -8q10 -16 18.5 -30.5t17.5 -37t22.5 -58.5t38.5 -93q45 -111 88 -221.5t76.5 -205.5t53 -168t19.5 -110 q0 -111 -51 -146.5t-172 -35.5q-41 0 -97.5 11.5t-108.5 34t-88 55t-36 75.5q0 2 3 21.5t9.5 41t15.5 39t19 17.5q20 0 23.5 -11t3.5 -38q0 -37 25.5 -65.5t62.5 -49t79 -31t75 -10.5q27 0 54.5 3t50 13.5t35.5 29t13 48.5q0 27 -5 54.5t-20.5 72.5t-44 116t-73.5 183 q-96 238 -125 356t-31 126q-16 -2 -36.5 -10.5t-42 -17.5t-42 -17.5t-34.5 -14.5q-43 -16 -78 -37.5t-61.5 -41t-45 -33t-30.5 -13.5q-31 0 -37 29t-6 49z" />
<glyph unicode="K" horiz-adv-x="958" d="M82 911q0 86 14.5 132.5t34.5 46.5q18 0 30.5 -28t12.5 -52q0 -68 -1 -105t-1 -53q0 -63 6 -125.5t15 -116.5q8 -61 20 -116q25 51 54.5 109.5t62 116.5t65.5 115.5t64 108.5q20 35 45.5 59.5t48.5 24.5q16 0 36.5 -13.5t20.5 -35.5q0 -6 -2 -13.5t-4 -11.5 q-10 -16 -23.5 -32.5t-23.5 -32.5q-33 -47 -74 -106.5t-76.5 -118t-60 -109.5t-24.5 -82q0 -33 38.5 -57.5t96 -42t126 -28.5t128 -18.5t101.5 -10.5t46 -3q47 0 60.5 -7t13.5 -30q0 -20 -27.5 -33.5t-73.5 -13.5q-39 0 -121.5 8.5t-175 27t-175.5 46t-121 66.5 q4 -16 14 -44t22 -61q23 -57 42.5 -115.5t19.5 -93.5q0 -66 -9.5 -99.5t-39.5 -33.5q-25 0 -35 20.5t-10 49.5v10t2 47q0 16 -2 32.5t-6 29.5q-33 80 -61 160.5t-52 179.5q-6 20 -13.5 52t-13.5 84t-10 129t-4 187z" />
<glyph unicode="L" horiz-adv-x="786" d="M76 733q0 131 13 205t30.5 110.5t32 46t16.5 9.5q16 0 26.5 -14.5t10.5 -28.5q0 -8 -8.5 -28.5t-17.5 -57.5t-16 -94.5t-7 -139.5q0 -74 7 -153.5t19.5 -157.5t27.5 -147.5t31.5 -123t31 -85t26.5 -31.5q2 0 26.5 10t61.5 25.5t81 31t89 27.5q20 6 48 13.5t52.5 13.5 t44 10t23.5 4q33 1 33 -22q0 -14 -13 -23q-18 -12 -63 -34.5t-99.5 -47t-113.5 -51.5t-108.5 -47.5t-83 -33.5t-35.5 -13q-16 0 -36 37t-38 99t-34.5 145t-30 175.5t-20.5 187.5t-7 183z" />
<glyph unicode="M" horiz-adv-x="1050" d="M121 715q0 53 5 73.5t15 30.5v125q0 29 15.5 44.5t40.5 15.5q20 0 46.5 -35t58.5 -88.5t66.5 -114.5t68.5 -114.5t66 -88.5t60 -35q27 0 51.5 50.5t46 132.5t38 186t26.5 213q0 12 -2 27.5t-2 33.5q0 25 11 53.5t44 28.5q18 0 29.5 -10t15.5 -25.5t5 -31t1 -25.5 q0 -16 -3 -54t-3 -116q0 -68 10.5 -157t28 -188t41 -204.5t51 -206t55 -189.5t56.5 -157q4 -12 8 -22t7 -22.5t3 -22.5q0 -14 -10 -23.5t-23.5 -15.5t-25.5 -8t-14 -2q-12 0 -45 74.5t-71 210t-77 321.5t-63 409q-4 -47 -15.5 -109.5t-34 -117.5t-58.5 -93t-91 -38 q-39 0 -88 41t-95 97.5t-84 114.5t-57 95q8 -90 27.5 -217t60.5 -268q4 -14 9.5 -21.5t10.5 -15.5t8 -17.5t3 -27.5q0 -27 -20.5 -39t-38.5 -12q-10 0 -26.5 31.5t-35 83t-37 114t-34 123.5t-25.5 115.5t-10 87.5z" />
<glyph unicode="N" horiz-adv-x="968" d="M-2 901q0 23 6 46.5t23 23.5q10 0 14 -5t8 -5l25 10q10 0 35.5 -25.5t59.5 -66.5t73 -92.5t78.5 -100.5t75.5 -92t65 -68q45 -41 90 -77.5t91 -74.5t97.5 -81t112.5 -98q2 -2 10 -2q4 0 4 10v24q0 29 -16 104t-46 174t-69 212.5t-83 219t-92 191.5t-93 134 q-12 12 -17.5 36.5t-5.5 40.5q0 14 19.5 32t36.5 18q25 0 55.5 -49.5t64.5 -128t70.5 -177t71.5 -198.5q41 -119 76.5 -235t63.5 -216t45.5 -180t21.5 -125q0 -20 -18.5 -36.5t-41.5 -16.5q-4 0 -12 5t-12 9q-86 82 -182.5 162t-194.5 164t-193.5 176t-179.5 200 q27 -111 72 -234.5t87 -232t72.5 -187.5t31.5 -99q0 -25 -20 -40.5t-40 -15.5q-12 0 -26.5 26t-32 67t-35 91t-33.5 100t-30.5 94t-22.5 73l-56 166q-18 53 -36.5 109.5t-34 105.5t-24.5 86t-9 49z" />
<glyph unicode="O" horiz-adv-x="825" d="M102 514q0 119 15.5 204t44.5 148q0 6 -7.5 12.5t-7.5 16.5t19.5 26.5t47.5 32t55.5 26.5t41.5 11q8 0 27.5 -8t50.5 -8q10 0 20.5 2t22.5 2q43 0 93 -40t94.5 -103.5t76 -144.5t41.5 -163q4 -27 5 -43t1 -32q0 -51 -13 -121t-45 -132.5t-84 -106.5t-132 -44 q-74 0 -139.5 42t-116.5 108.5t-81 149.5t-30 165zM199 537q0 -23 12 -87.5t44 -133t85 -122t135 -53.5q55 0 90 34t54.5 83t27.5 101.5t8 89.5q0 39 -16 111.5t-49 143t-79 124t-103 53.5q-4 0 -15.5 1t-26 2t-26.5 2t-14 1q-33 0 -56.5 -31t-39 -80t-23.5 -112.5 t-8 -126.5z" />
<glyph unicode="P" horiz-adv-x="729" d="M-33 936q0 37 33 71.5t83 63.5t111.5 52.5t119 39t103.5 24.5t66 9q33 0 62.5 -18.5t50 -49t33 -71.5t12.5 -86q0 -133 -31.5 -233.5t-71.5 -177.5t-78 -137.5t-50 -115.5q-10 -37 -45 -37q-4 0 -6.5 1t-6.5 1q14 -35 43 -78.5t57.5 -89t50 -88.5t21.5 -73 q0 -16 -21.5 -31.5t-37.5 -15.5q-8 0 -12 10q-20 74 -75.5 157.5t-114 188t-103.5 235.5t-45 297q0 70 7 118t42 48q20 0 28.5 -12t8.5 -27q0 -186 34.5 -327.5t77.5 -218.5l35 53q53 82 92 144.5t63.5 122.5t36 123.5t11.5 147.5q0 23 -5 49.5t-16.5 48t-28 36t-40.5 14.5 q-33 0 -99.5 -18.5t-136 -49t-127 -68.5t-69.5 -77q-2 -4 -6.5 -10.5t-8.5 -6.5q-14 0 -30.5 23t-16.5 39z" />
<glyph unicode="Q" horiz-adv-x="999" d="M100 614q0 88 13.5 190.5t36 189.5t55.5 144.5t71 57.5q8 0 33 -7t25 -22q0 -6 -6 -11t-13 -9l-20 -21q25 6 55.5 12.5t65.5 6.5q49 0 110.5 -51.5t113.5 -131t88 -179t36 -197.5q0 -158 -21.5 -264.5t-64.5 -192.5q6 -10 35.5 -16.5t44.5 -6.5q33 0 57.5 12.5t41.5 31 t28.5 38t17.5 33.5q10 25 19 25q18 0 35.5 -13t17.5 -36q0 -33 -19.5 -66t-51.5 -59.5t-72.5 -43t-83.5 -16.5q-18 0 -40 5.5t-40.5 11.5t-32.5 12t-19 10q-27 -25 -61.5 -42t-75.5 -17q-78 0 -147.5 51t-120.5 137t-81 199t-30 235zM184 612q0 -104 27 -200.5t70 -170 t95 -116.5t103 -43q41 0 68 20q-18 18 -45 52t-51.5 74t-42 82t-17.5 81q0 12 1 33.5t6 42t14.5 36t25.5 15.5q14 0 23.5 -12t15.5 -27.5t9 -32t3 -22.5q0 -39 12.5 -82t30 -80t38 -62.5t38.5 -27.5q16 25 31.5 71t27 101t17.5 114.5t6 112.5q0 86 -29.5 175.5t-72.5 161 t-93.5 117.5t-93.5 46q-45 0 -78.5 -8t-74.5 -27q-18 -55 -29.5 -102t-20 -96.5t-11.5 -103.5t-3 -122z" />
<glyph unicode="R" horiz-adv-x="1048" d="M68 748q0 6 3 16t15 20q-8 16 -8 35q0 57 65.5 105.5t158.5 82t195.5 52t174.5 18.5q20 0 61 -3t81 -15t69.5 -38t29.5 -71q0 -43 -44 -98t-109.5 -116.5t-141 -126t-141 -129t-109.5 -125t-44 -111.5q0 -39 33.5 -69t85 -52.5t111.5 -38.5t114.5 -26.5t94.5 -15.5t48 -5 q27 0 92.5 -6t134 -21.5t121.5 -40t53 -63.5q0 -14 -10 -30.5t-28 -16.5q-10 0 -23 6q-74 35 -172 56.5t-201.5 37.5t-202 35.5t-172.5 50.5q12 -27 24.5 -43t22 -28.5t15.5 -23.5t6 -30q0 -16 -12.5 -24.5t-24.5 -8.5q-25 0 -52.5 31t-56 78t-56 105.5t-50 113.5t-39 101 t-22.5 71zM141 782q0 -4 6.5 -8t6.5 -14q0 -12 12 -62.5t28.5 -113t36 -124t35.5 -98.5q84 119 181.5 208t179.5 158t136 121t54 99q0 14 -14.5 25.5t-38 18.5t-51 10.5t-54.5 3.5q-41 0 -98 -12.5t-115.5 -31t-107.5 -37t-72 -30.5q-43 -25 -84 -54.5t-41 -58.5z" />
<glyph unicode="S" horiz-adv-x="933" d="M94 623q0 51 29 98t71 87t87 70.5t75 51.5q25 14 69 37.5t94 45t100.5 37t85.5 15.5q41 0 55 -22.5t14 -63.5q0 -35 -8 -74t-18.5 -75.5t-19.5 -64.5t-13 -36q-8 -18 -18.5 -24.5t-14.5 -6.5q-8 0 -8 11q0 6 3 23.5t8 42t8 53t3 57.5q0 45 -4 65.5t-33 20.5t-78 -15.5 t-100 -37.5q-55 -25 -107 -64t-93 -80t-67 -79t-26 -60q0 -25 34 -46.5t86 -37.5t115.5 -28.5t125.5 -18.5q51 -6 112.5 -16.5t114.5 -33t90 -60.5t37 -97q0 -92 -32.5 -144.5t-96.5 -97.5q-16 -10 -45 -24.5t-63.5 -26.5t-73.5 -20.5t-72 -8.5q-92 0 -139 19.5t-47 46.5 q0 29 16.5 47t28.5 21l22 -17q10 -10 29 -21.5t59 -11.5q39 0 94.5 13.5t105.5 41t86 68.5t36 94q0 47 -70.5 87t-222.5 55q-78 6 -153.5 19.5t-136 37t-97.5 59t-37 89.5z" />
<glyph unicode="T" horiz-adv-x="874" d="M-121 985q0 16 8.5 33.5t22.5 17.5q16 0 25.5 -5t23.5 -5q4 0 42 4t90 10.5t108.5 12.5t99.5 10q10 0 21.5 1t21.5 3t20 2q0 6 7.5 27.5t15.5 21.5q20 0 33.5 -15.5t23.5 -21.5q14 2 44 9.5t64 13.5t65.5 11t54.5 7l239 15q31 2 71 5t79 7t67.5 7t38.5 3 q18 -2 32.5 -12.5t14.5 -22.5q0 -14 -11 -23t-21 -9q-18 0 -58.5 -4.5t-86.5 -9.5t-90 -10t-71 -9q-8 0 -33.5 -2t-57 -5t-63.5 -7.5t-50 -6.5q-23 -4 -66 -14t-78 -20q-12 -4 -22 -6.5t-17 -4.5q-8 -2 -14 -4l111 -391q6 -18 20 -59t33.5 -90.5t41 -102.5t38.5 -98 q10 -27 22.5 -66t22.5 -79t17 -72.5t7 -44.5q0 -29 -16 -60.5t-43 -31.5q-25 0 -25 34v15q0 6 1.5 14t1.5 18q0 16 -12.5 56.5t-31 90.5t-40 106.5t-41 106.5t-34 86t-18.5 48q-6 16 -15 47t-21.5 70t-25.5 83t-26 87q-31 100 -67 219q-10 -2 -66.5 -9.5t-126 -15.5 t-133 -15t-86.5 -7q-51 0 -65.5 16.5t-16.5 40.5z" />
<glyph unicode="U" horiz-adv-x="817" d="M98 643q0 76 7.5 108.5t48.5 32.5q16 0 25 -11t9 -23q0 -115 16.5 -233t47.5 -215t77 -158.5t107 -61.5q27 0 47.5 19.5t33.5 46t19.5 51t8.5 37.5q-12 29 -25.5 76.5t-24 105t-16.5 119t-6 118.5q0 88 1 144.5t7 88.5t18.5 43t35.5 11q12 0 23 -7t18.5 -15.5t11.5 -16.5 t4 -10q0 -8 -4 -13.5t-4 -13.5q0 -16 5 -47t11 -63q12 -66 23.5 -150t11.5 -194v-86q0 -16 17.5 -66.5t78.5 -146.5q41 -66 77 -105t58 -61q14 -12 24.5 -23.5t10.5 -17.5q0 -25 -12 -32t-29 -7q-12 0 -33 4q-10 2 -29.5 19.5t-41.5 39.5q-25 25 -54 56l-102 116 q-4 -6 -18.5 -25.5t-36 -41t-50 -37.5t-61.5 -16q-23 0 -54.5 13t-64 37.5t-64.5 59.5t-54 78q-29 55 -48.5 115.5t-31 122t-15.5 122t-4 113.5zM561 700q0 -23 1 -54.5t4 -63t7.5 -61t10.5 -50.5q0 14 2 29q0 12 1 27.5t1 31.5v31q-2 12 -6 30.5t-9.5 37t-8.5 30.5z" />
<glyph unicode="V" horiz-adv-x="684" d="M41 705q0 27 15.5 45t27.5 18q18 0 26.5 -13.5t14.5 -37t14 -56t27 -73.5q20 -49 58 -113.5t83 -130t91 -123t85 -88.5q12 35 18.5 92.5t6.5 114.5q0 53 -6 124t-17.5 145.5t-26 147t-28.5 132.5l-63 235q0 20 20.5 33.5t38.5 13.5q27 0 37 -11t13 -33.5t4 -56.5t12 -77 q20 -96 39.5 -205.5t36 -213t26.5 -191.5t10 -139q0 -27 -8 -73t-20.5 -91t-29 -78t-30.5 -33q-23 0 -65.5 40t-92 95.5t-95.5 115t-73 99.5q-35 53 -62.5 108.5t-47 107t-29.5 95.5t-10 75z" />
<glyph unicode="W" horiz-adv-x="1144" d="M2 813q0 12 4 22.5t19 10.5q23 0 34 -13.5t15 -33.5q10 -43 27.5 -99.5t39 -116t45 -115.5t46 -101t43 -73t34.5 -28t21.5 23.5t11.5 54.5t5 59.5t1 38.5q-10 18 -15 43t-5 41q0 27 13 45.5t26 18.5q8 0 11 -2t9 -4q6 0 10 1t11 1q4 0 9 -3t11 -18q27 -70 76 -143.5 t110.5 -133t133 -98t145.5 -38.5q27 0 49.5 17t22.5 46q0 86 -17.5 176t-47.5 184.5t-68.5 191.5t-79.5 200q-35 86 -67 136t-55.5 79.5t-37.5 49t-14 48.5q0 35 25.5 51.5t53.5 16.5q16 0 37 -32t43.5 -82t45 -111.5t44.5 -123.5q33 -90 74 -193.5t77 -206.5t60.5 -199.5 t24.5 -170.5q0 -70 -38 -119t-130 -49q-63 0 -128 22.5t-126 59.5t-117.5 86.5t-101.5 102.5q-4 -18 -12.5 -53t-20.5 -70t-27.5 -60.5t-31.5 -25.5q-27 0 -58.5 26.5t-63.5 70.5t-61.5 101.5t-52.5 118.5q-59 170 -75.5 267.5t-16.5 105.5z" />
<glyph unicode="X" horiz-adv-x="843" d="M-90 1063q0 16 16.5 39.5t34.5 23.5q16 0 48 -53t75 -124.5t92 -146.5t98 -120q3 31 3 60v14v17q0 26 2 50q0 16 2 59.5t6 97.5t11 111.5t20.5 105.5t31 79t43.5 31q16 0 20.5 -25t4.5 -33q0 -76 -9.5 -145.5t-19.5 -142t-19.5 -154.5t-9.5 -182v-12.5t5 -16.5 q8 -18 47 -55t91 -83t110.5 -97.5t107.5 -101.5t81 -92t32 -71q0 -23 -13.5 -26.5t-23.5 -3.5q-4 0 -54.5 45t-119 106.5t-138 122.5t-112.5 94q2 -29 6 -68.5t8 -77.5t7 -68t3 -42q0 -31 -13 -53.5t-42 -22.5q-20 0 -25.5 5.5t-9.5 27.5q-6 31 -12 83t-10 110.5t-7.5 114 t-5.5 89.5q-10 12 -40.5 49t-70.5 88.5t-84 111t-81 114.5t-61.5 100t-24.5 68z" />
<glyph unicode="Y" horiz-adv-x="643" d="M-18 1079q0 29 12 51.5t33 22.5q6 0 18 -15.5t30.5 -38t43 -50t55.5 -52.5q20 -18 57 -45.5t73 -54.5t62.5 -46.5t28.5 -19.5q8 0 10.5 16.5t2.5 20.5l10 123q10 104 25.5 189.5t15.5 148.5q0 6 -4 24.5t-4 24.5q0 12 8 19.5t18 11.5q12 6 29 8q29 0 41 -21.5t12 -39.5 q0 -74 -9 -143.5t-20.5 -139t-20.5 -142.5t-9 -153q0 -12 14 -25.5t35.5 -24.5t48 -22.5t51.5 -19.5q0 -29 -13 -41t-30 -12q-18 0 -35.5 6t-44.5 16l-30 13q-4 -10 -5.5 -25.5t-1.5 -26.5q0 -72 6.5 -155.5t14.5 -167.5t19.5 -164t19.5 -144.5t14 -108.5t6 -56v-51 q0 -23 -5 -41.5t-21 -18.5q-31 0 -52.5 50.5t-35 115t-19.5 124.5t-6 81q0 14 -5 69.5t-11 124t-11.5 139t-5.5 119.5q0 20 -1 46t-1 49v63q0 33 -46 68t-111.5 77t-135 96t-114.5 130q-6 2 -6 18z" />
<glyph unicode="Z" horiz-adv-x="1153" d="M23 973q0 14 18 35.5t31 23.5q6 0 32.5 -8t45.5 -8q88 0 145 -2t100 -6q19 -2 63 -1h10q39 1 78 -7q44 -8 76.5 -30t32.5 -67q0 -37 -23.5 -88t-61.5 -108.5t-84 -119t-91 -118.5q-47 -61 -85 -108.5t-63.5 -89.5t-39.5 -78.5t-14 -75.5q0 -8 8 -13.5t20 -7.5t24.5 -3 t20.5 -1q33 0 127 18.5t216 42t252 42t235 18.5q23 0 39 -9t16 -42q0 -23 -24.5 -35t-55.5 -12q-6 0 -18.5 1t-26.5 3t-24 4l-11 2q-70 0 -166 -23.5t-197.5 -51t-199.5 -51.5t-174 -24q-94 0 -137 24t-43 99q0 51 34.5 121t86 145.5t113 154.5t112.5 148.5t86 126t35 89.5 q0 27 -40 41t-85 14q-25 0 -40.5 -3t-43 -6t-78.5 -5t-150 -2q-31 0 -56 15t-25 36z" />
<glyph unicode="[" d="M109 344q0 47 9 116.5t25.5 144.5t38 146.5t45.5 127.5q-14 4 -24 7t-10 21q0 35 20 47.5t55 26.5q6 4 21.5 19.5t44.5 15.5q8 0 16 -3t15 -3q10 0 31.5 6t45 13t45 13.5t31.5 6.5q16 0 24.5 -11.5t8.5 -23.5q0 -14 -24.5 -26.5t-59.5 -25t-76 -28.5t-72 -39 q-23 -37 -46 -110.5t-41.5 -156.5t-30 -162t-11.5 -124q0 -115 7.5 -176.5t35.5 -61.5q14 0 40 3.5t56.5 9.5t61.5 14t53 21q18 -2 22.5 -12.5t4.5 -14.5q0 -14 -29.5 -32.5t-70.5 -34t-84 -27t-70 -11.5q-16 0 -39.5 2.5t-32.5 16.5q-18 37 -27 108.5t-9 196.5z" />
<glyph unicode="\" horiz-adv-x="628" d="M57 952v13q1 20 13 24q8 4 15 7t11 3q8 0 21.5 -18t30 -51t35 -77t34.5 -93q27 -82 59.5 -177.5t66.5 -191.5t65.5 -184t58.5 -156q57 -145 57 -149t-7 -25.5t-13 -21.5q-4 0 -21 22q-78 102 -136 239.5t-107.5 283t-92.5 288.5t-88 260q-2 0 -2 4z" />
<glyph unicode="]" horiz-adv-x="1122" d="M248 866q0 25 40 52.5t91 51t99 39t63 15.5q23 0 30 -5t7 -15t-3.5 -26.5t-3.5 -33.5q0 -4 2 -26.5t5.5 -52t6.5 -61.5t7 -52l98 -609q23 4 51.5 12.5t40.5 8.5q15 0 15 -25q0 -16 -14.5 -30.5t-32 -26.5t-31.5 -22.5t-14 -18.5q0 -10 2 -20.5t2 -20.5q0 -35 -23 -35 q-18 0 -24.5 8.5t-9.5 20.5t-5 23.5t-10 17.5q-8 0 -37 -10.5t-66.5 -22.5t-81.5 -22.5t-83 -10.5q-51 0 -52 31q0 23 15.5 35t34.5 18q2 0 40.5 9.5t86 21.5t86 25.5t38.5 21.5q0 10 -6 32.5t-13 46t-13 43t-6 26.5q-14 68 -28.5 149.5t-26 166.5t-20.5 167t-16 149 q-4 6 -14 7q-10 0 -29.5 -7.5t-45 -19.5t-52 -26.5t-47.5 -26.5q-8 -4 -14 -4q-12 0 -25.5 11t-13.5 21z" />
<glyph unicode="^" horiz-adv-x="1179" d="M213 184q0 16 13.5 58.5t31.5 92.5t37.5 98t32.5 79q12 33 28.5 82t34 103.5t31.5 106.5t24 93q12 59 19.5 73.5t30.5 14.5q20 0 32.5 -14.5t29.5 -42t45 -69.5t81 -97q14 -18 65.5 -56t107.5 -78t100 -78t44 -56q0 -10 -8 -24.5t-22 -14.5q-18 0 -51 20.5t-75 53 t-90 73.5t-92.5 82t-84 78t-64.5 63q-31 -123 -77 -247.5t-93 -241.5l-65 -168q-8 -4 -14.5 -8t-14.5 -4q-10 0 -23.5 8t-13.5 20z" />
<glyph unicode="_" horiz-adv-x="653" d="M-39 -104q0 18 11.5 27t27.5 13.5t33.5 5.5t32.5 1q33 0 87 -2t107 -5.5t97 -5.5t59 -2q29 0 61.5 2t65 5.5t61.5 6.5t49 3q23 0 32 -13.5t9 -23.5t-9 -24.5t-21 -16.5q-6 -2 -69 -8t-159 -6q-14 0 -59 2t-98.5 5t-105.5 6t-79 3q-10 0 -44 -2t-50 -2q-39 0 -39 31z" />
<glyph unicode="`" horiz-adv-x="550" d="M115 1116q0 2 1 3t1 3q6 6 14 6q10 0 25.5 -7t29.5 -17t43 -40t57.5 -63.5t53.5 -62.5t33 -35q2 -2 10 -4t18.5 -5t18.5 -7t8 -10q0 -16 -21.5 -39t-35.5 -23q-12 0 -39 14q-29 14 -66 54.5t-70.5 85.5t-57 87t-23.5 60z" />
<glyph unicode="a" horiz-adv-x="997" d="M113 305q0 25 14 93.5t43 142t73 131t103 57.5q23 0 30 -19.5t7 -37.5v-62q10 -8 21.5 -11t20.5 -8t14 -15.5t5 -32.5q0 -14 -2 -25.5t-2 -21.5q0 -53 8.5 -104.5t33 -91.5t67.5 -65.5t115 -25.5q90 0 152.5 38t104.5 84t66.5 84t40.5 38q27 0 27 -27q0 -37 -34 -91 t-91.5 -105.5t-133 -87.5t-157.5 -36q-37 0 -78 12.5t-80 36t-69.5 57.5t-44.5 77q-12 -12 -30 -41t-38 -58.5t-45 -51t-51 -21.5q-27 0 -44.5 27.5t-27.5 61.5t-14 64.5t-4 34.5zM215 334q0 -14 8 -47t19 -43q35 72 64.5 139t29.5 133q0 8 -4 15.5t-4 13.5q0 8 4 14t4 16 q0 6 -4 9.5t-4 7.5q-18 -4 -38 -35t-37 -72t-27.5 -83t-10.5 -68z" />
<glyph unicode="b" horiz-adv-x="677" d="M-113 1440q0 18 15.5 28.5t27.5 10.5q18 0 26.5 -7.5t11.5 -30t6 -65.5t12 -114q4 -35 15 -96.5t29.5 -137.5t40 -159t45 -158.5t47 -139t44.5 -100.5q18 74 45 133q23 49 55.5 91t79.5 42q18 0 49 -16t60.5 -55t51 -102.5t21.5 -155.5t-21.5 -162t-52 -116t-62.5 -68.5 t-52 -22.5q-29 0 -55.5 25.5t-26.5 48.5q0 33 27 32q10 0 20 -7t19 -11q35 29 66.5 94.5t31.5 186.5q0 49 -10.5 88t-23.5 65.5t-27.5 40.5t-20.5 14q-20 0 -39.5 -40.5t-34 -93t-24 -102.5t-9.5 -69q2 -12 5 -22q2 -10 4 -20.5t2 -20.5q0 -39 -27 -70t-51 -31 q-12 0 -19.5 17.5t-11.5 44.5t-7 55.5t-7 50.5q-16 37 -43 117t-56.5 171t-55 177t-38.5 138q-29 111 -44 193.5t-24.5 145t-11.5 107.5t-2 76z" />
<glyph unicode="c" horiz-adv-x="753" d="M92 297q0 98 33 178t65 127q14 23 38 46.5t46.5 43t42 31.5t27.5 12q18 0 33.5 -10t15.5 -20q0 -16 -9 -27.5t-25.5 -25t-39 -35t-47.5 -56.5q-49 -68 -72.5 -138.5t-23.5 -123.5t40 -85t83 -32q78 0 138.5 35t103.5 78t69.5 78t38.5 35q23 0 23 -35q0 -20 -6.5 -42 t-12.5 -36q-4 -6 -37.5 -42t-84 -75t-113 -70.5t-119.5 -31.5q-35 0 -70.5 12t-66.5 40t-50.5 69t-19.5 100z" />
<glyph unicode="d" horiz-adv-x="737" d="M86 428q0 49 11.5 93t32 78t51 54.5t71.5 20.5q39 0 78 -24.5t69.5 -53.5t50.5 -52l19 -24q-29 160 -51 289q-10 55 -19.5 109.5t-17.5 97.5t-13.5 72.5t-5.5 35.5q-2 12 -4 44t-4 67t-4 63.5t-4 36.5q-6 20 -15 51t-9 35q0 10 10 25.5t26 15.5q12 0 22.5 -2t19 -12 t15.5 -31.5t13 -60.5q2 -20 12.5 -77.5t20.5 -125.5t20.5 -129t14.5 -90q10 -78 27.5 -169t36 -175t36.5 -148.5t33 -87.5q4 -8 16.5 -11t16.5 -13q0 -10 -9.5 -19.5t-11.5 -19.5q0 -23 9 -43.5t9 -48.5q0 -27 -16 -27q-20 0 -29.5 -5t-31.5 -9q-12 0 -27 22q-8 10 -14 25 q0 2 -11.5 -8.5t-37 -23.5t-69.5 -24.5t-112 -11.5q-57 0 -100 25.5t-70.5 66.5t-41 93.5t-13.5 105.5zM182 406q0 -78 46 -125.5t104 -47.5q49 0 102 16.5t76 39.5q-2 6 -25.5 52t-59.5 100.5t-80 97.5t-85 43q-35 0 -56.5 -53.5t-21.5 -122.5z" />
<glyph unicode="e" horiz-adv-x="714" d="M98 391q0 80 20.5 149.5t52.5 123t71 84t75 30.5q33 0 67 -13t61.5 -33.5t44 -46.5t16.5 -52q0 -31 -27.5 -63.5t-66.5 -60.5t-78 -45.5t-62 -17.5q-12 0 -21 11.5t-9 27.5q0 29 25.5 45.5t56 29.5t56.5 31.5t26 51.5q0 4 -10.5 20.5t-55.5 16.5q-20 0 -47 -23.5 t-51.5 -63.5t-41 -94.5t-16.5 -117.5q0 -53 19.5 -96t50.5 -73t72 -46t84 -16q31 0 66.5 13t67 28.5t55.5 28.5t30 13t13 -6t9 -12q2 -4 2 -12q0 -12 -18 -37q-6 -8 -26.5 -26.5t-55.5 -37t-85 -33t-118 -14.5q-47 0 -92 21.5t-80 63.5t-57.5 104.5t-22.5 146.5z" />
<glyph unicode="f" horiz-adv-x="800" d="M47 625q0 23 13.5 36t25.5 19q18 10 57 22.5t78 20.5q14 4 26.5 7t12.5 13q-6 20 -17.5 54t-22.5 81.5t-19 105.5t-8 126q0 74 17 156t55 150.5t95.5 112.5t137.5 44q37 0 82 -7t82.5 -20.5t63.5 -33t26 -44.5q2 -4 2 -14v-22q0 -14 -11 -15q-4 0 -10 2t-10 4 q-37 16 -89 42t-118 26q-74 0 -119 -55.5t-68.5 -128t-30.5 -142t-7 -100.5q0 -23 7 -71t19.5 -99t28.5 -93t33 -52q12 0 44 2t52 2q35 0 65.5 -6.5t63.5 -6.5h24.5t34 -2t30 -7t12.5 -13q0 -10 -14.5 -18.5t-33 -13.5t-37 -7t-28.5 -2t-26.5 1t-36 3t-37 3t-29.5 1 q-33 0 -40 -7t-7 -28q0 -31 27.5 -83t60.5 -111.5t60.5 -123t27.5 -116.5q0 -10 -5 -37.5t-14.5 -56.5t-26 -51.5t-36.5 -22.5q-16 0 -29.5 9.5t-13.5 31.5q0 33 17.5 61.5t17.5 61.5q0 16 -15.5 55t-38 87t-49 101.5t-50 97.5t-40 72.5t-18.5 30.5q-41 -14 -84 -28.5 t-78 -42.5q-14 -14 -27 -15q-20 0 -37.5 16.5t-17.5 37.5z" />
<glyph unicode="g" horiz-adv-x="677" d="M70 395q0 47 14 118t45 136.5t77 111.5t107 46q35 0 65 -12.5t30 -30.5q0 -16 -6.5 -26.5t-16.5 -20.5q-6 4 -13 8t-20 4q-45 0 -80.5 -40t-60.5 -98.5t-38 -121.5t-13 -111q0 -104 34.5 -158.5t73.5 -54.5q18 0 40 28t41.5 61.5t33.5 64.5t16 37q4 20 4 47q0 23 -1 50.5 t-1 55.5q0 53 8.5 89t41.5 36t47 -19.5t14 -45.5q0 -18 -1 -44t-1 -49.5t-1 -41t-1 -21.5q0 -12 3 -35.5l6 -47t6 -43t5 -25.5t6.5 -18.5t8.5 -18.5q2 4 8 9t10 9q10 -6 19.5 -23.5t9.5 -19.5q0 -23 -16.5 -31t-16.5 -22q-2 2 8 -22.5t19 -51.5q14 -55 25.5 -96t18.5 -76 t11 -69.5t4 -77.5t-14.5 -88t-41 -80t-65.5 -57.5t-88 -22.5q-76 0 -120 30.5t-66.5 69.5t-28.5 77t-6 50q0 76 39 152t86 137t86 102t39 48l-23 67q-20 -25 -35.5 -54.5t-33 -55t-41 -43t-58.5 -17.5q-37 0 -73.5 22.5t-65.5 67.5t-46 108.5t-17 147.5zM301 -279 q0 -63 36 -104t79 -41q47 0 89 35t42 100q0 43 -2 72t-5 50.5t-8.5 40.5t-11.5 46q-8 33 -18 65.5t-21 67.5q-35 -43 -66.5 -83t-57 -78.5t-41 -80.5t-15.5 -90z" />
<glyph unicode="h" horiz-adv-x="786" d="M96 1264q0 4 2 26.5t6.5 49t13.5 47t21 20.5q14 0 26.5 -17.5t22 -40t13.5 -43t4 -28.5q0 -31 -4 -57.5t-4 -49.5q0 -31 5 -77.5t13 -96t14.5 -95.5t10.5 -75q0 -2 4 -28.5t9 -66.5t10 -86t11.5 -90t11.5 -78t7 -48q0 -6 3 -17.5t6 -25.5t7 -26.5t10 -18.5q12 25 32 76 t41.5 104t41 93t33.5 40q16 0 26.5 -6t26.5 -10q20 -8 20.5 -21.5t4.5 -31.5q4 -25 13 -65t21.5 -77.5t29 -64.5t32.5 -27q8 0 22.5 21.5t38.5 23.5q4 0 14.5 -5t20.5 -13q10 -10 11 -12q0 -4 -11.5 -24.5t-30 -43.5t-40 -40t-41.5 -17q-43 0 -70 17t-44 44t-26.5 58.5 t-15.5 60.5q-4 14 -8 14q-6 0 -24.5 -44t-40 -96t-41 -96t-25.5 -44q-37 0 -62.5 31.5t-41 73.5t-23.5 86t-10 69q-6 55 -27 184t-35 313q-4 39 -9 71t-11.5 71t-10.5 88t-4 121z" />
<glyph unicode="i" horiz-adv-x="317" d="M0 922q0 29 20.5 54t53.5 25q6 0 27.5 -5t44 -13t40 -18.5t17.5 -22.5q0 -4 -14.5 -16.5t-34 -25.5t-40 -23.5t-32.5 -10.5q-8 0 -21.5 1t-27 7.5t-23.5 17.5t-10 30zM61 514q0 29 11.5 53.5t27.5 24.5q18 0 39 -28.5t40 -73t35.5 -96.5t29 -98t19.5 -80t7 -40 q0 -14 -21.5 -24.5t-31.5 -10.5q-20 0 -36.5 27t-29 61.5t-20.5 66.5t-12 44q-6 20 -16.5 49t-19.5 55.5t-15.5 47t-6.5 22.5z" />
<glyph unicode="j" horiz-adv-x="317" d="M-176 -41q0 8 4 15.5t14 7.5q14 0 36 -32t58.5 -71t94 -70.5t147.5 -31.5q29 0 40 6t11 41q0 33 -9 71.5t-21.5 76.5t-23.5 73t-17 59q-2 6 -13.5 52.5t-23.5 107t-22.5 117.5t-10.5 84q0 14 4 38.5t27 24.5q10 0 22.5 -25.5t25.5 -63.5t24.5 -83t20.5 -85t15 -68.5 t9 -34.5q4 -16 20 -59t33.5 -97.5t32 -110t14.5 -94.5q0 -29 -16.5 -52t-39 -39.5t-47 -25.5t-40.5 -9q-49 0 -114 15t-121 49t-95 86t-39 128zM-2 911q0 10 3 24.5t10 28t19.5 22.5t30.5 9q12 0 33 -5t40.5 -14t33.5 -20.5t14 -21.5q0 -4 -11 -16.5t-26.5 -25.5t-31 -23.5 t-23.5 -10.5q-33 0 -62.5 14.5t-29.5 38.5z" />
<glyph unicode="k" horiz-adv-x="815" d="M4 936q0 12 1 32.5t6 40t14.5 33t25.5 13.5q10 0 21.5 -32t20.5 -70t16.5 -71.5t7.5 -35.5q8 -45 19 -99.5t23.5 -109.5t27 -105.5t30.5 -85.5q2 20 14.5 59.5t33 84.5t46 93t53 87t55 63.5t52.5 24.5q39 0 54.5 -10t15.5 -25q0 -12 -35 -48t-78 -94t-78 -137t-35 -175 q0 -35 19.5 -60.5t51.5 -42t72 -26t79 -9.5q35 0 75.5 2.5t76.5 5.5t61.5 5t31.5 2q10 0 18.5 -6.5t8.5 -20.5q0 -16 -4 -23.5t-21 -11.5q-18 -6 -45.5 -13t-60.5 -14t-66.5 -12.5t-62.5 -5.5q-35 0 -77 4t-81 13.5t-70.5 20.5t-46.5 28q10 -43 18.5 -86t12.5 -86 q0 -10 -5 -17.5t-28 -7.5q-10 0 -19 5t-15 22q-18 41 -30.5 76.5t-22 72.5t-19.5 78t-25 90q-23 80 -47 171t-44.5 174t-33 147.5t-12.5 91.5z" />
<glyph unicode="l" horiz-adv-x="432" d="M70 1149q0 18 6 47t28 29q29 0 44.5 -39t24.5 -96.5t13 -120t11 -109.5q8 -66 15 -119t14 -105t18.5 -109.5t27.5 -127.5l82 -340q0 -16 -12 -24t-29 -8q-18 0 -37.5 34.5t-38 88t-35 116t-28.5 116.5t-19.5 91t-7.5 41q0 8 -7 43t-18 108.5t-24.5 191.5t-27.5 292z" />
<glyph unicode="m" horiz-adv-x="1073" d="M72 614q0 27 2 50q2 18 3 34.5t1 18.5q0 6 -3 8t-3 10q0 6 15 19.5t32 13.5q29 0 38 -12.5t9 -28.5q0 -6 -1 -18.5t-1 -55.5q0 -29 10 -86t24.5 -116.5t30 -109.5t25.5 -62q4 8 5 19t3 17l23 168q8 63 33.5 134t54.5 110q10 16 22 16t23 -18q35 -57 52 -113.5t30.5 -111 t31 -108.5t54.5 -109q16 27 40.5 87t50 121.5t48.5 107.5t35 46q6 0 20.5 -2t20.5 -2q18 0 30.5 -42t21.5 -98.5t18.5 -112.5t21.5 -85q8 -20 24.5 -38.5t32.5 -35.5q21 -18 41 -36q0 -16 -10 -28.5t-24.5 -20t-30 -11.5t-25.5 -4q-43 0 -73.5 46t-51 102.5t-30 105.5 t-9.5 53q-12 -23 -25.5 -76t-31.5 -107t-46 -96t-71 -42q-20 0 -38.5 24.5t-35 63.5t-32 88t-30.5 96t-29.5 89t-28.5 67q-12 -31 -21.5 -84t-15.5 -111.5t-10.5 -116t-4.5 -100.5q0 -29 -15 -41t-32 -12q-23 0 -45 29.5t-44.5 76.5t-42 106.5t-35 119t-23.5 114t-8 90.5z " />
<glyph unicode="n" horiz-adv-x="720" d="M96 592q0 20 2 54t13 59q2 4 15 16t30 12q14 0 16 -18.5t2 -40.5v-324q0 -10 3 -28.5t9 -26.5q23 49 42.5 115.5t38 127t37 102.5t36.5 42q20 0 32.5 -8t20.5 -33q10 -59 16.5 -105.5t15.5 -83t26.5 -68.5t48.5 -58q29 -27 64.5 -39.5t62.5 -12.5q12 0 26.5 5.5t20.5 5.5 q8 0 15 -14.5t7 -18.5q0 -12 -8 -24.5t-19.5 -22.5t-24.5 -17.5t-23 -7.5q-35 0 -89.5 15.5t-87.5 48.5q-35 35 -61.5 83t-58.5 142q-23 -90 -52.5 -178t-95.5 -162q-4 -4 -12 -4q-14 0 -30.5 14.5t-16.5 28.5t-3 66.5t-7.5 117t-7.5 131t-3 109.5z" />
<glyph unicode="o" horiz-adv-x="573" d="M127 481q0 37 11.5 83t30.5 85t44 65.5t51 26.5q6 0 19.5 -4t28 -12t25.5 -20.5t15 -28.5q23 -2 45.5 -16.5t24.5 -22.5q16 -53 21.5 -106.5t5.5 -88.5q0 -45 -12.5 -86t-33 -71.5t-48 -48t-60.5 -17.5q-57 0 -90 33t-50.5 76t-22.5 87t-5 66zM221 473q0 -23 2 -50.5 t9.5 -52t19.5 -42t33 -17.5q20 0 34.5 21.5t22.5 50.5t11 56.5t3 39.5q0 31 -6 65t-24 68q-4 -2 -11 -2q-8 0 -13 2t-9 2q-25 0 -39 -13t-21.5 -34.5t-9.5 -46t-2 -47.5z" />
<glyph unicode="p" horiz-adv-x="772" d="M-66 539q0 43 51.5 80.5t128 67.5t169 47.5t174.5 17.5q80 0 134 -18.5t87 -44t47 -52.5t14 -45q0 -53 -29.5 -102.5t-72.5 -91.5t-94 -77.5t-94 -62.5q-41 -29 -68 -47t-27 -29q0 -27 6.5 -75t15.5 -104t18 -115.5t14 -108.5q0 -2 3 -18.5t8 -37t8 -38t3 -21.5 q0 -14 -1 -31.5t-6 -33t-15.5 -25.5t-26.5 -10q-23 0 -33 19.5t-10 37.5q0 4 1 8t1 11q0 23 -16.5 121t-37 234t-37 292.5t-16.5 296.5q0 10 2.5 23.5t2.5 23.5q-20 -2 -60.5 -18.5t-79.5 -40t-68.5 -49t-29.5 -46.5h-14q-6 0 -15.5 8.5t-16.5 18.5t-13.5 20.5t-6.5 14.5z M330 479q0 -49 3 -95t7 -77q29 18 79 50t99 72t85 84t36 85q0 20 -51 42t-121 22q-61 0 -90 -4.5t-39 -8.5q-4 -33 -6 -78t-2 -92z" />
<glyph unicode="q" horiz-adv-x="604" d="M70 362q0 45 19.5 102.5t54 108t82.5 85t108 34.5q23 0 41 -12t33.5 -29.5t26.5 -36t20 -28.5q23 -27 35 -46.5t12 -47.5q0 -6 -6.5 -37t-6.5 -52q0 -84 5.5 -171t13.5 -161.5t16 -130t13 -75.5q4 -16 16 -21t12 -34q0 -6 -2 -20.5t-7 -28t-15.5 -24.5t-26.5 -11 q-47 0 -61.5 28.5t-14.5 63.5q0 8 -4 26.5t-8 41l-8 45t-4 38.5q0 31 -3 70t-8.5 79t-10.5 76.5t-9 65.5l-6 6q-23 -14 -40.5 -34.5t-34.5 -39t-36.5 -30.5t-46.5 -12q-37 0 -65.5 25.5t-47 60t-27.5 70.5t-9 56zM164 346q0 -4 3 -18.5t8 -30.5t13.5 -28.5t18.5 -12.5 q25 0 55.5 34t58 77t47 82t19.5 49q-2 20 -15.5 51t-54.5 31q-35 0 -63.5 -30t-49 -70t-30.5 -77.5t-10 -56.5z" />
<glyph unicode="r" horiz-adv-x="647" d="M125 508q0 35 6 66.5t16.5 55t22.5 38t25 14.5q10 0 16 -7t10 -16.5t9.5 -16.5t13.5 -7q18 0 59 18.5t100 18.5q55 0 83 -3t55 -14q6 -2 15 -9t9 -21t-12 -23.5t-28.5 -15.5t-33 -9.5t-26.5 -3.5q-31 0 -41 4.5t-16 4.5q-51 0 -82 -8.5t-48.5 -27t-22.5 -46t-5 -66.5 q0 -66 5 -104.5t10 -63t10.5 -38t5.5 -25.5q0 -16 -17.5 -34.5t-32.5 -18.5q-25 0 -44 44t-32.5 104t-21.5 119.5t-8 90.5z" />
<glyph unicode="s" horiz-adv-x="636" d="M98 182q0 12 2 21.5t17 9.5q6 0 20.5 -3t22.5 -3t52 3t94 11t90 23.5t40 40.5q0 4 -42 25.5t-126 72.5q-66 41 -92 83t-26 114q0 45 19 73.5t53 45t78 23.5t93 7q4 0 25.5 -4t46 -13.5t44 -22.5t19.5 -30q0 -4 -7 -12t-23 -31q-6 2 -21.5 6.5t-35 9.5t-40 8t-32.5 3 q-53 0 -86 -19.5t-33 -74.5q0 -27 21.5 -49.5t54 -42t70.5 -39t71 -42t54.5 -48t21.5 -58.5q0 -35 -23.5 -60.5t-59.5 -42.5t-79 -27.5t-82 -15.5t-68.5 -6t-37.5 -1q-45 0 -70 14t-25 51z" />
<glyph unicode="t" horiz-adv-x="653" d="M-229 537q0 12 33.5 35.5t84 52t108.5 59.5t108.5 55.5t84.5 40.5l33 17q-18 94 -30 168q-10 63 -19.5 116.5t-9.5 57.5q0 27 11 40t26 13q23 0 28 -31q23 -111 42.5 -196.5t37.5 -139.5q18 4 63.5 23.5t94.5 42t89 40t46 17.5q12 0 15.5 -8t7.5 -14q-27 -31 -76 -60.5 t-98.5 -54.5t-86 -42t-36.5 -24q0 -6 8 -36.5t19.5 -72.5t23.5 -87t20 -80q4 -20 10.5 -53t11.5 -66t9 -58.5t4 -27.5q0 -31 -10 -63.5t-33 -32.5q-12 0 -22.5 10t-18.5 23.5t-12 26t-4 18.5q0 4 1 12t1 18q0 39 -12 113q-4 23 -16.5 70t-24.5 96q-14 57 -33 125 q-8 29 -10 29q-14 0 -48 -17.5t-77 -43t-90.5 -55.5t-88 -55.5t-70.5 -43t-36 -17.5q-27 0 -43 18.5t-16 41.5z" />
<glyph unicode="u" d="M90 604q0 14 15.5 23.5t23.5 9.5q29 0 39 -19.5t10 -42.5q0 -18 11.5 -65t27.5 -96t34.5 -87t33.5 -38q27 0 46 33.5t31.5 77.5t18.5 84t6 53q0 2 1 13t3 23.5t3 22.5t1 14q0 14 -6 19.5t-6 21.5q0 12 12.5 23.5t53.5 11.5q16 0 25 -9t13.5 -21.5t5.5 -23.5t1 -16 q0 -2 -2.5 -28.5t-3.5 -58t-3 -60.5t-2 -35t6.5 -24.5t15.5 -38t21.5 -34.5t26.5 -15q25 0 46.5 7t40.5 16t35.5 16.5t31.5 7.5q18 0 33.5 -8.5t15.5 -20.5q0 -18 -24.5 -38.5t-57.5 -38t-67 -30t-50 -12.5q-18 0 -39.5 10.5t-41 24.5t-34 26.5t-18.5 16.5 q-6 -6 -18.5 -24.5t-30 -40t-37 -38t-39.5 -16.5q-53 0 -92 57.5t-64.5 131t-39 142.5t-13.5 93z" />
<glyph unicode="v" horiz-adv-x="577" d="M90 604q0 8 11.5 15.5t17.5 7.5q31 0 48 -35t34.5 -84t41 -103.5t70.5 -93.5q6 8 10.5 31t6.5 39q2 14 6 56t9 89t8 90t3 60q0 12 2 28.5t9.5 31t19.5 24.5t33 10q10 0 34.5 -13t24.5 -36q0 -6 -10 -53t-20 -107q-6 -35 -19.5 -103.5t-13.5 -207.5q0 -4 -1 -21.5 t-6.5 -36t-15.5 -34t-31 -15.5q-18 0 -40 17q-51 37 -94.5 86t-74 107.5t-47 122t-16.5 128.5z" />
<glyph unicode="w" horiz-adv-x="792" d="M82 600q0 8 8 20.5t23 12.5q29 0 41 -19q2 -2 13 -36.5t31.5 -81.5t48 -97.5t62.5 -85.5q14 27 23.5 60t15.5 63.5t8 56t2 42.5q-4 16 -6 32q-2 14 -3 28.5t-1 25.5q0 51 41 51q31 0 47.5 -19.5t24.5 -45t11 -50.5t7 -35q16 -47 29.5 -88t46.5 -84q8 6 13 21.5t7.5 32 t2.5 29.5v20v407q0 12 10 22.5t24.5 18.5t27.5 13.5t19 5.5q10 0 19.5 -6.5t21.5 -12.5q8 -2 9 -12q0 -14 -14.5 -29.5t-14.5 -34.5q0 -4 -1 -30.5t-1 -59.5t-1 -61.5t-1 -32.5v-203q0 -2 -2 -28.5t-7 -63.5t-10.5 -77t-11.5 -68q-2 -8 -11 -12.5t-20.5 -7.5t-21.5 -4 t-12 -1q-23 0 -48.5 26.5t-48 59.5t-39 61.5t-18.5 32.5q-8 -29 -18.5 -58.5t-22.5 -54t-27.5 -41t-33.5 -16.5q-25 0 -51.5 25t-54.5 63.5t-52.5 87t-43 93.5t-29.5 84t-11 61z" />
<glyph unicode="x" horiz-adv-x="751" d="M86 725q0 14 12.5 28.5t22.5 14.5q12 0 33.5 -9t25.5 -26q20 -68 53 -144.5t99 -148.5q6 23 14 62t18.5 84t21.5 90t22.5 82t21.5 59.5t21 22.5q10 0 31.5 -7.5t21.5 -29.5l-6 -34t-16.5 -81t-23 -101.5t-24.5 -97.5q-2 -6 -7 -22t-10 -34.5t-9.5 -34t-4.5 -19.5 q0 -18 30 -44t67 -49.5t70.5 -40t41.5 -16.5q6 0 16.5 2t16.5 2q16 0 25.5 -18.5t9.5 -24.5q0 -39 -23.5 -53t-50.5 -14q-47 0 -106.5 42t-124.5 95q-2 -4 -11.5 -44t-24.5 -87t-37.5 -86t-51.5 -39q-20 0 -32.5 15.5t-12.5 21.5q0 14 14 54t30.5 86t31 87t14.5 60 q0 8 -33 51t-71.5 101.5t-71.5 124t-33 120.5z" />
<glyph unicode="y" horiz-adv-x="577" d="M35 494q0 10 10 21t23 11q8 0 16 -8q47 -41 108.5 -91t120.5 -91q4 37 17.5 112.5t28 162.5t27.5 169t20 131q0 8 4 26.5t12 37t18.5 32t22.5 13.5q6 0 26.5 -11.5t20.5 -50.5q-27 -141 -49 -272q-10 -55 -20.5 -115.5t-19.5 -119t-16.5 -110.5t-11.5 -95 q-8 -66 -12 -150t-8 -159q-4 -88 -4 -179q0 -18 -4.5 -40.5t-4.5 -45.5q0 -20 -9 -34.5t-27 -14.5q-16 0 -25.5 25.5t-16 59.5t-8.5 68t-2 48v39.5t3.5 70t9.5 121t18 195.5q0 2 -27.5 20.5t-67.5 46t-82 60.5t-71 63q-4 4 -12 18.5t-8 35.5z" />
<glyph unicode="z" horiz-adv-x="829" d="M63 635q0 6 3.5 12t13.5 6q27 6 81 20.5t115.5 30t118 26.5t86.5 11q23 0 48.5 -17t39.5 -44l-305 -391l-12 -25q0 -8 6 -8q16 0 46 14.5t82 41t135 63.5t206 80q20 6 39 6q31 0 48 -14.5t17 -26.5q0 -16 -3 -32.5t-13 -20.5q-41 -18 -106.5 -31.5t-120.5 -36.5 q-35 -14 -86 -38.5t-106.5 -49.5t-106.5 -42t-84 -17q-27 0 -51.5 20.5t-24.5 42.5q0 41 38 99.5t88 120t98 117.5t69 91q-2 0 -6 3t-13 3q-63 -20 -118 -37q-47 -14 -97.5 -25.5t-81.5 -11.5q-20 0 -31.5 18.5t-11.5 41.5z" />
<glyph unicode="{" horiz-adv-x="866" d="M186 500q0 33 36 66.5t79 61t81 45t44 19.5q10 4 21.5 14.5t11.5 16.5q0 2 -39 12t-86 35t-86 70t-39 121q0 47 23.5 98t66.5 94t105.5 71.5t142.5 28.5q27 0 57.5 -5t56 -15t42 -26.5t16.5 -41.5q0 -12 -7 -18t-18 -17q-25 23 -56.5 35.5t-80.5 12.5q-66 0 -113 -26 t-76.5 -62.5t-44 -77.5t-14.5 -72q0 -33 19.5 -54.5t49.5 -35.5t64.5 -24.5t64.5 -22.5t49 -28.5t19 -41.5q0 -29 -32.5 -56.5t-75.5 -53t-84 -48t-59 -40.5q35 4 76.5 14t80.5 21.5t70 20.5t45 9q29 0 38 -10t9 -37q0 -10 -21.5 -51t-49 -90.5t-55.5 -96.5t-38 -67 q-12 -23 -34.5 -64t-46 -83t-40 -73.5t-16.5 -37.5q0 -14 6 -18.5t12 -4.5q14 0 62.5 16.5t103 35t102.5 35t60 16.5q4 0 13.5 -12.5t9.5 -22.5t-48.5 -36t-116 -53.5t-138 -49t-115.5 -21.5q-27 0 -47.5 16.5t-20.5 45.5t18.5 74.5t47 100t63.5 113t67 109.5t56.5 91 t34.5 58q-49 -16 -104.5 -26.5t-139.5 -10.5q-31 0 -56.5 9.5t-25.5 44.5z" />
<glyph unicode="|" horiz-adv-x="829" d="M344 1257v381q0 20 10.5 46t32.5 26q29 -4 37 -47t8 -102v-36t-1 -72t-1 -140v-244q0 -43 4 -143.5t10.5 -230.5t14.5 -274.5t16 -274.5t16.5 -234.5t14.5 -151.5l49 -346q-2 -29 -45 -28q-18 0 -33.5 36.5t-29 91t-23.5 119t-17.5 121t-10.5 94t-3 41.5q0 12 -4 87 t-9 189t-11.5 256t-11.5 289.5t-9 290t-4 256.5z" />
<glyph unicode="}" horiz-adv-x="944" d="M104 1071q0 8 45.5 50t106.5 90.5t125.5 87t105.5 38.5q29 0 47.5 -19.5t18.5 -62.5q0 -35 -9 -86t-23.5 -107t-31 -114.5t-32 -110t-27.5 -90t-16 -57.5q23 8 52.5 26.5t63 36t72.5 31t80 13.5q16 0 32.5 -8.5t16.5 -28.5q0 -39 -31.5 -82t-70.5 -82t-71 -71.5 t-32 -49.5q0 -2 22.5 -1t57.5 -3t75 -14.5t75 -34t57.5 -65.5t22.5 -105q0 -49 -20.5 -105.5t-63.5 -105.5t-107.5 -82t-152.5 -33q-35 0 -69 12.5t-34 47.5q0 8 5 14t12 18q37 -20 79 -20q70 0 118 26.5t77 65.5t41 83t12 77q0 51 -23.5 76.5t-58.5 37t-77 13.5t-76.5 6 t-58 16.5t-23.5 44.5q0 29 25.5 63t59.5 66.5t64.5 63.5t42.5 53q-45 -18 -88 -42.5t-78.5 -46t-62.5 -36t-39 -14.5t-23.5 10t-11.5 33q0 14 10.5 60t23.5 99.5t26.5 101.5t17.5 71q6 25 16.5 67.5t21.5 87.5t19.5 81t8.5 46q0 12 -7.5 16.5t-11.5 4.5q-6 0 -48 -27.5 t-91 -61.5t-95 -62.5t-61 -33.5q-4 -2 -15 7.5t-16 19.5z" />
<glyph unicode="~" horiz-adv-x="1150" d="M98 385q0 25 40 70t93.5 90t104.5 78.5t74 33.5q35 0 81 -55t98 -121.5t108.5 -122t113.5 -55.5q39 0 67.5 15.5t48 40t29 53t9.5 55.5q0 6 -2 14t-2 15q8 4 30.5 12t24.5 8q18 0 29.5 -12.5t11.5 -22.5q0 -37 -14.5 -82t-44 -82.5t-74.5 -63.5t-107 -26q-49 0 -97 26 t-93 62.5t-84 81.5t-70 82t-50.5 62.5t-25.5 25.5q-18 0 -57 -29.5t-79 -64.5t-69.5 -65.5t-31.5 -30.5q-23 -18 -41 -19q-10 0 -15.5 8.5t-5.5 18.5z" />
<glyph unicode="&#xa1;" horiz-adv-x="534" d="M104 1016q0 23 13.5 46t34.5 23q27 0 50 -26.5t23 -61.5q0 -12 -5 -31.5t-25 -19.5q-8 0 -22.5 2t-30 9.5t-27 21.5t-11.5 37zM195 686v26.5t3 32t9 26.5t16 11q16 0 30.5 -38.5t27 -96t20.5 -120t14 -109.5q16 -131 36 -243.5t36 -180.5q0 -16 -12.5 -24.5t-28.5 -8.5 q-29 0 -48 34t-31.5 75t-17.5 77.5t-5 40.5t-4 38t-9.5 83t-11.5 107.5t-11 113t-9 96.5t-4 60z" />
<glyph unicode="&#xa2;" horiz-adv-x="753" d="M178 -193q0 33 13.5 73t33 85t41 93t35.5 98q6 23 18.5 49t34.5 26q18 0 25.5 -13t7.5 -34q0 -14 -2 -31.5t-6 -35.5q-6 -37 -25.5 -92.5t-40.5 -108.5q-25 -61 -53 -129q-4 -8 -17.5 -14t-29.5 -6q-23 0 -29 12t-6 28zM195 461q0 29 7 57.5t25 59.5q45 80 101.5 130 t114 78.5t109.5 40t89 11.5q27 0 40 -16.5t13 -30.5q0 -16 -14 -23.5t-38 -12.5t-56.5 -12.5t-69.5 -23.5q-100 -47 -164.5 -113.5t-64.5 -120.5q0 -43 22.5 -70.5t55 -45t70.5 -24.5t67 -7q45 0 86 9t74.5 20.5t58 20.5t37.5 9q10 0 14 -7t4 -13q0 -11 -8 -21 q-10 -18 -26.5 -33.5t-26.5 -25.5q-4 -4 -28.5 -11t-60.5 -16.5t-81 -15.5t-90 -6q-49 0 -96.5 12t-83 38t-58 65.5t-22.5 97.5zM573 922q0 18 5 34q2 14 22.5 58.5t47 92.5t55 86t51.5 38q14 0 23 -8.5t9 -18.5q0 -4 -11 -30.5t-28.5 -63.5t-38 -79t-41 -77.5t-37 -59.5 t-24.5 -24q-20 0 -26.5 16.5t-6.5 35.5z" />
<glyph unicode="&#xa3;" horiz-adv-x="892" d="M92 319q0 27 6 34t15 7q10 0 17 -7t17 -7q6 0 13 2q-2 23 -3 47.5t-1 53.5q0 74 17 150.5t55 139t95.5 102.5t137.5 40q49 0 96 -12.5t84 -33t58.5 -49t21.5 -59.5q0 -14 -10 -14q-16 0 -41 13t-53.5 29.5t-63.5 30t-74 13.5q-49 0 -85 -23.5t-61.5 -61.5t-41 -83 t-23.5 -89t-11 -81t-3 -58v-32q33 8 69.5 18t69.5 19.5t58.5 14.5t37.5 5q25 0 46.5 -5.5t21.5 -21.5q0 -10 -27.5 -25.5t-69.5 -30.5t-92.5 -31.5t-95.5 -28.5q16 -59 41 -110.5t31 -113.5q43 10 96.5 21.5t105.5 21t100 14.5t81 5q10 0 32.5 -2t22.5 -19q0 -29 -25.5 -42 t-78.5 -25t-136 -27.5t-198 -48.5q-6 -57 -28.5 -93t-69.5 -36q-33 0 -52.5 14.5t-19.5 53.5t13.5 74.5t54.5 58.5q-4 45 -26.5 94t-41.5 135q-10 -4 -16 -4h-8q-37 0 -47.5 14.5t-10.5 48.5z" />
<glyph unicode="&#xa4;" horiz-adv-x="1122" d="M109 635q0 20 16 26.5t35 6.5q18 0 35 -4q16 -4 62 -22.5t89 -45.5q10 27 16.5 47.5t6.5 36.5q0 4 -1 10t-1 12q0 12 8 19q16 12 25.5 18t21.5 6q14 0 40.5 -7t37.5 -7h23.5t27.5 2q16 2 33 4q16 0 38.5 -3t47.5 -9q4 14 16 45t30.5 62.5t40 56t44.5 24.5q14 0 23.5 -8 t9.5 -18q0 -4 -8.5 -25.5t-21.5 -49.5t-28.5 -59.5t-30.5 -56.5q47 -27 82 -76t35 -133q0 -86 -22 -149q18 -10 43.5 -22.5t74.5 -26.5q23 -6 49.5 -18.5t26.5 -34.5q0 -18 -13 -25.5t-34 -7.5q-14 0 -31.5 2t-35.5 6q-35 6 -67 15.5t-56 19.5q-33 -49 -74 -79t-79 -47.5 t-69.5 -23.5t-44.5 -6h-20t-21 4q-8 -33 -18 -61.5t-20 -50.5q-12 -25 -25 -48q-4 -8 -17.5 -14t-29.5 -6q-23 0 -29 12.5t-6 28.5q0 29 5 46t13.5 33.5t20.5 37t25 57.5q-51 37 -83 98.5t-32 137.5q0 39 7 76.5t17 72.5q-33 14 -69.5 31.5t-67 34t-51 32t-20.5 23.5z M391 406q0 -43 10.5 -95.5t44.5 -87.5q6 4 11.5 8.5t13.5 4.5q16 0 24.5 -13.5t8.5 -32.5q10 -4 37 -4q59 0 105 28t75 75q-8 10 -8 35q0 23 11 28.5t28 5.5q18 55 18 125q0 45 -16.5 78t-42 53.5t-58 29.5t-63.5 9q-41 0 -72 -6t-65 -6l-35 -104q8 -10 8 -21 q0 -12 -7 -21.5t-16 -11.5q-12 -43 -12 -77z" />
<glyph unicode="&#xa5;" horiz-adv-x="821" d="M57 797q0 29 16.5 50t32.5 21q12 0 36 -47t83 -112q18 -20 48 -53t57.5 -64t49 -53.5t26.5 -22.5q10 0 16 15.5t8 21.5l45 125q18 55 29.5 91t17.5 65.5t9.5 58.5t3.5 65q0 37 17 44.5t38 7.5q23 0 32 -20.5t9 -35.5q0 -47 -17.5 -109.5t-40 -132t-47 -140t-37.5 -132.5 q39 4 65 6.5t46.5 2.5h42t51.5 4q10 0 21.5 -14.5t11.5 -22.5q0 -16 -18.5 -24.5t-28.5 -8.5q-16 0 -74.5 -6t-130.5 -17v-52t2 -50q53 14 96 23.5t58 9.5q23 0 44 -4.5t21 -20.5q0 -6 -17 -16t-47 -21.5t-69 -22.5t-82 -24q8 -104 20.5 -178t12.5 -117q0 -23 -4 -36 t-21 -13q-31 0 -47 17.5t-23 42t-9 51t-2 47.5q0 25 -3.5 57.5t-7.5 104.5q-76 -20 -134 -32.5t-64 -12.5q-35 0 -45.5 13t-10.5 44q0 23 6.5 28t14.5 5q10 0 25.5 -3t23.5 -3q10 0 62.5 12t117.5 29l-10 110q-78 -10 -137.5 -18t-61.5 -8q-10 0 -19 10t-9 22q0 10 6 17.5 t10 11.5q10 6 53 19.5t133 25.5q-29 41 -79 91t-99 100.5t-86 96.5t-37 81z" />
<glyph unicode="&#xa6;" horiz-adv-x="829" d="M344 1257v381q0 20 10.5 46t32.5 26q29 -4 37 -47t8 -102v-36t-1 -72t-1 -140v-244q0 -37 2 -113.5t6 -177.5q-4 -6 -12 -10q-16 -8 -31 -8q-23 0 -41 18q-4 131 -7 254t-3 225zM367 461q8 25 34 24q29 0 54 -24q6 -111 13 -219.5t13 -202.5t12.5 -167t12.5 -112l49 -346 q-2 -29 -45 -28q-18 0 -33.5 36.5t-29 91t-23.5 119t-17.5 121t-10.5 94t-3 41.5q0 10 -2 58.5t-6 125.5t-9 177t-9 211z" />
<glyph unicode="&#xa7;" horiz-adv-x="636" d="M98 182q0 12 2 21.5t17 9.5q6 0 20.5 -3t22.5 -3t52 3t94 11t90 23.5t40 40.5q0 4 -42 25.5t-126 72.5q-66 41 -92 83t-26 114q0 53 33.5 81.5t78.5 45.5q-27 14 -53.5 29.5t-48 32.5t-35.5 37.5t-14 45.5q0 53 39.5 86t90 50.5t97.5 23.5t59 6q45 0 70 -14.5t25 -51.5 q0 -12 -2.5 -21t-16.5 -9q-6 0 -20.5 3t-22.5 3t-43 -4t-73 -15.5t-67.5 -29t-29.5 -41.5q0 -4 42 -25.5t126 -73.5q66 -41 92.5 -83t26.5 -113q0 -53 -26.5 -84t-71.5 -47q53 -29 95 -62t42 -80q0 -35 -23.5 -60.5t-59.5 -42.5t-79 -27.5t-82 -15.5t-68.5 -6t-37.5 -1 q-45 0 -70 14t-25 51zM250 549q0 -31 19.5 -52.5t54.5 -21.5t57 27.5t22 70.5q0 31 -19 52.5t-54 21.5t-57.5 -27.5t-22.5 -70.5z" />
<glyph unicode="&#xa8;" horiz-adv-x="563" d="M61 883q0 29 20.5 54.5t53.5 25.5q6 0 23.5 -5.5t36 -13.5t33 -18.5t14.5 -22.5q0 -4 -10.5 -16.5t-26 -25.5t-32.5 -23.5t-30 -10.5q-8 0 -21 1t-26.5 7.5t-24 17.5t-10.5 30zM358 911q0 8 4.5 21.5t12.5 26t19.5 21.5t25.5 9q27 0 50.5 -22.5t23.5 -57.5 q0 -12 -12.5 -23.5t-28 -20.5t-29.5 -14t-16 -5q-18 0 -27.5 9t-15 20.5t-6.5 21.5t-1 14z" />
<glyph unicode="&#xa9;" horiz-adv-x="1435" d="M213 510q0 86 20.5 170t46 156.5t46 131t20.5 93.5q0 10 -2 19.5t-2 19.5q0 16 12.5 29.5t27.5 23.5t31.5 16.5t24.5 6.5q12 0 30.5 -4.5t39 -8.5t38 -8t27.5 -4q16 0 41 1t48 3q27 2 57 4q33 0 81 -6t102 -23.5t108.5 -47t97.5 -78t70.5 -117t27.5 -162.5 q0 -150 -36.5 -258.5t-94 -186t-126 -126t-133 -75t-116 -36.5t-73.5 -10q-82 0 -157 36.5t-132 101.5t-91 152t-34 187zM297 524q0 -61 20.5 -133t62.5 -133t103.5 -102t143.5 -41q98 0 189 48t159.5 132t110.5 196.5t42 239.5q0 98 -46 165t-110.5 107.5t-134 58 t-116.5 17.5q-41 0 -77 -4t-68.5 -8t-65.5 -8t-70 -4q-10 -41 -33.5 -104.5t-48 -137.5t-43 -149.5t-18.5 -139.5zM463 510q0 88 30.5 161.5t59.5 114.5q14 20 34.5 42t41 39.5t38 28.5t25.5 11q16 0 29.5 -9t13.5 -17q0 -14 -8 -24.5t-22.5 -24t-35 -32t-42.5 -50.5 q-45 -61 -66.5 -126t-21.5 -112q0 -49 35.5 -76.5t76.5 -27.5q70 0 125 31.5t94 69.5t62.5 69.5t34.5 31.5q22 1 22 -30q0 -18 -6 -39t-12 -33q-4 -6 -34 -38t-76 -66.5t-101 -63.5t-109 -29q-31 0 -64.5 11.5t-61 35t-45 61.5t-17.5 91z" />
<glyph unicode="&#xaa;" horiz-adv-x="751" d="M68 575q0 55 24.5 117t58 112t69.5 84t59 34q16 0 37.5 -18.5t21.5 -33.5q0 -6 -11.5 -15t-17.5 -15q-23 -18 -49.5 -51t-49 -69t-37.5 -69t-15 -51q0 -6 6 -16.5t14 -10.5q23 2 36 30t23.5 60.5t19.5 59.5t24 27q20 0 34.5 -12.5t22.5 -30t11 -34t3 -24.5 q0 -10 9.5 -22.5t21.5 -24.5t25.5 -20.5t21.5 -8.5q37 0 74 17.5t70.5 45.5t64.5 63.5t55 70.5q4 -2 12.5 -8t8.5 -14q0 -35 -33 -80t-79 -86t-94 -69t-79 -28q-29 0 -68.5 19.5t-66.5 54.5q-16 -23 -44 -52.5t-81 -29.5q-18 0 -35.5 10.5t-33 24.5t-24.5 31.5t-9 31.5z" />
<glyph unicode="&#xab;" horiz-adv-x="843" d="M195 307v9q0 10 3 58t7 152.5t14 294.5q2 12 6 31.5t12.5 38t22.5 31t37 12.5q14 0 17 -22.5t3 -32.5q0 -76 -7 -127.5t-15 -101.5t-15.5 -111.5t-7.5 -159.5q0 -4 1 -10.5t6 -14.5q12 -25 43.5 -50t64.5 -54t58.5 -62.5t25.5 -74.5q0 -18 -11 -22.5t-22 -4.5q-2 0 -10 5 t-31.5 24.5t-66.5 56.5t-117 100q-4 4 -11 11.5t-7 23.5zM358 395q0 2 1 4t4.5 12.5t9.5 30t18 56.5q6 23 14.5 61.5t18.5 83.5t21.5 90t22.5 82t21.5 59.5t20.5 22.5t31.5 -7t21.5 -30l-6 -34q-6 -33 -16.5 -80.5t-22.5 -101.5t-24 -97l-7.5 -22.5t-10.5 -35t-9 -34 t-4 -19.5q0 -18 29.5 -43.5t66.5 -49.5t71 -40t42 -16q6 0 16 2t17 2q16 0 25 -18.5t9 -24.5q0 -39 -23.5 -53.5t-49.5 -14.5q-47 0 -106.5 42t-125.5 95l-57 45q-18 12 -19 33z" />
<glyph unicode="&#xac;" horiz-adv-x="849" d="M96 504q0 29 21.5 47t50.5 18q23 0 73 3t112.5 9.5t129 11.5t121.5 11t92 9t39 3q18 0 32.5 -4t14.5 -20q0 -43 -6 -97.5t-6 -95.5q0 -53 -11 -84.5t-40 -31.5q-14 0 -23.5 19.5t-13.5 47t-6 57t-2 50.5q0 27 1 36t3 29q-18 0 -69.5 -4t-114 -10t-126 -15.5t-108.5 -19.5 l-90 -20q-6 0 -18.5 4t-24.5 11t-21.5 16.5t-9.5 19.5z" />
<glyph unicode="&#xad;" horiz-adv-x="716" d="M90 420q0 23 16.5 35t36 18t39 7t25.5 1q68 0 102.5 -5t63.5 -5t61.5 2t65 5t61.5 6t49 3q23 0 32 -13t9 -23t-9 -24.5t-21 -16.5q-6 -2 -69 -8.5t-159 -6.5q-29 0 -73 3t-99 3q-10 0 -43 -6t-49 -6q-39 0 -39 31z" />
<glyph unicode="&#xae;" horiz-adv-x="1435" d="M227 530q0 86 20.5 170t46 157t46 131.5t20.5 92.5q0 10 -2 19.5t-2 19.5q0 16 12.5 30.5t29 25t31.5 15.5t24 5q12 0 30.5 -4t39 -8t38 -8.5t27.5 -4.5q16 0 40.5 1.5t47.5 3.5q27 2 57 4q33 0 81 -6.5t102.5 -23.5t108.5 -47t97 -78t71 -117t28 -163q0 -150 -37 -258 t-94.5 -186t-126 -126t-133 -74.5t-115.5 -37t-74 -10.5q-82 0 -156.5 37t-132 101.5t-91.5 151.5t-34 187zM311 545q0 -61 20.5 -133t62.5 -133.5t103.5 -102.5t143.5 -41q98 0 189.5 48t160 132t110.5 197t42 240q0 98 -46 164.5t-110.5 107.5t-134.5 58.5t-117 17.5 q-41 0 -76.5 -4t-68.5 -8.5t-65.5 -8.5t-69.5 -4q-10 -41 -34 -104.5t-48.5 -137t-43 -149.5t-18.5 -139zM455 793q0 23 12 36t29 23q51 35 122.5 56.5t131.5 21.5q10 0 31.5 -1t43 -9.5t37 -23.5t15.5 -42q0 -35 -39 -77t-88 -83t-94.5 -84t-45.5 -75q0 -20 30 -35 t66.5 -23t70.5 -12t42 -4t40 -3t65.5 -12.5t60.5 -24.5t27 -38q0 -10 -10.5 -24.5t-26.5 -14.5q-10 0 -19 4q-29 16 -64.5 25.5t-73.5 15.5t-75.5 11.5t-74.5 15.5q4 -6 12 -25.5t8 -28.5q0 -16 -11 -24t-22 -8q-20 0 -44.5 33.5t-47 78.5t-40 89t-21.5 63zM532 786 q0 -6 4.5 -24.5t10.5 -42t12 -49t12 -45.5q37 45 77 81.5t73 64.5t54.5 47.5t21.5 33.5q0 4 -17.5 6t-34.5 2q-29 0 -59.5 -8t-58 -18.5t-47 -18.5t-21.5 -10z" />
<glyph unicode="&#xaf;" horiz-adv-x="630" d="M57 928q0 10 8.5 34.5t24.5 24.5q10 0 16.5 -8t14.5 -10q92 0 181 8t185 8q12 0 27.5 -2t29 -6t24 -10.5t12.5 -16.5q-2 -10 -34 -19t-80 -17.5t-105.5 -14.5t-109.5 -11t-91 -7t-51 -2q-27 0 -39.5 15t-12.5 34z" />
<glyph unicode="&#xb0;" horiz-adv-x="638" d="M127 580q0 20 11.5 47.5t28.5 53.5t39.5 43t47.5 17q14 0 31.5 -11t17.5 -25q0 -16 -9 -31t-21.5 -29t-21.5 -30.5t-9 -34.5q0 -10 6 -16.5t10 -6.5q33 0 62.5 25.5t52 61.5t36 72t13.5 54q0 12 -12 12q-6 0 -23.5 -8t-34.5 -8q-18 0 -28.5 17.5t-10.5 21.5q0 8 9.5 22.5 t21.5 26.5t25.5 21.5t23.5 9.5q14 0 36 -2t41 -10.5t33.5 -21.5t14.5 -38q0 -33 -13 -91t-41 -115.5t-71 -100.5t-100 -43q-27 0 -56.5 5t-54 18.5t-40 36t-15.5 57.5z" />
<glyph unicode="&#xb1;" horiz-adv-x="806" d="M150 528q0 18 11 24.5t23 6.5q2 0 19.5 3t37 7t35 9.5t15.5 9.5t-5 29.5t-11.5 56.5t-11.5 62.5t-5 47.5q0 2 1 12.5t4 20.5t9.5 18.5t18.5 8.5q39 0 45 -25q16 -70 23.5 -115t11.5 -71.5t9 -36.5t21 -10q49 6 93 12q35 4 69.5 8t44.5 4q4 0 25.5 -4t21.5 -14 q0 -6 -11 -15.5t-27.5 -17.5t-36 -15t-35.5 -9q-35 -8 -72 -10.5t-70 -8.5q2 -8 6.5 -27.5t8.5 -43l8 -47t4 -42.5q0 -39 -13.5 -68.5t-47.5 -29.5q-12 0 -23.5 8t-11.5 33q0 23 2 38t2 34q0 16 -7 56t-18 71q-20 0 -51 -3t-37 -3q-29 0 -52 7t-23 29zM172 100q0 10 6 17.5 t10 11.5q6 4 22.5 11t49.5 15.5t86 16.5t137 14q39 2 62.5 3t43 2.5t39 1.5t50.5 4q10 0 21.5 -14.5t11.5 -22.5q0 -16 -18.5 -24.5t-28.5 -8.5q-12 0 -51.5 -4t-90.5 -11.5t-106.5 -14.5t-102.5 -14t-78.5 -11t-33.5 -4q-10 0 -19.5 10t-9.5 22z" />
<glyph unicode="&#xb2;" horiz-adv-x="489" d="M68 903q0 8 32.5 27.5t77.5 40t93 37t79 16.5q23 0 41.5 -15.5t18.5 -43.5q0 -23 -19.5 -66t-47.5 -92t-57.5 -98.5t-52.5 -83.5q18 6 36 8t28 2t31.5 -3t42 -10.5t36 -21.5t15.5 -37q0 -25 -19.5 -37t-31.5 -12t-19.5 4t-14.5 8t-16.5 8.5t-27.5 4.5q-23 0 -40 -12.5 t-35.5 -28t-37 -27.5t-39.5 -12q-35 0 -45 20.5t-10 52.5q0 6 18.5 42t48 91.5t66.5 123t76 137.5q-102 -37 -144 -50.5t-51 -13.5q-4 0 -18 8.5t-14 32.5z" />
<glyph unicode="&#xb3;" horiz-adv-x="489" d="M59 592q0 10 13.5 31.5t25.5 33.5q39 -37 86 -36q18 0 40 6t42.5 17t33.5 24.5t13 29.5q0 18 -26.5 25.5t-58 16t-58.5 23.5t-27 50q0 31 48.5 55.5t115.5 61.5q-2 0 -8 2t-8 2q-23 0 -43.5 -7t-39 -14.5t-32.5 -14.5t-22 -7q-29 0 -39.5 9t-10.5 38q0 16 30 32.5t69 29 t73.5 19.5t45.5 7q12 0 30.5 -3t36 -10t29.5 -21.5t12 -39.5q0 -20 -19.5 -40.5t-46 -38t-54 -31t-44.5 -21.5q25 -6 51.5 -18t48 -29.5t36 -40t14.5 -49.5q0 -33 -23.5 -62.5t-58.5 -53t-74 -37t-72 -13.5q-20 0 -42.5 4t-42 13.5t-32 22.5t-12.5 34z" />
<glyph unicode="&#xb4;" horiz-adv-x="548" d="M127 864q0 4 18.5 11.5t40.5 19.5q20 12 54 40t68 55.5t61.5 48t38.5 20.5q14 0 28.5 -8.5t14.5 -18.5q0 -16 -25 -47t-58.5 -63.5t-69.5 -60t-56 -38.5q-16 -8 -28.5 -10t-20.5 -2q-16 0 -41 18.5t-25 34.5z" />
<glyph unicode="&#xb6;" horiz-adv-x="1509" d="M109 283q0 70 24.5 133t69.5 122.5t105.5 116t131.5 109.5q76 57 176.5 110.5t202 94.5t191.5 66.5t145 25.5q37 0 54.5 -9.5t17.5 -41.5q0 -23 -16.5 -53.5t-32.5 -30.5t-23.5 10t-7.5 22v17q0 2 2 4q-51 -6 -126 -24.5t-173 -59.5q20 -20 33.5 -77.5t21.5 -126 t12.5 -137.5t10.5 -112q8 -66 15 -119t14.5 -105t18.5 -109.5t28 -126.5l4 -15q29 18 46 37t23 19q14 0 40 -7.5t26 -27.5q0 -33 -33 -63.5t-80 -53.5l55 -229q0 -16 -12 -24.5t-29 -8.5q-14 0 -28.5 19.5t-27.5 52t-26.5 74.5t-25.5 85q-10 -2 -20.5 -3t-20.5 -1 q-12 0 -23.5 1t-25.5 1q12 -37 23.5 -68.5t11.5 -35.5q0 -29 -7.5 -53.5t-23.5 -24.5q-14 0 -28.5 17.5t-28 45t-25.5 63.5t-25 73q-100 20 -211.5 61t-206 97.5t-155.5 125t-61 144.5zM207 285q0 -49 50 -101.5t127 -98.5t167 -80t168 -46q-18 59 -33.5 130t-28 139.5 t-20.5 129t-10 101.5q-4 20 -8.5 52t-7.5 65.5t-6 63.5t-3 46q0 18 7 38.5t18 20.5q25 0 39 -18t23 -61t16.5 -113t21.5 -170q20 -143 43.5 -255.5t48.5 -184.5q-2 0 28 -3t64 -3q-16 63 -24 109t-8 50q0 16 -28 199.5t-56 533.5v22.5t4 22.5q-39 -16 -81 -36.5t-87 -44.5 q-78 -43 -154 -101.5t-136 -125t-97 -139.5t-37 -142z" />
<glyph unicode="&#xb7;" horiz-adv-x="665" d="M266 408q0 8 4 21t12.5 25.5t19.5 21.5t26 9q27 0 50 -22t23 -57q0 -12 -12 -23.5t-27.5 -21t-30 -14.5t-16.5 -5q-18 0 -27 9t-14.5 20.5t-6.5 21.5t-1 15z" />
<glyph unicode="&#xb8;" horiz-adv-x="671" d="M119 -14q0 12 19.5 41.5t46 59.5t55 52.5t47.5 22.5q6 0 9 -6.5t5 -12.5q2 -4 2 -12q0 -20 -15.5 -39.5t-31.5 -36.5l-26.5 -26.5t-20.5 -36.5q4 -8 13 -10t20 -2q6 0 35.5 2t41.5 2q14 0 48 -5.5t70 -20.5t62.5 -43t26.5 -73q0 -37 -28.5 -62.5t-65.5 -43t-70.5 -25.5 t-44.5 -8q-35 0 -60.5 26.5t-25.5 61.5q0 6 11 6q10 0 25.5 -4t29.5 -4q4 0 24.5 5t44 14.5t43 21.5t19.5 29q0 10 -11 19t-27.5 15.5t-34 10.5t-31.5 4q-27 0 -40.5 -2t-37.5 -2q-14 0 -36 2t-42.5 11t-34.5 24.5t-14 44.5z" />
<glyph unicode="&#xb9;" horiz-adv-x="385" d="M37 844q0 4 8 19.5t31 35.5t39 43t29.5 41t25.5 29.5t27 11.5q16 0 26 -10t16.5 -24.5t9.5 -31t3 -26.5q0 -111 10 -181.5t21.5 -112.5t21.5 -60.5t10 -24.5q0 -23 -24.5 -35t-34.5 -12q-29 0 -45 33.5t-25.5 81t-13.5 95.5t-8 79l-8 59q-12 -8 -27.5 -17.5t-29 -18.5 t-22.5 -14t-11 -5q-8 0 -18.5 18.5t-10.5 26.5z" />
<glyph unicode="&#xba;" horiz-adv-x="512" d="M80 588q0 20 14.5 58t37 75t49 64.5t50.5 27.5q4 0 17 -4q2 8 11 21.5t21.5 25.5t24.5 20.5t23 8.5q14 0 33.5 -2t37 -9.5t29.5 -20.5t12 -38q0 -33 -13 -91t-40 -115.5t-69 -99.5t-99 -42q-53 0 -96 24.5t-43 96.5zM176 580q0 -10 6 -16.5t11 -6.5q33 0 62.5 27.5 t53 64.5t36.5 75t13 56q0 12 -12 13q-6 0 -26.5 -9.5t-32.5 -17.5q-16 -10 -35 -33.5t-36 -52.5t-28.5 -56.5t-11.5 -43.5z" />
<glyph unicode="&#xbb;" horiz-adv-x="802" d="M127 872q0 14 12.5 28.5t22.5 14.5q29 0 42 -14t21 -37q8 -31 19.5 -66.5t33 -75.5t56.5 -84t88 -93q4 -4 10 -13.5t6 -25.5l-22 -98q0 -4 -9.5 -45t-24.5 -88.5t-39 -85t-52 -37.5q-20 0 -32.5 15t-12.5 21q0 14 15 56.5t32.5 89.5t33 90t15.5 61q0 8 -34 49t-73.5 97.5 t-73.5 121t-34 119.5zM326 956q0 10 12 36t37 26q4 0 13 -4t13 -13q27 -51 47.5 -98t44 -95t54.5 -99.5t78 -106.5q12 -12 12 -33q0 -35 -24.5 -140t-41.5 -253q-4 -25 -17 -43t-36 -18t-30 11t-7 46q0 25 9.5 73t21.5 103t23.5 107.5t17.5 87.5q-6 16 -43 68.5t-78 116 t-73.5 127t-32.5 101.5z" />
<glyph unicode="&#xbc;" horiz-adv-x="1171" d="M102 844q0 4 8.5 19.5t30.5 35.5q23 20 39.5 43t29.5 41t25.5 29.5t26.5 11.5q16 0 26.5 -10t16.5 -24.5t9 -31t3 -26.5q0 -111 10.5 -181.5t21.5 -112.5t21.5 -60.5t10.5 -24.5q0 -23 -24.5 -35t-34.5 -12q-29 0 -45.5 33.5t-25.5 81t-13.5 95.5t-8.5 79l-8 59 q-12 -8 -27.5 -17.5t-28.5 -18.5t-22.5 -14t-11.5 -5q-8 0 -18.5 18.5t-10.5 26.5zM287 -76q0 4 57 150q27 68 58.5 155.5t65.5 184t65.5 191.5t60.5 177q16 49 34.5 93.5t35 77t30 51t21.5 18.5q4 0 11 -3t15 -7q12 -4 13 -25q0 -4 -1 -7t-1 -5v-4q-47 -117 -89 -260.5 t-91.5 -289t-107.5 -282.5t-136 -239q-16 -23 -21 -23q-6 0 -13 21.5t-7 25.5zM639 283q0 29 29.5 64.5t66.5 67t66.5 57.5t29.5 36v43q0 16 12.5 24.5t22.5 8.5q20 0 32.5 -19.5t19 -48.5t8.5 -63.5t2 -67.5v-90q61 18 78 18q23 0 38 -10t15 -35q0 -29 -20.5 -39t-45 -13 t-45 -6t-20.5 -15q0 -10 2 -35t5 -55.5t5 -63.5t2 -64q0 -18 -10 -47.5t-43 -29.5q-16 0 -26.5 10t-16.5 27.5t-8 37t-2 37.5v183h-35q-6 0 -32 2t-55.5 10t-52 25.5t-22.5 50.5zM743 287q20 -4 41 -4q14 0 26.5 1t23.5 3v110q-8 -8 -23.5 -24.5t-30 -32.5t-26 -31.5 t-11.5 -21.5z" />
<glyph unicode="&#xbd;" horiz-adv-x="1171" d="M102 844q0 4 8.5 19.5t30.5 35.5q23 20 39.5 43t29.5 41t25.5 29.5t26.5 11.5q16 0 26.5 -10t16.5 -24.5t9 -31t3 -26.5q0 -111 10.5 -181.5t21.5 -112.5t21.5 -60.5t10.5 -24.5q0 -23 -24.5 -35t-34.5 -12q-29 0 -45.5 33.5t-25.5 81t-13.5 95.5t-8.5 79l-8 59 q-12 -8 -27.5 -17.5t-28.5 -18.5t-22.5 -14t-11.5 -5q-8 0 -18.5 18.5t-10.5 26.5zM287 -76q0 4 57 150q27 68 58.5 155.5t65.5 184t65.5 191.5t60.5 177q16 49 34.5 93.5t35 77t30 51t21.5 18.5q4 0 11 -3t15 -7q12 -4 13 -25q0 -4 -1 -7t-1 -5v-4q-47 -117 -89 -260.5 t-91.5 -289t-107.5 -282.5t-136 -239q-16 -23 -21 -23q-6 0 -13 21.5t-7 25.5zM676 399q0 8 32.5 27.5t77.5 40t93.5 37t78.5 16.5q23 0 41.5 -15.5t18.5 -43.5q0 -23 -19.5 -66t-47 -92t-57.5 -98t-52 -84q18 6 35.5 8t27.5 2t31.5 -3t42 -10t36 -21.5t15.5 -37.5 q0 -25 -19.5 -37t-31.5 -12t-19.5 4t-14.5 8.5t-16 8.5t-28 4q-23 0 -40 -12.5t-35.5 -27.5t-37 -27.5t-38.5 -12.5q-35 0 -45.5 20.5t-10.5 53.5q0 6 18.5 41.5t48.5 91t66.5 123t75.5 137.5q-102 -37 -144 -50.5t-50 -13.5q-4 0 -18.5 8.5t-14.5 32.5z" />
<glyph unicode="&#xbe;" horiz-adv-x="1157" d="M86 592q0 10 13.5 31.5t25.5 33.5q39 -37 86 -36q18 0 39.5 6t42 17t34 24.5t13.5 29.5q0 18 -26.5 25.5t-58.5 16t-58.5 23.5t-26.5 50q0 31 48 55.5t116 61.5q-2 0 -8.5 2t-8.5 2q-23 0 -43 -7t-38.5 -14.5t-33 -14.5t-22.5 -7q-29 0 -39 9t-10 38q0 16 29.5 32.5 t68.5 29t74 19.5t45 7q12 0 30.5 -3t36 -10t30 -21.5t12.5 -39.5q0 -20 -19.5 -40.5t-46 -38t-54.5 -31t-44 -21.5q25 -6 51.5 -18t48 -29.5t35.5 -40t14 -49.5q0 -33 -23.5 -62.5t-58 -53t-73.5 -37t-72 -13.5q-20 0 -42.5 4t-42 13.5t-32 22.5t-12.5 34zM283 -76 q0 4 57 150q27 68 58.5 155.5t65.5 184t65.5 191.5t60.5 177q16 49 34.5 93.5t35 77t29.5 51t22 18.5q4 0 11 -3t15 -7q12 -4 13 -25q0 -4 -1 -7t-1 -5v-4q-47 -117 -89.5 -260.5t-91.5 -289t-107.5 -282.5t-135.5 -239q-16 -23 -21 -23q-6 0 -13 21.5t-7 25.5zM639 283 q0 29 29.5 64.5t66.5 67t66.5 57.5t29.5 36v43q0 16 12.5 24.5t22.5 8.5q20 0 32.5 -19.5t19 -48.5t8.5 -63.5t2 -67.5v-90q61 18 78 18q23 0 38 -10t15 -35q0 -29 -20.5 -39t-45 -13t-45 -6t-20.5 -15q0 -10 2 -35t5 -55.5t5 -63.5t2 -64q0 -18 -10 -47.5t-43 -29.5 q-16 0 -26.5 10t-16.5 27.5t-8 37t-2 37.5v183h-35q-6 0 -32 2t-55.5 10t-52 25.5t-22.5 50.5zM743 287q18 -4 45 -4t46 4v110q-8 -8 -23.5 -24.5t-30 -32.5t-26 -31.5t-11.5 -21.5z" />
<glyph unicode="&#xbf;" horiz-adv-x="839" d="M133 166q0 76 22.5 134t53.5 102t63.5 77t55.5 60q41 47 74.5 82.5t33.5 70.5q0 23 -5 48.5t-15 41.5q10 18 20 28.5t27 10.5q14 0 25.5 -12t19.5 -30.5t13 -39t5 -37.5q0 -37 -10 -65.5t-28.5 -52t-43 -47t-51.5 -50.5q-70 -70 -120 -147.5t-50 -175.5q0 -53 40 -87 t83 -34q78 0 134.5 28.5t94 62.5t60 62.5t35.5 28.5q22 0 22 -35q0 -20 -6 -41.5t-12 -35.5q-4 -6 -34 -34t-76 -58.5t-103.5 -54t-114.5 -23.5q-35 0 -71.5 13t-68.5 40t-52.5 68.5t-20.5 101.5zM326 1051q0 27 19.5 51t49.5 24q6 0 22.5 -5t34 -12t31 -17.5t13.5 -20.5 q0 -4 -10.5 -16.5t-23.5 -24.5t-29.5 -21.5t-29.5 -9.5q-8 0 -21 1t-25.5 6.5t-21.5 15.5t-9 29z" />
<glyph unicode="&#xc0;" horiz-adv-x="831" d="M113 16q0 18 10 86t22.5 151t24.5 165t16 129q2 25 13.5 80t24 113.5t24.5 105.5t16 53q33 76 42 156t14.5 146.5t17.5 108.5t51 42q10 0 21.5 -16.5t21.5 -39t16.5 -44t8.5 -33.5t5 -49t6 -81.5t6 -86t5 -64.5q6 -68 19.5 -152t28 -157.5t26.5 -123.5t18 -50q8 0 21.5 4 t25.5 4q16 0 17 -17q0 -16 -8.5 -26t-17.5 -18.5t-16 -14.5t-7 -14q0 -16 18 -84l33 -121q4 -16 18.5 -55t29.5 -81t27.5 -78t12.5 -44q2 -8 2 -15.5v-11.5q0 -20 -9 -28.5t-36 -8.5q-25 0 -33 9q-12 12 -32.5 63t-43 121t-44 149.5t-37.5 151.5q-23 -10 -62 -21.5 t-80 -21.5q-47 -10 -98 -23q-18 -88 -27.5 -150.5t-16.5 -102t-18.5 -59t-35.5 -19.5q-16 0 -28.5 18.5t-12.5 54.5zM246 1694q0 2 1 3t1 3q6 6 14 6q10 0 25.5 -7t29.5 -18q14 -10 43 -39.5t57.5 -63.5t53.5 -62.5t33 -34.5q2 -2 10 -4t18.5 -5.5t18.5 -7.5t8 -10 q0 -16 -21.5 -38.5t-35.5 -22.5q-12 0 -39 14q-29 14 -66 54t-70.5 85t-57 87t-23.5 61zM264 387q0 -8 6 -8q12 0 45 7t68 17.5t61.5 20.5t26.5 16t-7 32t-16.5 66t-19.5 91t-18 108q-4 37 -10.5 100.5t-12.5 126t-10 107.5l-4 45l-7 -30q-6 -29 -13 -65t-12 -67.5t-5 -35.5 v-58q0 -4 -5 -35.5t-13.5 -80t-17.5 -104.5t-17.5 -107.5t-13.5 -91.5t-5 -54z" />
<glyph unicode="&#xc1;" horiz-adv-x="831" d="M113 16q0 18 10 86t22.5 151t24.5 165t16 129q2 25 13.5 80t24 113.5t24.5 105.5t16 53q33 76 42 156t14.5 146.5t17.5 108.5t51 42q10 0 21.5 -16.5t21.5 -39t16.5 -44t8.5 -33.5t5 -49t6 -81.5t6 -86t5 -64.5q6 -68 19.5 -152t28 -157.5t26.5 -123.5t18 -50q8 0 21.5 4 t25.5 4q16 0 17 -17q0 -16 -8.5 -26t-17.5 -18.5t-16 -14.5t-7 -14q0 -16 18 -84l33 -121q4 -16 18.5 -55t29.5 -81t27.5 -78t12.5 -44q2 -8 2 -15.5v-11.5q0 -20 -9 -28.5t-36 -8.5q-25 0 -33 9q-12 12 -32.5 63t-43 121t-44 149.5t-37.5 151.5q-23 -10 -62 -21.5 t-80 -21.5q-47 -10 -98 -23q-18 -88 -27.5 -150.5t-16.5 -102t-18.5 -59t-35.5 -19.5q-16 0 -28.5 18.5t-12.5 54.5zM264 387q0 -8 6 -8q12 0 45 7t68 17.5t61.5 20.5t26.5 16t-7 32t-16.5 66t-19.5 91t-18 108q-4 37 -10.5 100.5t-12.5 126t-10 107.5l-4 45l-7 -30 q-6 -29 -13 -65t-12 -67.5t-5 -35.5v-58q0 -4 -5 -35.5t-13.5 -80t-17.5 -104.5t-17.5 -107.5t-13.5 -91.5t-5 -54zM270 1503q0 4 18.5 11.5t41.5 19.5q20 12 54 40t67.5 55.5t61.5 48t38 20.5q14 0 28.5 -8.5t14.5 -18.5q0 -16 -24.5 -47t-58.5 -63.5t-69.5 -60 t-56.5 -38.5q-16 -8 -28.5 -10t-20.5 -2q-16 0 -41 18.5t-25 34.5z" />
<glyph unicode="&#xc2;" horiz-adv-x="831" d="M113 16q0 18 10 86t22.5 151t24.5 165t16 129q2 25 13.5 80t24 113.5t24.5 105.5t16 53q33 76 42 156t14.5 146.5t17.5 108.5t51 42q10 0 21.5 -16.5t21.5 -39t16.5 -44t8.5 -33.5t5 -49t6 -81.5t6 -86t5 -64.5q6 -68 19.5 -152t28 -157.5t26.5 -123.5t18 -50q8 0 21.5 4 t25.5 4q16 0 17 -17q0 -16 -8.5 -26t-17.5 -18.5t-16 -14.5t-7 -14q0 -16 18 -84l33 -121q4 -16 18.5 -55t29.5 -81t27.5 -78t12.5 -44q2 -8 2 -15.5v-11.5q0 -20 -9 -28.5t-36 -8.5q-25 0 -33 9q-12 12 -32.5 63t-43 121t-44 149.5t-37.5 151.5q-23 -10 -62 -21.5 t-80 -21.5q-47 -10 -98 -23q-18 -88 -27.5 -150.5t-16.5 -102t-18.5 -59t-35.5 -19.5q-16 0 -28.5 18.5t-12.5 54.5zM184 1442q0 12 11 22q25 25 49 57.5t48.5 63.5t47 51.5t41.5 20.5q37 0 64.5 -30t55 -72t58.5 -86t76 -74q20 0 38.5 -8.5t18.5 -22.5q0 -10 -8 -18.5 t-12 -12.5q-4 -2 -15.5 -7t-21.5 -5q-23 0 -43.5 8t-36.5 19q-35 18 -60.5 45.5t-46 56.5t-37 55.5t-28.5 40.5q-29 -35 -63.5 -65.5t-83.5 -61.5q-16 -8 -23 -8q-14 0 -21.5 11.5t-7.5 19.5zM264 387q0 -8 6 -8q12 0 45 7t68 17.5t61.5 20.5t26.5 16t-7 32t-16.5 66 t-19.5 91t-18 108q-4 37 -10.5 100.5t-12.5 126t-10 107.5l-4 45l-7 -30q-6 -29 -13 -65t-12 -67.5t-5 -35.5v-58q0 -4 -5 -35.5t-13.5 -80t-17.5 -104.5t-17.5 -107.5t-13.5 -91.5t-5 -54z" />
<glyph unicode="&#xc3;" horiz-adv-x="831" d="M113 16q0 18 10 86t22.5 151t24.5 165t16 129q2 25 13.5 80t24 113.5t24.5 105.5t16 53q33 76 42 156t14.5 146.5t17.5 108.5t51 42q10 0 21.5 -16.5t21.5 -39t16.5 -44t8.5 -33.5t5 -49t6 -81.5t6 -86t5 -64.5q6 -68 19.5 -152t28 -157.5t26.5 -123.5t18 -50q8 0 21.5 4 t25.5 4q16 0 17 -17q0 -16 -8.5 -26t-17.5 -18.5t-16 -14.5t-7 -14q0 -16 18 -84l33 -121q4 -16 18.5 -55t29.5 -81t27.5 -78t12.5 -44q2 -8 2 -15.5v-11.5q0 -20 -9 -28.5t-36 -8.5q-25 0 -33 9q-12 12 -32.5 63t-43 121t-44 149.5t-37.5 151.5q-23 -10 -62 -21.5 t-80 -21.5q-47 -10 -98 -23q-18 -88 -27.5 -150.5t-16.5 -102t-18.5 -59t-35.5 -19.5q-16 0 -28.5 18.5t-12.5 54.5zM143 1475q0 12 23.5 39.5t55.5 55t63.5 49t48.5 21.5q20 0 42.5 -25.5t45.5 -53.5q31 -39 53.5 -63.5t42.5 -24.5q23 0 29 23.5t6 43.5q0 4 -1 8t-1 8 q16 16 27.5 21.5t25.5 5.5q25 0 39 -20.5t14 -32.5q0 -23 -8 -47.5t-25.5 -46t-43 -36t-60.5 -14.5q-27 0 -55.5 14.5t-55 36t-50 49t-42.5 56.5l-110 -86q-16 -12 -33 -12q-23 0 -27 8t-4 23zM264 387q0 -8 6 -8q12 0 45 7t68 17.5t61.5 20.5t26.5 16t-7 32t-16.5 66 t-19.5 91t-18 108q-4 37 -10.5 100.5t-12.5 126t-10 107.5l-4 45l-7 -30q-6 -29 -13 -65t-12 -67.5t-5 -35.5v-58q0 -4 -5 -35.5t-13.5 -80t-17.5 -104.5t-17.5 -107.5t-13.5 -91.5t-5 -54z" />
<glyph unicode="&#xc4;" horiz-adv-x="831" d="M113 16q0 18 10 86t22.5 151t24.5 165t16 129q2 25 13.5 80t24 113.5t24.5 105.5t16 53q33 76 42 156t14.5 146.5t17.5 108.5t51 42q10 0 21.5 -16.5t21.5 -39t16.5 -44t8.5 -33.5t5 -49t6 -81.5t6 -86t5 -64.5q6 -68 19.5 -152t28 -157.5t26.5 -123.5t18 -50q8 0 21.5 4 t25.5 4q16 0 17 -17q0 -16 -8.5 -26t-17.5 -18.5t-16 -14.5t-7 -14q0 -16 18 -84l33 -121q4 -16 18.5 -55t29.5 -81t27.5 -78t12.5 -44q2 -8 2 -15.5v-11.5q0 -20 -9 -28.5t-36 -8.5q-25 0 -33 9q-12 12 -32.5 63t-43 121t-44 149.5t-37.5 151.5q-23 -10 -62 -21.5 t-80 -21.5q-47 -10 -98 -23q-18 -88 -27.5 -150.5t-16.5 -102t-18.5 -59t-35.5 -19.5q-16 0 -28.5 18.5t-12.5 54.5zM166 1450q0 29 20.5 54.5t53.5 25.5q6 0 23.5 -5t35.5 -13.5t32.5 -19t14.5 -22.5q0 -4 -10 -16t-25.5 -25.5t-33 -23.5t-29.5 -10q-8 0 -21.5 1t-27 7 t-23.5 17.5t-10 29.5zM264 387q0 -8 6 -8q12 0 45 7t68 17.5t61.5 20.5t26.5 16t-7 32t-16.5 66t-19.5 91t-18 108q-4 37 -10.5 100.5t-12.5 126t-10 107.5l-4 45l-7 -30q-6 -29 -13 -65t-12 -67.5t-5 -35.5v-58q0 -4 -5 -35.5t-13.5 -80t-17.5 -104.5t-17.5 -107.5 t-13.5 -91.5t-5 -54zM463 1479q0 8 4 21t12 25.5t19.5 21.5t25.5 9q27 0 50.5 -22t23.5 -57q0 -12 -12.5 -23.5t-27.5 -21t-29.5 -14.5t-16.5 -5q-18 0 -27.5 9.5t-14.5 20.5t-6 21.5t-1 14.5z" />
<glyph unicode="&#xc5;" horiz-adv-x="831" d="M113 16q0 18 10 86t22.5 151t24.5 165t16 129q2 25 13.5 80t24 113.5t24.5 105.5t16 53q27 61 37 124.5t14 121t9.5 104.5t19.5 74q-39 6 -56.5 28.5t-17.5 47.5q0 33 17.5 70.5t45 69.5t61.5 52.5t69 20.5q18 0 46 -16.5t28 -32.5q0 -2 -8.5 -13.5t-20.5 -21.5 q16 -16 16 -45q0 -12 -7 -34t-21.5 -45.5t-35 -44t-46.5 -30.5q16 -23 27.5 -58.5t15.5 -51.5q2 -12 5 -49t6 -81.5t6 -86t5 -64.5q6 -68 19.5 -152t28 -157.5t26.5 -123.5t18 -50q8 0 21.5 4t25.5 4q16 0 17 -17q0 -16 -8.5 -26t-17.5 -18.5t-16 -14.5t-7 -14q0 -16 18 -84 l33 -121q4 -16 18.5 -55t29.5 -81t27.5 -78t12.5 -44q2 -8 2 -15.5v-11.5q0 -20 -9 -28.5t-36 -8.5q-25 0 -33 9q-12 12 -32.5 63t-43 121t-44 149.5t-37.5 151.5q-23 -10 -62 -21.5t-80 -21.5q-47 -10 -98 -23q-18 -88 -27.5 -150.5t-16.5 -102t-18.5 -59t-35.5 -19.5 q-16 0 -28.5 18.5t-12.5 54.5zM264 387q0 -8 6 -8q12 0 45 7t68 17.5t61.5 20.5t26.5 16t-7 32t-16.5 66t-19.5 91t-18 108q-4 37 -10.5 100.5t-12.5 126t-10 107.5l-4 45l-7 -30q-6 -29 -13 -65t-12 -67.5t-5 -35.5v-58q0 -4 -5 -35.5t-13.5 -80t-17.5 -104.5t-17.5 -107.5 t-13.5 -91.5t-5 -54zM360 1425q0 -23 15 -22q16 0 29.5 11t23.5 26.5t15.5 33t5.5 29.5q-1 9 -7 13q-2 0 -3 1t-3 1q-8 0 -21.5 -9.5t-25.5 -24t-20.5 -30.5t-8.5 -29z" />
<glyph unicode="&#xc6;" horiz-adv-x="1150" d="M113 16q0 18 10 86t22.5 151t24.5 165t16 129q2 25 13.5 80t24 113.5t24.5 105.5t16 53q33 76 42 156t14.5 146.5t17.5 108.5t51 42q10 0 21.5 -16.5t21.5 -39t16.5 -44t8.5 -33.5t5 -49t6 -81.5t6 -86t5 -64.5t4 -45.5t6 -44.5q43 25 93.5 42t79.5 25q16 4 47.5 12.5 t66.5 16.5t66.5 14.5t46.5 6.5q16 0 24.5 -9.5t8.5 -21.5t-50.5 -32.5t-118 -45.5t-138 -51.5t-111.5 -52.5q8 -49 16 -96.5t16.5 -87.5t15.5 -67.5t13 -39.5q82 27 143.5 49t107.5 39.5t82 31t71 21.5q4 0 12 -3t8 -11q0 -12 -10 -19q-23 -16 -66 -41.5t-97 -53.5 t-114.5 -55.5t-115.5 -49.5q0 -18 18 -80l33 -121q4 -16 18.5 -56t30.5 -83q68 18 144.5 49t130.5 53q8 4 22 14.5t29 10.5q10 0 17 -10.5t7 -20.5q0 -16 -12 -25q-12 -10 -40 -25.5t-59.5 -30.5t-61 -29.5t-44.5 -20.5q-16 -8 -45 -19.5t-61 -21.5q12 -31 12 -43 q2 -8 2 -15.5v-11.5q0 -20 -9 -28.5t-36 -8.5q-25 0 -33 9q-12 12 -39 75h-2q-23 0 -47 15.5t-24 38.5q0 12 15 15t32 7q-25 74 -49.5 164t-42.5 170q-23 -10 -62 -21.5t-80 -21.5q-47 -10 -98 -23q-18 -88 -27.5 -150.5t-16.5 -102t-18.5 -59t-35.5 -19.5q-16 0 -28.5 18.5 t-12.5 54.5zM264 387q0 -8 6 -8q12 0 45 7t68 17.5t61.5 20.5t26.5 16t-7 32t-16.5 66t-19.5 91t-18 108q-4 37 -10.5 100.5t-12.5 126t-10 107.5l-4 45l-7 -30q-6 -29 -13 -65t-12 -67.5t-5 -35.5v-58q0 -4 -5 -35.5t-13.5 -80t-17.5 -104.5t-17.5 -107.5t-13.5 -91.5 t-5 -54z" />
<glyph unicode="&#xc7;" horiz-adv-x="1069" d="M96 223q0 23 18.5 88.5t47 149.5t67.5 176t80 169t81 126t75 49q23 0 34 -14.5t11 -30.5q-2 -12 -28.5 -52t-55.5 -81q-4 -6 -14.5 -20.5t-20.5 -28.5q-12 -16 -24 -35q-8 -14 -36 -72.5t-58.5 -135.5t-55 -160t-24.5 -144q0 -35 15 -55.5t36.5 -30.5t45 -13.5t42.5 -3.5 q76 0 161 34t162.5 89.5t143 128t102.5 150.5q8 14 17.5 18t17.5 4q16 0 28.5 -22.5t12.5 -36.5q0 -29 -15.5 -59.5t-38 -61.5t-49 -58.5t-49.5 -47.5q-98 -86 -206.5 -157t-235.5 -87q-8 -12 -17.5 -22.5t-19.5 -20.5l-26.5 -26.5t-20.5 -37.5q4 -8 13.5 -10t19.5 -2 q6 0 35.5 2t42.5 2q14 0 48 -5t69.5 -20.5t62 -43t26.5 -72.5q0 -37 -28.5 -62.5t-65.5 -43t-70.5 -25.5t-43.5 -8q-35 0 -60.5 26.5t-25.5 61.5q0 6 10 6t25.5 -4t29.5 -4q4 0 24.5 5t44 14t43 21.5t19.5 28.5q0 10 -11 19.5t-27.5 15.5t-34 10t-31.5 4q-27 0 -40.5 -2 t-37.5 -2q-14 0 -35.5 2t-42 11.5t-35 25t-14.5 43.5q0 14 21.5 46t50.5 65q-184 14 -185 227z" />
<glyph unicode="&#xc8;" d="M57 473q0 16 12.5 26.5t28.5 18.5l21 12q18 78 43.5 151t64.5 146q-16 0 -34.5 4.5t-18.5 28.5q0 29 34 63.5t78 65.5t87 52.5t61 21.5q8 0 11.5 -3t11.5 -3q16 0 41.5 6t54.5 14t54.5 14.5t41.5 6.5q18 0 27.5 -12.5t9.5 -26.5q0 -16 -20.5 -23.5t-36.5 -11.5 q-57 -10 -120 -35.5t-116 -56.5q-20 -23 -49 -65t-55.5 -95t-48 -110.5t-27.5 -108.5l35 16q158 76 257 119t154 43q11 0 19 -8q2 -4 4 -5t2 -5q0 -12 -51 -46t-127 -76t-160 -84t-149 -69q0 -4 -4.5 -26.5t-4.5 -28.5v-39q0 -47 14.5 -93t44 -83t72.5 -59.5t101 -22.5 q25 0 60.5 9t69.5 26.5t60.5 42t32.5 55.5q25 -2 30 -14t5 -17q0 -53 -25.5 -91t-63.5 -61.5t-80 -34.5t-75 -11q-176 0 -256 98t-80 258q0 8 4 37t4 39q0 2 -8 5t-17 7t-16.5 13.5t-7.5 25.5zM190 1440q0 2 1.5 3t1.5 3q6 6 14 6q10 0 25.5 -7t29.5 -18q14 -10 43 -39.5 t57.5 -63.5t53 -62.5t33.5 -34.5q2 -2 10 -4t18 -5.5t18.5 -7.5t8.5 -10q0 -16 -21.5 -38.5t-36.5 -22.5q-12 0 -38 14q-29 14 -66 54t-70.5 85t-57.5 87t-24 61z" />
<glyph unicode="&#xc9;" d="M57 473q0 16 12.5 26.5t28.5 18.5l21 12q18 78 43.5 151t64.5 146q-16 0 -34.5 4.5t-18.5 28.5q0 29 34 63.5t78 65.5t87 52.5t61 21.5q8 0 11.5 -3t11.5 -3q16 0 41.5 6t54.5 14t54.5 14.5t41.5 6.5q18 0 27.5 -12.5t9.5 -26.5q0 -16 -20.5 -23.5t-36.5 -11.5 q-57 -10 -120 -35.5t-116 -56.5q-20 -23 -49 -65t-55.5 -95t-48 -110.5t-27.5 -108.5l35 16q158 76 257 119t154 43q11 0 19 -8q2 -4 4 -5t2 -5q0 -12 -51 -46t-127 -76t-160 -84t-149 -69q0 -4 -4.5 -26.5t-4.5 -28.5v-39q0 -47 14.5 -93t44 -83t72.5 -59.5t101 -22.5 q25 0 60.5 9t69.5 26.5t60.5 42t32.5 55.5q25 -2 30 -14t5 -17q0 -53 -25.5 -91t-63.5 -61.5t-80 -34.5t-75 -11q-176 0 -256 98t-80 258q0 8 4 37t4 39q0 2 -8 5t-17 7t-16.5 13.5t-7.5 25.5zM336 1202q0 4 18.5 11.5t40.5 19.5q20 12 54 39.5t68 55.5t61.5 48.5t37.5 20.5 q14 0 28.5 -8.5t14.5 -18.5q0 -16 -24.5 -47t-58 -63.5t-69.5 -60.5t-56 -38q-16 -8 -28.5 -10t-21.5 -2q-16 0 -40.5 18.5t-24.5 34.5z" />
<glyph unicode="&#xca;" d="M57 473q0 16 12.5 26.5t28.5 18.5l21 12q18 78 43.5 151t64.5 146q-16 0 -34.5 4.5t-18.5 28.5q0 29 34 63.5t78 65.5t87 52.5t61 21.5q8 0 11.5 -3t11.5 -3q16 0 41.5 6t54.5 14t54.5 14.5t41.5 6.5q18 0 27.5 -12.5t9.5 -26.5q0 -16 -20.5 -23.5t-36.5 -11.5 q-57 -10 -120 -35.5t-116 -56.5q-20 -23 -49 -65t-55.5 -95t-48 -110.5t-27.5 -108.5l35 16q158 76 257 119t154 43q11 0 19 -8q2 -4 4 -5t2 -5q0 -12 -51 -46t-127 -76t-160 -84t-149 -69q0 -4 -4.5 -26.5t-4.5 -28.5v-39q0 -47 14.5 -93t44 -83t72.5 -59.5t101 -22.5 q25 0 60.5 9t69.5 26.5t60.5 42t32.5 55.5q25 -2 30 -14t5 -17q0 -53 -25.5 -91t-63.5 -61.5t-80 -34.5t-75 -11q-176 0 -256 98t-80 258q0 8 4 37t4 39q0 2 -8 5t-17 7t-16.5 13.5t-7.5 25.5zM221 1257q0 12 10 23q25 25 49.5 57.5t49 63.5t47 51.5t41.5 20.5 q37 0 64.5 -30t55 -72t58.5 -86t76 -75q20 0 38.5 -8t18.5 -22q0 -10 -8 -18.5t-12 -12.5q-4 -2 -15.5 -7t-21.5 -5q-23 0 -43.5 8t-36.5 18q-35 18 -60.5 46t-46 56.5t-37 55.5t-28.5 41q-29 -35 -63.5 -65.5t-84.5 -61.5q-16 -8 -22 -8q-14 0 -21.5 11t-7.5 19z" />
<glyph unicode="&#xcb;" d="M57 473q0 16 12.5 26.5t28.5 18.5l21 12q18 78 43.5 151t64.5 146q-16 0 -34.5 4.5t-18.5 28.5q0 29 34 63.5t78 65.5t87 52.5t61 21.5q8 0 11.5 -3t11.5 -3q16 0 41.5 6t54.5 14t54.5 14.5t41.5 6.5q18 0 27.5 -12.5t9.5 -26.5q0 -16 -20.5 -23.5t-36.5 -11.5 q-57 -10 -120 -35.5t-116 -56.5q-20 -23 -49 -65t-55.5 -95t-48 -110.5t-27.5 -108.5l35 16q158 76 257 119t154 43q11 0 19 -8q2 -4 4 -5t2 -5q0 -12 -51 -46t-127 -76t-160 -84t-149 -69q0 -4 -4.5 -26.5t-4.5 -28.5v-39q0 -47 14.5 -93t44 -83t72.5 -59.5t101 -22.5 q25 0 60.5 9t69.5 26.5t60.5 42t32.5 55.5q25 -2 30 -14t5 -17q0 -53 -25.5 -91t-63.5 -61.5t-80 -34.5t-75 -11q-176 0 -256 98t-80 258q0 8 4 37t4 39q0 2 -8 5t-17 7t-16.5 13.5t-7.5 25.5zM188 1210q0 29 20.5 54.5t53.5 25.5q6 0 23.5 -5t36 -13t33 -18.5t14.5 -22.5 q0 -4 -10.5 -16.5t-26 -25.5t-32.5 -23.5t-30 -10.5q-8 0 -21 1t-26.5 7t-24 17.5t-10.5 29.5zM485 1239q0 8 4.5 21.5t12.5 25.5t19 21.5t26 9.5q27 0 50.5 -22.5t23.5 -57.5q0 -12 -12.5 -23.5t-28 -20.5t-29.5 -14t-16 -5q-18 0 -27.5 9t-15 20t-6.5 21.5t-1 14.5z" />
<glyph unicode="&#xcc;" horiz-adv-x="1062" d="M10 20q0 27 15.5 39.5t35.5 18.5q4 2 40 10t87.5 19.5t109.5 25.5t108.5 26.5t82 23t31.5 14.5q0 12 -9 44.5t-17 61.5l-13 41q-29 131 -45 264t-26 262q-4 4 -11 4q-10 0 -53 -20t-92 -44t-91 -44.5t-50 -20.5q-14 0 -27.5 12.5t-13.5 24.5q0 16 26.5 38t66.5 45.5 t88 45t92 39t76 27.5t42 10q16 0 42.5 6t57.5 14.5t62.5 14.5t56.5 6q27 0 27 -18q0 -10 -9 -17l-59 -16q-23 -6 -48.5 -13.5t-47 -16.5t-34.5 -20.5t-13 -23.5q0 -51 11 -134t26.5 -178t34 -193.5t30.5 -184.5l367 94q12 2 24 6q10 4 20.5 6.5t18.5 2.5q19 0 19 -29 q0 -39 -48 -57q-47 -18 -109.5 -38t-119.5 -35.5t-101 -28.5t-55 -19v-10.5t2 -12.5l7 -49q0 -18 -5.5 -28.5t-21.5 -10.5q-18 0 -25.5 11.5t-12.5 26.5t-8 31.5t-11 24.5q-4 0 -33 -8t-73 -20.5t-98 -27.5t-105.5 -27.5t-96.5 -20.5t-69 -8q-55 0 -56 34zM176 1389q0 2 1 3 t1 3q6 6 15 6q10 0 25 -7.5t30 -17.5q14 -10 42.5 -39.5t57.5 -63.5t53.5 -62.5t32.5 -34.5q2 -2 10.5 -4.5t18.5 -5.5t18 -7t8 -10q0 -16 -21.5 -39t-35.5 -23q-12 0 -39 15q-29 14 -65.5 54t-70.5 85t-57.5 87t-23.5 61z" />
<glyph unicode="&#xcd;" horiz-adv-x="1062" d="M10 20q0 27 15.5 39.5t35.5 18.5q4 2 40 10t87.5 19.5t109.5 25.5t108.5 26.5t82 23t31.5 14.5q0 12 -9 44.5t-17 61.5l-13 41q-29 131 -45 264t-26 262q-4 4 -11 4q-10 0 -53 -20t-92 -44t-91 -44.5t-50 -20.5q-14 0 -27.5 12.5t-13.5 24.5q0 16 26.5 38t66.5 45.5 t88 45t92 39t76 27.5t42 10q16 0 42.5 6t57.5 14.5t62.5 14.5t56.5 6q27 0 27 -18q0 -10 -9 -17l-59 -16q-23 -6 -48.5 -13.5t-47 -16.5t-34.5 -20.5t-13 -23.5q0 -51 11 -134t26.5 -178t34 -193.5t30.5 -184.5l367 94q12 2 24 6q10 4 20.5 6.5t18.5 2.5q19 0 19 -29 q0 -39 -48 -57q-47 -18 -109.5 -38t-119.5 -35.5t-101 -28.5t-55 -19v-10.5t2 -12.5l7 -49q0 -18 -5.5 -28.5t-21.5 -10.5q-18 0 -25.5 11.5t-12.5 26.5t-8 31.5t-11 24.5q-4 0 -33 -8t-73 -20.5t-98 -27.5t-105.5 -27.5t-96.5 -20.5t-69 -8q-55 0 -56 34zM281 1133 q0 4 18 11t41 19q20 12 54 40t68 55.5t61.5 48t37.5 20.5q14 0 28.5 -8.5t14.5 -18.5q0 -16 -24.5 -46.5t-58.5 -63.5t-69.5 -60.5t-56.5 -37.5q-16 -8 -28.5 -10.5t-20.5 -2.5q-16 0 -40.5 18.5t-24.5 35.5z" />
<glyph unicode="&#xce;" horiz-adv-x="1062" d="M10 20q0 27 15.5 39.5t35.5 18.5q4 2 40 10t87.5 19.5t109.5 25.5t108.5 26.5t82 23t31.5 14.5q0 12 -9 44.5t-17 61.5l-13 41q-29 131 -45 264t-26 262q-4 4 -11 4q-10 0 -53 -20t-92 -44t-91 -44.5t-50 -20.5q-14 0 -27.5 12.5t-13.5 24.5q0 16 26.5 38t66.5 45.5 t88 45t92 39t76 27.5t42 10q16 0 42.5 6t57.5 14.5t62.5 14.5t56.5 6q27 0 27 -18q0 -10 -9 -17l-59 -16q-23 -6 -48.5 -13.5t-47 -16.5t-34.5 -20.5t-13 -23.5q0 -51 11 -134t26.5 -178t34 -193.5t30.5 -184.5l367 94q12 2 24 6q10 4 20.5 6.5t18.5 2.5q19 0 19 -29 q0 -39 -48 -57q-47 -18 -109.5 -38t-119.5 -35.5t-101 -28.5t-55 -19v-10.5t2 -12.5l7 -49q0 -18 -5.5 -28.5t-21.5 -10.5q-18 0 -25.5 11.5t-12.5 26.5t-8 31.5t-11 24.5q-4 0 -33 -8t-73 -20.5t-98 -27.5t-105.5 -27.5t-96.5 -20.5t-69 -8q-55 0 -56 34zM150 1217 q0 12 10 22q25 25 49 57.5t49 63.5t47.5 51.5t40.5 20.5q37 0 64.5 -30t55.5 -72t58.5 -86t75.5 -75q20 0 38.5 -8t18.5 -22q0 -10 -8 -18.5t-12 -12.5q-4 -2 -15.5 -7t-21.5 -5q-23 0 -43 8t-37 18q-35 18 -60.5 46t-46 56.5t-37 55.5t-28.5 41q-29 -35 -63.5 -65.5 t-83.5 -61.5q-16 -8 -23 -8q-14 0 -21 11t-7 20z" />
<glyph unicode="&#xcf;" horiz-adv-x="1062" d="M10 20q0 27 15.5 39.5t35.5 18.5q4 2 40 10t87.5 19.5t109.5 25.5t108.5 26.5t82 23t31.5 14.5q0 12 -9 44.5t-17 61.5l-13 41q-29 131 -45 264t-26 262q-4 4 -11 4q-10 0 -53 -20t-92 -44t-91 -44.5t-50 -20.5q-14 0 -27.5 12.5t-13.5 24.5q0 16 26.5 38t66.5 45.5 t88 45t92 39t76 27.5t42 10q16 0 42.5 6t57.5 14.5t62.5 14.5t56.5 6q27 0 27 -18q0 -10 -9 -17l-59 -16q-23 -6 -48.5 -13.5t-47 -16.5t-34.5 -20.5t-13 -23.5q0 -51 11 -134t26.5 -178t34 -193.5t30.5 -184.5l367 94q12 2 24 6q10 4 20.5 6.5t18.5 2.5q19 0 19 -29 q0 -39 -48 -57q-47 -18 -109.5 -38t-119.5 -35.5t-101 -28.5t-55 -19v-10.5t2 -12.5l7 -49q0 -18 -5.5 -28.5t-21.5 -10.5q-18 0 -25.5 11.5t-12.5 26.5t-8 31.5t-11 24.5q-4 0 -33 -8t-73 -20.5t-98 -27.5t-105.5 -27.5t-96.5 -20.5t-69 -8q-55 0 -56 34zM176 1147 q0 29 20.5 54.5t53.5 25.5q6 0 23.5 -5t36 -13.5t32.5 -19t14 -22.5q0 -4 -10 -16t-25.5 -25.5t-33 -23.5t-29.5 -10q-8 0 -21.5 1t-26.5 7t-23.5 17t-10.5 30zM473 1176q0 8 4 21t12.5 25.5t19.5 21.5t26 9q27 0 50 -22t23 -57q0 -12 -12 -23.5t-27.5 -21t-30 -14.5 t-16.5 -5q-18 0 -27.5 9t-14.5 20.5t-6 21.5t-1 15z" />
<glyph unicode="&#xd0;" horiz-adv-x="917" d="M-205 -78q0 20 15.5 50t29.5 30t20.5 -9t6.5 -20q0 -6 -1 -10t-1 -8v-6q6 0 12 1t12 1q37 2 73 6t82 18.5t108.5 42t154.5 78.5q80 43 157 102.5t137.5 127t98 140.5t37.5 146q0 49 -52 102.5t-130 100.5t-170 82t-172 47q0 -8 4 -45t11.5 -88t17.5 -110.5t24 -112.5 q35 10 43 10t19.5 -13.5t11.5 -21.5q0 -12 -15.5 -23.5t-37.5 -21.5q8 -31 10 -47t3 -28.5t2 -26t7 -39.5q10 -47 14.5 -94t4.5 -74q0 -16 -6.5 -36.5t-16.5 -20.5q-18 0 -27.5 18t-14.5 48t-10 69t-15 80l-31 120q-41 -10 -73 -17t-40 -7q-31 0 -43 4t-20 22 q-4 8 -10.5 17.5t-6.5 15.5q0 10 17 10q20 0 64 10.5t91 22.5q-10 41 -18 76t-12 51q-4 23 -9.5 65t-9.5 87q-6 51 -12 110l-10 2t-26.5 4.5t-36 4.5t-36.5 2q-35 0 -62.5 -13.5t-49 -31t-34.5 -30.5t-17 -13q-12 0 -37 7t-25 25q0 27 24.5 53.5t61.5 47t80 34t80 13.5 q59 0 141 -16.5t170 -45t173 -69.5t152.5 -90.5t108.5 -105.5t41 -118q0 -139 -92 -254.5t-239 -226.5q-76 -57 -163 -105t-173 -82t-163 -52.5t-134 -18.5q-35 0 -51.5 9.5t-16.5 37.5z" />
<glyph unicode="&#xd1;" horiz-adv-x="968" d="M-111 1159q0 12 24 40t55.5 55.5t63 49t48.5 21.5q20 0 42.5 -25.5t45.5 -54.5q31 -39 53.5 -63.5t42.5 -24.5q23 0 29 23.5t6 44.5q0 4 -1 8t-1 8q16 16 27.5 21.5t25.5 5.5q25 0 39 -21t14 -33q0 -23 -8 -47t-25.5 -45.5t-43 -36t-60.5 -14.5q-27 0 -55.5 14.5t-55 36 t-50 49t-42.5 56.5l-110 -86q-16 -12 -33 -13q-23 0 -27 8.5t-4 22.5zM-2 901q0 23 6 46.5t23 23.5q10 0 14 -5t8 -5l25 10q10 0 35.5 -25.5t59.5 -66.5t73 -92.5t78.5 -100.5t75.5 -92t65 -68q45 -41 90 -77.5t91 -74.5t97.5 -81t112.5 -98q2 -2 10 -2q4 0 4 10v24 q0 29 -16 104t-46 174t-69 212.5t-83 219t-92 191.5t-93 134q-12 12 -17.5 36.5t-5.5 40.5q0 14 19.5 32t36.5 18q25 0 55.5 -49.5t65 -128t70.5 -177t71 -198.5q41 -119 76.5 -235t63.5 -216t45.5 -180t21.5 -125q0 -20 -18.5 -36.5t-41.5 -16.5q-4 0 -12 5t-12 9 q-86 82 -182.5 162t-194.5 164t-193.5 176t-179.5 200q27 -111 72 -234.5t87 -232t72.5 -187.5t30.5 -99q0 -25 -19.5 -40.5t-39.5 -15.5q-12 0 -26.5 26t-32 67t-35 91t-33.5 100t-30.5 94t-22.5 73l-56 166q-18 53 -36.5 109.5t-34 105.5t-24.5 86t-9 49z" />
<glyph unicode="&#xd2;" horiz-adv-x="825" d="M102 514q0 119 15.5 204t44.5 148q0 6 -7.5 12.5t-7.5 16.5t19.5 26.5t47.5 32t55.5 26.5t41.5 11q8 0 27.5 -8t50.5 -8q10 0 20.5 2t22.5 2q43 0 93 -40t94.5 -103.5t76 -144.5t41.5 -163q4 -27 5 -43t1 -32q0 -51 -13 -121t-45 -132.5t-84 -106.5t-132 -44 q-74 0 -139.5 42t-116.5 108.5t-81 149.5t-30 165zM109 1374q0 2 1 3t1 3q6 6 14 6q10 0 25.5 -7t29.5 -17t43 -40t57.5 -63.5t53 -62.5t33.5 -35q2 -2 10 -4t18.5 -5t18.5 -7t8 -10q0 -16 -21.5 -39t-35.5 -23q-12 0 -39 14q-29 14 -66 54.5t-70.5 85.5t-57 87t-23.5 60z M199 537q0 -23 12 -87.5t44 -133t85 -122t135 -53.5q55 0 90 34t54.5 83t27.5 101.5t8 89.5q0 39 -16 111.5t-49 143t-79 124t-103 53.5q-4 0 -15.5 1t-26 2t-26.5 2t-14 1q-33 0 -56.5 -31t-39 -80t-23.5 -112.5t-8 -126.5z" />
<glyph unicode="&#xd3;" horiz-adv-x="825" d="M102 514q0 119 15.5 204t44.5 148q0 6 -7.5 12.5t-7.5 16.5t19.5 26.5t47.5 32t55.5 26.5t41.5 11q8 0 27.5 -8t50.5 -8q10 0 20.5 2t22.5 2q43 0 93 -40t94.5 -103.5t76 -144.5t41.5 -163q4 -27 5 -43t1 -32q0 -51 -13 -121t-45 -132.5t-84 -106.5t-132 -44 q-74 0 -139.5 42t-116.5 108.5t-81 149.5t-30 165zM199 537q0 -23 12 -87.5t44 -133t85 -122t135 -53.5q55 0 90 34t54.5 83t27.5 101.5t8 89.5q0 39 -16 111.5t-49 143t-79 124t-103 53.5q-4 0 -15.5 1t-26 2t-26.5 2t-14 1q-33 0 -56.5 -31t-39 -80t-23.5 -112.5 t-8 -126.5zM231 1163q0 4 18.5 11.5t41.5 19.5q20 12 54 40t67.5 55.5t61.5 48t38 20.5q14 0 28.5 -8.5t14.5 -18.5q0 -16 -24.5 -47t-58.5 -63.5t-69.5 -60t-56.5 -38.5q-16 -8 -28.5 -10t-20.5 -2q-16 0 -41 18.5t-25 34.5z" />
<glyph unicode="&#xd4;" horiz-adv-x="825" d="M102 514q0 119 15.5 204t44.5 148q0 6 -7.5 12.5t-7.5 16.5t19.5 26.5t47.5 32t55.5 26.5t41.5 11q8 0 27.5 -8t50.5 -8q10 0 20.5 2t22.5 2q43 0 93 -40t94.5 -103.5t76 -144.5t41.5 -163q4 -27 5 -43t1 -32q0 -51 -13 -121t-45 -132.5t-84 -106.5t-132 -44 q-74 0 -139.5 42t-116.5 108.5t-81 149.5t-30 165zM125 1161q0 12 10 23q25 25 49.5 57.5t49 63t47 51t41.5 20.5q37 0 64.5 -29.5t55 -71.5t58 -86t75.5 -75q20 0 39 -8t19 -23q0 -10 -8.5 -18t-12.5 -12l-15 -7.5t-22 -5.5q-23 0 -43 8.5t-36 18.5q-35 18 -60.5 46 t-46 56.5t-37 55t-28.5 41.5q-29 -35 -64 -66t-84 -61q-16 -8 -22 -9q-14 0 -21.5 11.5t-7.5 19.5zM199 537q0 -23 12 -87.5t44 -133t85 -122t135 -53.5q55 0 90 34t54.5 83t27.5 101.5t8 89.5q0 39 -16 111.5t-49 143t-79 124t-103 53.5q-4 0 -15.5 1t-26 2t-26.5 2t-14 1 q-33 0 -56.5 -31t-39 -80t-23.5 -112.5t-8 -126.5z" />
<glyph unicode="&#xd5;" horiz-adv-x="825" d="M102 514q0 119 15.5 204t44.5 148q0 6 -7.5 12.5t-7.5 16.5t19.5 26.5t47.5 32t55.5 26.5t41.5 11q8 0 27.5 -8t50.5 -8q10 0 20.5 2t22.5 2q43 0 93 -40t94.5 -103.5t76 -144.5t41.5 -163q4 -27 5 -43t1 -32q0 -51 -13 -121t-45 -132.5t-84 -106.5t-132 -44 q-74 0 -139.5 42t-116.5 108.5t-81 149.5t-30 165zM119 1159q0 12 23.5 40t55 55.5t63.5 49t48 21.5q20 0 43 -25.5t45 -54.5q31 -39 53.5 -63.5t43.5 -24.5q23 0 28.5 23.5t5.5 44.5q0 4 -1 8t-1 8q16 16 27.5 21.5t26.5 5.5q25 0 39 -21t14 -33q0 -23 -8.5 -47 t-25.5 -45.5t-43 -36t-60 -14.5q-27 0 -55.5 14.5t-55.5 36t-50.5 49t-41.5 56.5l-111 -86q-16 -12 -32 -13q-23 0 -27 8.5t-4 22.5zM199 537q0 -23 12 -87.5t44 -133t85 -122t135 -53.5q55 0 90 34t54.5 83t27.5 101.5t8 89.5q0 39 -16 111.5t-49 143t-79 124t-103 53.5 q-4 0 -15.5 1t-26 2t-26.5 2t-14 1q-33 0 -56.5 -31t-39 -80t-23.5 -112.5t-8 -126.5z" />
<glyph unicode="&#xd6;" horiz-adv-x="825" d="M102 514q0 119 15.5 204t44.5 148q0 6 -7.5 12.5t-7.5 16.5t19.5 26.5t47.5 32t55.5 26.5t41.5 11q8 0 27.5 -8t50.5 -8q10 0 20.5 2t22.5 2q43 0 93 -40t94.5 -103.5t76 -144.5t41.5 -163q4 -27 5 -43t1 -32q0 -51 -13 -121t-45 -132.5t-84 -106.5t-132 -44 q-74 0 -139.5 42t-116.5 108.5t-81 149.5t-30 165zM147 1137q0 29 20.5 54.5t53.5 25.5q6 0 23.5 -5.5t36 -13.5t33 -18.5t14.5 -22.5q0 -4 -10.5 -16.5t-26 -25.5t-32.5 -23.5t-30 -10.5q-8 0 -21 1t-26.5 7.5t-24 17.5t-10.5 30zM199 537q0 -23 12 -87.5t44 -133t85 -122 t135 -53.5q55 0 90 34t54.5 83t27.5 101.5t8 89.5q0 39 -16 111.5t-49 143t-79 124t-103 53.5q-4 0 -15.5 1t-26 2t-26.5 2t-14 1q-33 0 -56.5 -31t-39 -80t-23.5 -112.5t-8 -126.5zM444 1165q0 8 4.5 21.5t12.5 26t19.5 21.5t25.5 9q27 0 50.5 -22.5t23.5 -57.5 q0 -12 -12.5 -23.5t-28 -20.5t-29.5 -14t-16 -5q-18 0 -27.5 9t-15 20.5t-6.5 21.5t-1 14z" />
<glyph unicode="&#xd7;" horiz-adv-x="757" d="M164 272q0 23 29.5 64t64.5 82t64.5 74.5t29.5 42.5q0 14 -5 25t-16.5 29.5t-29.5 49.5t-45 86q-4 8 -4 12q0 8 11 24.5t28 16.5q16 0 29.5 -13t17.5 -17q14 -18 29.5 -44t29 -50.5t21.5 -41t10 -14.5q16 18 30.5 37.5t30 36t32 28t34.5 11.5q8 0 14 -8.5t11.5 -19.5 t8.5 -21.5t3 -16.5q0 -14 -11.5 -23.5t-30 -21.5t-41 -29.5t-46.5 -48.5q27 -49 43 -74.5t26.5 -37t15.5 -14.5t9 -7q18 -25 18 -47q0 -14 -10 -21.5t-20 -7.5q-20 0 -38 5.5t-35 19.5t-36.5 42t-42.5 73q-27 -14 -51.5 -46t-51 -65t-54 -57.5t-58.5 -24.5q-6 0 -10 4t-4 8z " />
<glyph unicode="&#xd8;" horiz-adv-x="825" d="M102 514q0 119 15.5 204t44.5 148q0 6 -7.5 12.5t-7.5 16.5t19.5 26.5t47.5 32t55.5 26.5t41.5 11q8 0 27.5 -8t50.5 -8q10 0 20.5 2t22.5 2q23 0 48.5 -12.5t51.5 -34.5q27 61 49.5 99t34.5 38q4 0 11.5 -3t15.5 -7q12 -4 12 -25q0 -39 -20.5 -82t-36.5 -88 q51 -66 90 -154.5t49 -181.5q4 -27 5 -43t1 -32q0 -51 -13 -121t-45 -132.5t-84 -106.5t-132 -44q-78 0 -147 47q-41 -80 -93 -149q-16 -23 -20 -23q-6 0 -13.5 21.5t-7.5 25.5t58 150q2 12 10 26q-70 70 -112 168.5t-42 198.5zM199 537q0 -14 5 -47t15 -74t28.5 -85 t45.5 -83q25 68 53.5 142.5t56 152.5t53 153.5t42.5 143.5q-20 18 -43 29.5t-47 11.5q-4 0 -15.5 1t-26 2t-26.5 2t-14 1q-33 0 -56.5 -31t-39 -80t-23.5 -112.5t-8 -126.5zM360 178q25 -16 52.5 -26.5t62.5 -10.5q55 0 90 34t54.5 83t27.5 101.5t8 89.5q0 23 -6 59.5 t-17 78.5t-28.5 86t-40.5 83q-45 -141 -93 -292t-110 -286z" />
<glyph unicode="&#xd9;" horiz-adv-x="817" d="M45 1249q0 2 1 3t1 3q6 6 14 7q10 0 25.5 -7.5t30.5 -17.5q14 -10 42.5 -40t57.5 -63.5t53.5 -62.5t32.5 -35q2 -2 10.5 -4t18.5 -5t18 -7t8 -10q0 -16 -21.5 -39t-35.5 -23q-12 0 -39 15q-29 14 -65.5 54t-70.5 85t-57.5 87t-23.5 60zM98 643q0 76 7.5 108.5t48.5 32.5 q16 0 25 -11t9 -23q0 -115 16.5 -233t47.5 -215t77 -158.5t107 -61.5q27 0 47.5 19.5t33.5 46t19.5 51t8.5 37.5q-12 29 -25.5 76.5t-24 105t-16.5 119t-6 118.5q0 88 1 144.5t7 88.5t18.5 43t35.5 11q12 0 23 -7t18.5 -15.5t11.5 -16.5t4 -10q0 -8 -4 -13.5t-4 -13.5 q0 -16 5 -47t11 -63q12 -66 23.5 -150t11.5 -194v-86q0 -16 17.5 -66.5t78.5 -146.5q41 -66 77 -105t58 -61q14 -12 24.5 -23.5t10.5 -17.5q0 -25 -12 -32t-29 -7q-12 0 -33 4q-10 2 -29.5 19.5t-41.5 39.5q-25 25 -54 56l-102 116q-4 -6 -18.5 -25.5t-36 -41t-50 -37.5 t-61.5 -16q-23 0 -54.5 13t-64 37.5t-64.5 59.5t-54 78q-29 55 -48.5 115.5t-31 122t-15.5 122t-4 113.5zM561 700q0 -23 1 -54.5t4 -63t7.5 -61t10.5 -50.5q0 14 2 29q0 12 1 27.5t1 31.5v31q-2 12 -6 30.5t-9.5 37t-8.5 30.5z" />
<glyph unicode="&#xda;" horiz-adv-x="817" d="M98 643q0 76 7.5 108.5t48.5 32.5q16 0 25 -11t9 -23q0 -115 16.5 -233t47.5 -215t77 -158.5t107 -61.5q27 0 47.5 19.5t33.5 46t19.5 51t8.5 37.5q-12 29 -25.5 76.5t-24 105t-16.5 119t-6 118.5q0 88 1 144.5t7 88.5t18.5 43t35.5 11q12 0 23 -7t18.5 -15.5t11.5 -16.5 t4 -10q0 -8 -4 -13.5t-4 -13.5q0 -16 5 -47t11 -63q12 -66 23.5 -150t11.5 -194v-86q0 -16 17.5 -66.5t78.5 -146.5q41 -66 77 -105t58 -61q14 -12 24.5 -23.5t10.5 -17.5q0 -25 -12 -32t-29 -7q-12 0 -33 4q-10 2 -29.5 19.5t-41.5 39.5q-25 25 -54 56l-102 116 q-4 -6 -18.5 -25.5t-36 -41t-50 -37.5t-61.5 -16q-23 0 -54.5 13t-64 37.5t-64.5 59.5t-54 78q-29 55 -48.5 115.5t-31 122t-15.5 122t-4 113.5zM213 1022q0 4 18.5 11t40.5 20q20 12 54 39.5t68 55.5t61.5 48.5t38.5 20.5q14 0 28.5 -8.5t14.5 -18.5q0 -16 -25 -47 t-58.5 -63.5t-69.5 -60.5t-56 -38q-16 -8 -28.5 -10t-20.5 -2q-16 0 -41 18.5t-25 34.5zM561 700q0 -23 1 -54.5t4 -63t7.5 -61t10.5 -50.5q0 14 2 29q0 12 1 27.5t1 31.5v31q-2 12 -6 30.5t-9.5 37t-8.5 30.5z" />
<glyph unicode="&#xdb;" horiz-adv-x="817" d="M96 1137q0 12 10 22q25 25 49.5 57.5t49 63.5t47 51.5t41.5 20.5q37 0 64.5 -30t55 -72t58.5 -86t76 -74q20 0 38.5 -8.5t18.5 -22.5q0 -10 -8 -18.5t-12 -12.5q-4 -2 -15.5 -7t-21.5 -5q-23 0 -43.5 8t-36.5 18q-35 18 -60.5 46t-46 57t-37 55.5t-28.5 40.5 q-29 -35 -63.5 -65.5t-84.5 -61.5q-16 -8 -22 -8q-14 0 -21.5 11t-7.5 20zM98 643q0 76 7.5 108.5t48.5 32.5q16 0 25 -11t9 -23q0 -115 16.5 -233t47.5 -215t77 -158.5t107 -61.5q27 0 47.5 19.5t33.5 46t19.5 51t8.5 37.5q-12 29 -25.5 76.5t-24 105t-16.5 119t-6 118.5 q0 88 1 144.5t7 88.5t18.5 43t35.5 11q12 0 23 -7t18.5 -15.5t11.5 -16.5t4 -10q0 -8 -4 -13.5t-4 -13.5q0 -16 5 -47t11 -63q12 -66 23.5 -150t11.5 -194v-86q0 -16 17.5 -66.5t78.5 -146.5q41 -66 77 -105t58 -61q14 -12 24.5 -23.5t10.5 -17.5q0 -25 -12 -32t-29 -7 q-12 0 -33 4q-10 2 -29.5 19.5t-41.5 39.5q-25 25 -54 56l-102 116q-4 -6 -18.5 -25.5t-36 -41t-50 -37.5t-61.5 -16q-23 0 -54.5 13t-64 37.5t-64.5 59.5t-54 78q-29 55 -48.5 115.5t-31 122t-15.5 122t-4 113.5zM561 700q0 -23 1 -54.5t4 -63t7.5 -61t10.5 -50.5 q0 14 2 29q0 12 1 27.5t1 31.5v31q-2 12 -6 30.5t-9.5 37t-8.5 30.5z" />
<glyph unicode="&#xdc;" horiz-adv-x="817" d="M88 1061q0 29 20.5 54.5t53.5 25.5q6 0 23.5 -5.5t36 -13.5t32.5 -18.5t14 -22.5q0 -4 -10 -16t-25.5 -25.5t-33 -23.5t-29.5 -10q-8 0 -21.5 1t-26.5 7t-23.5 17t-10.5 30zM98 643q0 76 7.5 108.5t48.5 32.5q16 0 25 -11t9 -23q0 -115 16.5 -233t47.5 -215t77 -158.5 t107 -61.5q27 0 47.5 19.5t33.5 46t19.5 51t8.5 37.5q-12 29 -25.5 76.5t-24 105t-16.5 119t-6 118.5q0 88 1 144.5t7 88.5t18.5 43t35.5 11q12 0 23 -7t18.5 -15.5t11.5 -16.5t4 -10q0 -8 -4 -13.5t-4 -13.5q0 -16 5 -47t11 -63q12 -66 23.5 -150t11.5 -194v-86 q0 -16 17.5 -66.5t78.5 -146.5q41 -66 77 -105t58 -61q14 -12 24.5 -23.5t10.5 -17.5q0 -25 -12 -32t-29 -7q-12 0 -33 4q-10 2 -29.5 19.5t-41.5 39.5q-25 25 -54 56l-102 116q-4 -6 -18.5 -25.5t-36 -41t-50 -37.5t-61.5 -16q-23 0 -54.5 13t-64 37.5t-64.5 59.5t-54 78 q-29 55 -48.5 115.5t-31 122t-15.5 122t-4 113.5zM385 1090q0 8 4 21t12.5 25.5t19.5 21.5t25 9q27 0 50.5 -22.5t23.5 -57.5q0 -12 -12 -23t-27.5 -20.5t-30 -14.5t-16.5 -5q-18 0 -27.5 9t-14.5 20.5t-6 21.5t-1 15zM561 700q0 -23 1 -54.5t4 -63t7.5 -61t10.5 -50.5 q0 14 2 29q0 12 1 27.5t1 31.5v31q-2 12 -6 30.5t-9.5 37t-8.5 30.5z" />
<glyph unicode="&#xdd;" horiz-adv-x="643" d="M-18 1079q0 29 12 51.5t33 22.5q6 0 18 -15.5t30.5 -38t43 -50t55.5 -52.5q20 -18 57 -45.5t73 -54.5t62.5 -46.5t28.5 -19.5q8 0 10.5 16.5t2.5 20.5l10 123q10 104 25.5 189.5t15.5 148.5q0 6 -4 24.5t-4 24.5q0 12 8 19.5t18 11.5q12 6 29 8q29 0 41 -21.5t12 -39.5 q0 -74 -9 -143.5t-20.5 -139t-20.5 -142.5t-9 -153q0 -12 14 -25.5t35.5 -24.5t48 -22.5t51.5 -19.5q0 -29 -13 -41t-30 -12q-18 0 -35.5 6t-44.5 16l-30 13q-4 -10 -5.5 -25.5t-1.5 -26.5q0 -72 6.5 -155.5t14.5 -167.5t19.5 -164t19.5 -144.5t14 -108.5t6 -56v-51 q0 -23 -5 -41.5t-21 -18.5q-31 0 -52.5 50.5t-35 115t-19.5 124.5t-6 81q0 14 -5 69.5t-11 124t-11.5 139t-5.5 119.5q0 20 -1 46t-1 49v63q0 33 -46 68t-111.5 77t-135 96t-114.5 130q-6 2 -6 18zM170 1413q0 4 18.5 11.5t40.5 19.5q20 12 54 39.5t68 55.5t61.5 48.5 t38.5 20.5q14 0 28.5 -8.5t14.5 -18.5q0 -16 -25 -47t-58.5 -63.5t-69.5 -60.5t-56 -38q-16 -8 -28.5 -10t-20.5 -2q-16 0 -41 18.5t-25 34.5z" />
<glyph unicode="&#xde;" horiz-adv-x="770" d="M86 1149q0 18 6 47t29 29t38 -31t24.5 -78t14.5 -101t9 -104q63 20 122.5 31.5t106.5 11.5q94 0 145.5 -25.5t75 -57t27.5 -59.5t4 -32q0 -80 -50 -160.5t-113.5 -149.5t-122 -120t-76.5 -71l28 -95q23 -45 41.5 -102t18.5 -84q0 -23 -10.5 -45.5t-38.5 -22.5 q-20 0 -38 19.5t-18 44.5q0 4 1 7t1 7q-4 23 -32.5 101.5t-67.5 195.5q-10 33 -19.5 68t-15.5 65.5t-9 51t-3 24.5q0 8 -7 43t-18.5 108.5t-25 191.5t-27.5 292zM217 817q6 -55 13.5 -104t15.5 -99.5t19 -106.5t28 -128q37 35 87 85t97 105.5t80 112.5t33 104q0 6 -1 11.5 t-1 9.5q-4 23 -48 36t-108 13q-70 0 -130 -14.5t-85 -24.5z" />
<glyph unicode="&#xdf;" horiz-adv-x="1005" d="M94 760q0 74 17.5 155.5t55.5 150.5t95 113t137 44q37 0 79 -9.5t78 -24.5t62.5 -35.5t34.5 -45.5q2 -4 4 -15.5t2 -23.5q0 -14 -10 -14q-4 0 -10 2t-10 4q-18 8 -41 21.5t-49.5 26.5t-57 22.5t-63.5 9.5q-74 0 -119 -55.5t-68.5 -128t-30.5 -142.5t-7 -100 q0 -66 12 -123t30.5 -108.5t39 -96.5t36.5 -86q12 -29 39 -80t52.5 -111.5t46 -124t20.5 -116.5q0 -10 -5 -38t-14.5 -56.5t-25.5 -51t-37 -22.5q-16 0 -35.5 9t-19.5 32q0 33 16.5 61.5t16.5 61.5q0 35 -21.5 98.5t-48.5 129t-50.5 116.5t-29.5 61q-23 41 -44 97.5 t-38.5 121t-28 134t-10.5 137.5zM393 397q0 23 8.5 47.5t30.5 38.5q27 16 71 59.5t88 94.5t80 100t46 80q16 0 30.5 -14.5t14.5 -40.5q0 -49 -23.5 -92t-59.5 -81t-76 -72t-73 -64q43 20 101.5 42.5t97.5 22.5q10 0 41 -2t63.5 -11t58.5 -31.5t26 -61.5q0 -35 -14.5 -67 t-37 -59.5t-48 -51t-48.5 -39.5q-8 -6 -36.5 -28t-64.5 -44.5t-72 -39.5t-58 -17q-16 0 -24.5 15t-8.5 25q0 12 14.5 39t36.5 43q6 4 14.5 6.5t18.5 4.5q8 2 20 2q57 31 105 65q41 29 73.5 65t32.5 75q0 6 -19.5 12t-60.5 6t-84 -13.5t-81.5 -29.5t-69.5 -29.5t-49 -13.5 q-35 0 -49.5 19.5t-14.5 39.5z" />
<glyph unicode="&#xe0;" horiz-adv-x="997" d="M113 305q0 25 14 93.5t43 142t73 131t103 57.5q23 0 30 -19.5t7 -37.5v-62q10 -8 21.5 -11t20.5 -8t14 -15.5t5 -32.5q0 -14 -2 -25.5t-2 -21.5q0 -53 8.5 -104.5t33 -91.5t67.5 -65.5t115 -25.5q90 0 152.5 38t104.5 84t66.5 84t40.5 38q27 0 27 -27q0 -37 -34 -91 t-91.5 -105.5t-133 -87.5t-157.5 -36q-37 0 -78 12.5t-80 36t-69.5 57.5t-44.5 77q-12 -12 -30 -41t-38 -58.5t-45 -51t-51 -21.5q-27 0 -44.5 27.5t-27.5 61.5t-14 64.5t-4 34.5zM113 1116q0 2 1 3t1 3q6 6 14 6q10 0 25.5 -7t29.5 -17t43 -40t57.5 -63.5t53 -62.5 t33.5 -35q2 -2 10 -4t18.5 -5t18.5 -7t8 -10q0 -16 -21.5 -39t-35.5 -23q-12 0 -39 14q-29 14 -66 54.5t-70.5 85.5t-57 87t-23.5 60zM215 334q0 -14 8 -47t19 -43q35 72 64.5 139t29.5 133q0 8 -4 15.5t-4 13.5q0 8 4 14t4 16q0 6 -4 9.5t-4 7.5q-18 -4 -38 -35t-37 -72 t-27.5 -83t-10.5 -68z" />
<glyph unicode="&#xe1;" horiz-adv-x="997" d="M113 305q0 25 14 93.5t43 142t73 131t103 57.5q23 0 30 -19.5t7 -37.5v-62q10 -8 21.5 -11t20.5 -8t14 -15.5t5 -32.5q0 -14 -2 -25.5t-2 -21.5q0 -53 8.5 -104.5t33 -91.5t67.5 -65.5t115 -25.5q90 0 152.5 38t104.5 84t66.5 84t40.5 38q27 0 27 -27q0 -37 -34 -91 t-91.5 -105.5t-133 -87.5t-157.5 -36q-37 0 -78 12.5t-80 36t-69.5 57.5t-44.5 77q-12 -12 -30 -41t-38 -58.5t-45 -51t-51 -21.5q-27 0 -44.5 27.5t-27.5 61.5t-14 64.5t-4 34.5zM215 334q0 -14 8 -47t19 -43q35 72 64.5 139t29.5 133q0 8 -4 15.5t-4 13.5q0 8 4 14t4 16 q0 6 -4 9.5t-4 7.5q-18 -4 -38 -35t-37 -72t-27.5 -83t-10.5 -68zM268 864q0 4 18.5 11.5t41.5 19.5q20 12 54 40t67.5 55.5t61.5 48t38 20.5q14 0 28.5 -8.5t14.5 -18.5q0 -16 -24.5 -47t-58.5 -63.5t-70 -60t-56 -38.5q-16 -8 -28.5 -10t-20.5 -2q-16 0 -41 18.5t-25 34.5 z" />
<glyph unicode="&#xe2;" horiz-adv-x="997" d="M113 305q0 25 14 93.5t43 142t73 131t103 57.5q23 0 30 -19.5t7 -37.5v-62q10 -8 21.5 -11t20.5 -8t14 -15.5t5 -32.5q0 -14 -2 -25.5t-2 -21.5q0 -53 8.5 -104.5t33 -91.5t67.5 -65.5t115 -25.5q90 0 152.5 38t104.5 84t66.5 84t40.5 38q27 0 27 -27q0 -37 -34 -91 t-91.5 -105.5t-133 -87.5t-157.5 -36q-37 0 -78 12.5t-80 36t-69.5 57.5t-44.5 77q-12 -12 -30 -41t-38 -58.5t-45 -51t-51 -21.5q-27 0 -44.5 27.5t-27.5 61.5t-14 64.5t-4 34.5zM127 932q0 12 10 22q25 25 49.5 57.5t49 63.5t47 51.5t41.5 20.5q37 0 64.5 -30t55 -71.5 t58 -86t76.5 -74.5q20 0 38.5 -8.5t18.5 -22.5q0 -10 -8.5 -18.5l-12.5 -12.5q-4 -2 -15 -7t-21 -5q-23 0 -43.5 8t-36.5 19q-35 18 -60.5 45.5t-46 56.5t-37 55.5t-28.5 40.5q-29 -35 -64 -65.5t-84 -61.5q-16 -8 -22 -8q-14 0 -21.5 11.5t-7.5 19.5zM215 334q0 -14 8 -47 t19 -43q35 72 64.5 139t29.5 133q0 8 -4 15.5t-4 13.5q0 8 4 14t4 16q0 6 -4 9.5t-4 7.5q-18 -4 -38 -35t-37 -72t-27.5 -83t-10.5 -68z" />
<glyph unicode="&#xe3;" horiz-adv-x="997" d="M113 305q0 25 14 93.5t43 142t73 131t103 57.5q23 0 30 -19.5t7 -37.5v-62q10 -8 21.5 -11t20.5 -8t14 -15.5t5 -32.5q0 -14 -2 -25.5t-2 -21.5q0 -53 8.5 -104.5t33 -91.5t67.5 -65.5t115 -25.5q90 0 152.5 38t104.5 84t66.5 84t40.5 38q27 0 27 -27q0 -37 -34 -91 t-91.5 -105.5t-133 -87.5t-157.5 -36q-37 0 -78 12.5t-80 36t-69.5 57.5t-44.5 77q-12 -12 -30 -41t-38 -58.5t-45 -51t-51 -21.5q-27 0 -44.5 27.5t-27.5 61.5t-14 64.5t-4 34.5zM158 915q0 12 23.5 40t55 55.5t63.5 49t48 21.5q20 0 43 -25.5t45 -54.5q31 -39 53.5 -63.5 t42.5 -24.5q23 0 29 24t6 44q0 4 -1 8t-1 8q16 16 27.5 21.5t25.5 5.5q25 0 39.5 -20.5t14.5 -32.5q0 -23 -8.5 -47.5t-25.5 -46t-43 -36t-60 -14.5q-27 0 -55.5 14.5t-55.5 36t-50.5 49t-41.5 56.5l-111 -86q-16 -12 -33 -12q-23 0 -26.5 8t-3.5 22zM215 334q0 -14 8 -47 t19 -43q35 72 64.5 139t29.5 133q0 8 -4 15.5t-4 13.5q0 8 4 14t4 16q0 6 -4 9.5t-4 7.5q-18 -4 -38 -35t-37 -72t-27.5 -83t-10.5 -68z" />
<glyph unicode="&#xe4;" horiz-adv-x="997" d="M84 883q0 29 20.5 54.5t53.5 25.5q6 0 23.5 -5.5t36 -13.5t32.5 -18.5t14 -22.5q0 -4 -10 -16.5t-25.5 -25.5t-33 -23.5t-29.5 -10.5q-8 0 -21.5 1t-27 7.5t-23.5 17.5t-10 30zM113 305q0 25 14 93.5t43 142t73 131t103 57.5q23 0 30 -19.5t7 -37.5v-62q10 -8 21.5 -11 t20.5 -8t14 -15.5t5 -32.5q0 -14 -2 -25.5t-2 -21.5q0 -53 8.5 -104.5t33 -91.5t67.5 -65.5t115 -25.5q90 0 152.5 38t104.5 84t66.5 84t40.5 38q27 0 27 -27q0 -37 -34 -91t-91.5 -105.5t-133 -87.5t-157.5 -36q-37 0 -78 12.5t-80 36t-69.5 57.5t-44.5 77q-12 -12 -30 -41 t-38 -58.5t-45 -51t-51 -21.5q-27 0 -44.5 27.5t-27.5 61.5t-14 64.5t-4 34.5zM215 334q0 -14 8 -47t19 -43q35 72 64.5 139t29.5 133q0 8 -4 15.5t-4 13.5q0 8 4 14t4 16q0 6 -4 9.5t-4 7.5q-18 -4 -38 -35t-37 -72t-27.5 -83t-10.5 -68zM381 911q0 8 4 21.5t12.5 26 t19.5 21.5t25 9q27 0 50.5 -22.5t23.5 -57.5q0 -12 -12 -23.5t-27.5 -20.5t-30 -14t-16.5 -5q-18 0 -27.5 9t-14.5 20.5t-6 21.5t-1 14z" />
<glyph unicode="&#xe5;" horiz-adv-x="997" d="M113 305q0 25 14 93.5t43 142t73 131t103 57.5q23 0 30 -19.5t7 -37.5v-62q10 -8 21.5 -11t20.5 -8t14 -15.5t5 -32.5q0 -14 -2 -25.5t-2 -21.5q0 -53 8.5 -104.5t33 -91.5t67.5 -65.5t115 -25.5q90 0 152.5 38t104.5 84t66.5 84t40.5 38q27 0 27 -27q0 -37 -34 -91 t-91.5 -105.5t-133 -87.5t-157.5 -36q-37 0 -78 12.5t-80 36t-69.5 57.5t-44.5 77q-12 -12 -30 -41t-38 -58.5t-45 -51t-51 -21.5q-27 0 -44.5 27.5t-27.5 61.5t-14 64.5t-4 34.5zM215 334q0 -14 8 -47t19 -43q35 72 64.5 139t29.5 133q0 8 -4 15.5t-4 13.5q0 8 4 14t4 16 q0 6 -4 9.5t-4 7.5q-18 -4 -38 -35t-37 -72t-27.5 -83t-10.5 -68zM240 891q0 33 17 70.5t45 69.5t61.5 52.5t68.5 20.5q18 0 46 -16.5t28 -32.5q0 -2 -8.5 -13.5t-20.5 -21.5q16 -16 17 -45q0 -14 -10.5 -42t-30 -54.5t-48 -46t-65.5 -19.5q-53 0 -76.5 24.5t-23.5 53.5z M330 918q0 -23 14 -23q16 0 29.5 11.5t24 26.5t15.5 32.5t5 29.5q0 9 -6 13q-2 0 -3 1t-3 1q-8 0 -21.5 -9.5t-26 -23.5t-20.5 -30.5t-8 -28.5z" />
<glyph unicode="&#xe6;" horiz-adv-x="1071" d="M88 678q0 12 18 37q12 16 62.5 38.5t124.5 22.5q59 0 114.5 -33.5t92.5 -101.5q33 86 84 140.5t100 54.5q33 0 66.5 -13.5t61.5 -34t44 -46t16 -52.5q0 -31 -27.5 -63.5t-66.5 -60t-77.5 -45t-61.5 -17.5q-12 0 -21.5 11t-9.5 28q0 29 25.5 45t56.5 29.5t56.5 32 t25.5 50.5q0 4 -10 20.5t-55 16.5q-20 0 -47 -23.5t-51.5 -63.5t-41 -94t-16.5 -118q0 -53 19.5 -96t50 -72.5t71.5 -46t84 -16.5q31 0 67 13t67.5 28.5t55 29t29.5 13.5t13.5 -6.5t9.5 -12.5q2 -4 2 -12q0 -12 -19 -37q-6 -8 -26.5 -26.5t-55 -37t-85 -32.5t-117.5 -14 q-59 0 -115.5 33.5t-91.5 103.5q-35 -88 -92.5 -142.5t-120.5 -54.5q-80 0 -126 49.5t-46 161.5q0 61 27.5 103.5t66.5 68t78 37.5t61 12q12 0 21.5 -11t9.5 -28q0 -29 -27.5 -37t-59.5 -19t-59.5 -38.5t-27.5 -97.5q0 -53 29.5 -77.5t58.5 -24.5q20 0 47 23.5t51.5 63.5 t41 94t16.5 118q0 53 -19.5 96t-50.5 72.5t-72 46t-84 16.5q-16 0 -34.5 -5t-36 -12.5t-30.5 -12.5t-19 -5q-10 0 -17.5 9.5t-7.5 21.5z" />
<glyph unicode="&#xe7;" horiz-adv-x="753" d="M92 297q0 98 33 178t65 127q14 23 38 46.5t46.5 43t42 31.5t27.5 12q18 0 33.5 -10t15.5 -20q0 -16 -9 -27.5t-25.5 -25t-39 -35t-47.5 -56.5q-49 -68 -72.5 -138.5t-23.5 -123.5t40 -85t83 -32q78 0 138.5 35t103.5 78t69.5 78t38.5 35q23 0 23 -35q0 -20 -6.5 -42 t-12.5 -36q-4 -6 -33.5 -38t-75.5 -68.5t-103.5 -69.5t-112.5 -41l-21 -23l-26.5 -26.5t-20.5 -36.5q4 -8 13.5 -10t19.5 -2q6 0 35.5 2t42.5 2q14 0 48 -5.5t69.5 -20.5t62.5 -43t27 -73q0 -37 -29 -62.5t-66 -43t-70.5 -25.5t-43.5 -8q-35 0 -60.5 26.5t-25.5 61.5 q0 6 10 6t25.5 -4t29.5 -4q4 0 24.5 5t44 14.5t43 21.5t19.5 29q0 10 -11 19t-27.5 15.5t-34 10.5t-31.5 4q-27 0 -40 -2t-38 -2q-14 0 -35.5 2t-42 11t-35 24.5t-14.5 44.5q0 12 18.5 41.5t44.5 58.5q-53 18 -97 68.5t-44 142.5z" />
<glyph unicode="&#xe8;" horiz-adv-x="714" d="M98 391q0 80 20.5 149.5t52.5 123t71 84t75 30.5q33 0 67 -13t61.5 -33.5t44 -46.5t16.5 -52q0 -31 -27.5 -63.5t-66.5 -60.5t-78 -45.5t-62 -17.5q-12 0 -21 11.5t-9 27.5q0 29 25.5 45.5t56 29.5t56.5 31.5t26 51.5q0 4 -10.5 20.5t-55.5 16.5q-20 0 -47 -23.5 t-51.5 -63.5t-41 -94.5t-16.5 -117.5q0 -53 19.5 -96t50.5 -73t72 -46t84 -16q31 0 66.5 13t67 28.5t55.5 28.5t30 13t13 -6t9 -12q2 -4 2 -12q0 -12 -18 -37q-6 -8 -26.5 -26.5t-55.5 -37t-85 -33t-118 -14.5q-47 0 -92 21.5t-80 63.5t-57.5 104.5t-22.5 146.5zM100 1145 q0 2 1 3t1 3q6 6 15 6q10 0 25.5 -7t29.5 -17t43 -40t57.5 -64t53 -62.5t32.5 -34.5q2 -2 10.5 -4t18.5 -5t18.5 -7.5t8.5 -10.5q0 -16 -21.5 -38.5t-36.5 -22.5q-12 0 -39 14q-29 14 -65.5 54t-70.5 85t-57.5 87t-23.5 61z" />
<glyph unicode="&#xe9;" horiz-adv-x="714" d="M98 391q0 80 20.5 149.5t52.5 123t71 84t75 30.5q33 0 67 -13t61.5 -33.5t44 -46.5t16.5 -52q0 -31 -27.5 -63.5t-66.5 -60.5t-78 -45.5t-62 -17.5q-12 0 -21 11.5t-9 27.5q0 29 25.5 45.5t56 29.5t56.5 31.5t26 51.5q0 4 -10.5 20.5t-55.5 16.5q-20 0 -47 -23.5 t-51.5 -63.5t-41 -94.5t-16.5 -117.5q0 -53 19.5 -96t50.5 -73t72 -46t84 -16q31 0 66.5 13t67 28.5t55.5 28.5t30 13t13 -6t9 -12q2 -4 2 -12q0 -12 -18 -37q-6 -8 -26.5 -26.5t-55.5 -37t-85 -33t-118 -14.5q-47 0 -92 21.5t-80 63.5t-57.5 104.5t-22.5 146.5zM211 913 q0 4 18.5 11.5t40.5 19.5q20 12 54 40t68 55.5t61.5 48t38.5 20.5q14 0 28.5 -8.5t14.5 -18.5q0 -16 -25 -46.5t-58.5 -63.5t-69.5 -60.5t-56 -38.5q-16 -8 -28.5 -10t-21.5 -2q-16 0 -40.5 18.5t-24.5 34.5z" />
<glyph unicode="&#xea;" horiz-adv-x="714" d="M98 391q0 80 20.5 149.5t52.5 123t71 84t75 30.5q33 0 67 -13t61.5 -33.5t44 -46.5t16.5 -52q0 -31 -27.5 -63.5t-66.5 -60.5t-78 -45.5t-62 -17.5q-12 0 -21 11.5t-9 27.5q0 29 25.5 45.5t56 29.5t56.5 31.5t26 51.5q0 4 -10.5 20.5t-55.5 16.5q-20 0 -47 -23.5 t-51.5 -63.5t-41 -94.5t-16.5 -117.5q0 -53 19.5 -96t50.5 -73t72 -46t84 -16q31 0 66.5 13t67 28.5t55.5 28.5t30 13t13 -6t9 -12q2 -4 2 -12q0 -12 -18 -37q-6 -8 -26.5 -26.5t-55.5 -37t-85 -33t-118 -14.5q-47 0 -92 21.5t-80 63.5t-57.5 104.5t-22.5 146.5zM143 932 q0 12 11 22q25 25 49 57.5t48.5 63.5t47.5 51.5t41 20.5q37 0 64.5 -30t55 -71.5t58.5 -86t76 -74.5q20 0 38.5 -8.5t18.5 -22.5q0 -10 -8 -18.5t-12 -12.5q-4 -2 -15.5 -7t-21.5 -5q-23 0 -43.5 8t-36.5 19q-35 18 -60.5 45.5t-46 56.5t-37 55.5t-28.5 40.5 q-29 -35 -63.5 -65.5t-83.5 -61.5q-16 -8 -23 -8q-14 0 -21.5 11.5t-7.5 19.5z" />
<glyph unicode="&#xeb;" horiz-adv-x="714" d="M98 391q0 80 20.5 149.5t52.5 123t71 84t75 30.5q33 0 67 -13t61.5 -33.5t44 -46.5t16.5 -52q0 -31 -27.5 -63.5t-66.5 -60.5t-78 -45.5t-62 -17.5q-12 0 -21 11.5t-9 27.5q0 29 25.5 45.5t56 29.5t56.5 31.5t26 51.5q0 4 -10.5 20.5t-55.5 16.5q-20 0 -47 -23.5 t-51.5 -63.5t-41 -94.5t-16.5 -117.5q0 -53 19.5 -96t50.5 -73t72 -46t84 -16q31 0 66.5 13t67 28.5t55.5 28.5t30 13t13 -6t9 -12q2 -4 2 -12q0 -12 -18 -37q-6 -8 -26.5 -26.5t-55.5 -37t-85 -33t-118 -14.5q-47 0 -92 21.5t-80 63.5t-57.5 104.5t-22.5 146.5zM133 926 q0 29 20.5 54.5t53.5 25.5q6 0 23.5 -5.5t36 -13.5t32.5 -18.5t14 -22.5q0 -4 -10 -16t-25.5 -25.5t-33 -24t-29.5 -10.5q-8 0 -21.5 1t-26.5 7.5t-23.5 17.5t-10.5 30zM430 954q0 8 4 21.5t12.5 26t19.5 21.5t26 9q27 0 50 -22.5t23 -57.5q0 -12 -12 -23t-27.5 -20.5 t-30 -14.5t-16.5 -5q-18 0 -27.5 9t-14.5 20.5t-6 21.5t-1 14z" />
<glyph unicode="&#xec;" horiz-adv-x="317" d="M-229 1116q0 2 1 3t1 3q6 6 14 6q10 0 25.5 -7t29.5 -17t43 -40t57.5 -63.5t53 -62.5t33.5 -35q2 -2 10 -4t18.5 -5t18.5 -7t8 -10q0 -16 -21.5 -39t-35.5 -23q-12 0 -39 14q-29 14 -66 54.5t-70.5 85.5t-57 87t-23.5 60zM61 514q0 29 11.5 53.5t27.5 24.5q18 0 39 -28.5 t40.5 -73t35.5 -96.5t28.5 -98t19.5 -80t7 -40q0 -14 -21.5 -24.5t-31.5 -10.5q-20 0 -36.5 27t-29 61.5t-20.5 66.5t-12 44q-6 20 -16.5 49t-19.5 55.5t-15.5 47t-6.5 22.5z" />
<glyph unicode="&#xed;" horiz-adv-x="317" d="M-2 864q0 4 18.5 11.5t40.5 19.5q20 12 54 40t68 55.5t61.5 48t38.5 20.5q14 0 28.5 -8.5t14.5 -18.5q0 -16 -25 -47t-58.5 -63.5t-69.5 -60t-56 -38.5q-16 -8 -28.5 -10t-21.5 -2q-16 0 -40.5 18.5t-24.5 34.5zM61 514q0 29 11.5 53.5t27.5 24.5q18 0 39 -28.5t40.5 -73 t35.5 -96.5t28.5 -98t19.5 -80t7 -40q0 -14 -21.5 -24.5t-31.5 -10.5q-20 0 -36.5 27t-29 61.5t-20.5 66.5t-12 44q-6 20 -16.5 49t-19.5 55.5t-15.5 47t-6.5 22.5z" />
<glyph unicode="&#xee;" horiz-adv-x="317" d="M-170 932q0 12 10 22q25 25 49.5 57.5t49 63.5t47 51.5t41.5 20.5q37 0 64.5 -30t55 -71.5t58.5 -86t76 -74.5q20 0 38.5 -8.5t18.5 -22.5q0 -10 -8.5 -18.5l-12.5 -12.5q-4 -2 -15 -7t-21 -5q-23 0 -43.5 8t-36.5 19q-35 18 -60.5 45.5t-46 56.5t-37 55.5t-28.5 40.5 q-29 -35 -64 -65.5t-84 -61.5q-16 -8 -22 -8q-14 0 -21.5 11.5t-7.5 19.5zM61 514q0 29 11.5 53.5t27.5 24.5q18 0 39 -28.5t40.5 -73t35.5 -96.5t28.5 -98t19.5 -80t7 -40q0 -14 -21.5 -24.5t-31.5 -10.5q-20 0 -36.5 27t-29 61.5t-20.5 66.5t-12 44q-6 20 -16.5 49 t-19.5 55.5t-15.5 47t-6.5 22.5z" />
<glyph unicode="&#xef;" horiz-adv-x="317" d="M-178 883q0 29 20.5 54.5t53.5 25.5q6 0 23.5 -5.5t35.5 -13.5t32.5 -18.5t14.5 -22.5q0 -4 -10 -16.5t-25.5 -25.5t-33 -23.5t-29.5 -10.5q-8 0 -21.5 1t-27 7.5t-23.5 17.5t-10 30zM61 514q0 29 11.5 53.5t27.5 24.5q18 0 39 -28.5t40.5 -73t35.5 -96.5t28.5 -98 t19.5 -80t7 -40q0 -14 -21.5 -24.5t-31.5 -10.5q-20 0 -36.5 27t-29 61.5t-20.5 66.5t-12 44q-6 20 -16.5 49t-19.5 55.5t-15.5 47t-6.5 22.5zM119 911q0 8 4 21.5t12 26t19.5 21.5t25.5 9q27 0 50.5 -22.5t23.5 -57.5q0 -12 -12.5 -23.5t-27.5 -20.5t-29.5 -14t-16.5 -5 q-18 0 -27.5 9t-14.5 20.5t-6 21.5t-1 14z" />
<glyph unicode="&#xf0;" horiz-adv-x="684" d="M102 463q0 37 6.5 72.5t25 64.5t50 46.5t82.5 17.5q23 0 52.5 -12.5t58.5 -31t53.5 -42t36.5 -46.5q-2 104 -29.5 229.5t-77.5 237.5q-35 -29 -65.5 -49t-46.5 -30q-18 -10 -34.5 -12.5t-25.5 -2.5q-20 0 -46.5 19.5t-28.5 38.5l20 6l51 26q16 10 54 39t75 58 q-29 51 -63.5 94t-73.5 71q-12 10 -23.5 18.5t-11.5 18.5t18.5 26.5t59.5 16.5t87 -51t87 -131q43 35 80 62.5t47 27.5q16 0 30.5 -6t14.5 -14q0 -23 -39 -68t-92 -92q27 -66 51.5 -138.5t41 -143t26.5 -136t10 -119.5v-133q0 -8 2 -19t6 -22q4 -10 12.5 -34.5t8.5 -26.5 q0 -8 -5 -22.5t-13.5 -28t-16.5 -23.5t-16 -10t-20.5 11t-24.5 11q-10 0 -25 -22q-20 -37 -61 -61.5t-76 -24.5q-31 0 -72 33.5t-75.5 85t-59.5 111t-25 110.5zM195 477q0 -29 14 -69.5t36.5 -79.5t52.5 -65.5t58 -26.5q12 0 31 15t34 36.5t26.5 44t11.5 37.5q0 16 -20.5 49 t-51.5 64.5t-65.5 56t-65.5 24.5q-35 0 -48 -21.5t-13 -64.5z" />
<glyph unicode="&#xf1;" horiz-adv-x="720" d="M96 592q0 20 2 54t13 59q2 4 15 16t30 12q14 0 16 -18.5t2 -40.5v-324q0 -10 3 -28.5t9 -26.5q23 49 42.5 115.5t38 127t37 102.5t36.5 42q20 0 32.5 -8t20.5 -33q10 -59 16.5 -105.5t15.5 -83t26.5 -68.5t48.5 -58q29 -27 64.5 -39.5t62.5 -12.5q12 0 26.5 5.5t20.5 5.5 q8 0 15 -14.5t7 -18.5q0 -12 -8 -24.5t-19.5 -22.5t-24.5 -17.5t-23 -7.5q-35 0 -89.5 15.5t-87.5 48.5q-35 35 -61.5 83t-58.5 142q-23 -90 -52.5 -178t-95.5 -162q-4 -4 -12 -4q-14 0 -30.5 14.5t-16.5 28.5t-3 66.5t-7.5 117t-7.5 131t-3 109.5zM102 915q0 12 24 40 t55.5 55.5t63 49t48.5 21.5q20 0 42.5 -25.5t45.5 -54.5q31 -39 53.5 -63.5t42.5 -24.5q23 0 29 24t6 44q0 4 -1 8t-1 8q16 16 27.5 21.5t25.5 5.5q25 0 39 -20.5t14 -32.5q0 -23 -8 -47.5t-25.5 -46t-43 -36t-60.5 -14.5q-27 0 -55.5 14.5t-55 36t-50 49t-42.5 56.5 l-110 -86q-16 -12 -33 -12q-23 0 -27 8t-4 22z" />
<glyph unicode="&#xf2;" horiz-adv-x="573" d="M61 1122q0 2 1 3t1 3q6 6 15 7q10 0 25.5 -7.5t29.5 -17.5t43 -40t57.5 -63.5t53 -62.5t32.5 -35q2 -2 10.5 -4t18.5 -5t18.5 -7t8.5 -10q0 -16 -21.5 -39t-36.5 -23q-12 0 -38 15q-29 14 -66 54t-70.5 85t-57.5 87t-24 60zM127 481q0 37 11.5 83t30.5 85t44 65.5 t51 26.5q6 0 19.5 -4t28 -12t25.5 -20.5t15 -28.5q23 -2 45.5 -16.5t24.5 -22.5q16 -53 21.5 -106.5t5.5 -88.5q0 -45 -12.5 -86t-33 -71.5t-48 -48t-60.5 -17.5q-57 0 -90 33t-50.5 76t-22.5 87t-5 66zM221 473q0 -23 2 -50.5t9.5 -52t19.5 -42t33 -17.5q20 0 34.5 21.5 t22.5 50.5t11 56.5t3 39.5q0 31 -6 65t-24 68q-4 -2 -11 -2q-8 0 -13 2t-9 2q-25 0 -39 -13t-21.5 -34.5t-9.5 -46t-2 -47.5z" />
<glyph unicode="&#xf3;" horiz-adv-x="573" d="M127 481q0 37 11.5 83t30.5 85t44 65.5t51 26.5q6 0 19.5 -4t28 -12t25.5 -20.5t15 -28.5q23 -2 45.5 -16.5t24.5 -22.5q16 -53 21.5 -106.5t5.5 -88.5q0 -45 -12.5 -86t-33 -71.5t-48 -48t-60.5 -17.5q-57 0 -90 33t-50.5 76t-22.5 87t-5 66zM193 872q0 4 18 11.5 t41 19.5q20 12 54 40t68 55.5t61.5 48t37.5 20.5q14 0 28.5 -8.5t14.5 -18.5q0 -16 -24.5 -46.5t-58.5 -63.5t-69.5 -60.5t-56.5 -38.5q-16 -8 -28.5 -10t-20.5 -2q-16 0 -40.5 18.5t-24.5 34.5zM221 473q0 -23 2 -50.5t9.5 -52t19.5 -42t33 -17.5q20 0 34.5 21.5t22.5 50.5 t11 56.5t3 39.5q0 31 -6 65t-24 68q-4 -2 -11 -2q-8 0 -13 2t-9 2q-25 0 -39 -13t-21.5 -34.5t-9.5 -46t-2 -47.5z" />
<glyph unicode="&#xf4;" horiz-adv-x="573" d="M88 932q0 12 10 22q25 25 49.5 57.5t49 63.5t47 51.5t41.5 20.5q37 0 64.5 -30t55 -71.5t58.5 -86t76 -74.5q20 0 38.5 -8.5t18.5 -22.5q0 -10 -8.5 -18.5l-12.5 -12.5q-4 -2 -15 -7t-21 -5q-23 0 -43.5 8t-36.5 19q-35 18 -60.5 45.5t-46 56.5t-37 55.5t-28.5 40.5 q-29 -35 -64 -65.5t-84 -61.5q-16 -8 -22 -8q-14 0 -21.5 11.5t-7.5 19.5zM127 481q0 37 11.5 83t30.5 85t44 65.5t51 26.5q6 0 19.5 -4t28 -12t25.5 -20.5t15 -28.5q23 -2 45.5 -16.5t24.5 -22.5q16 -53 21.5 -106.5t5.5 -88.5q0 -45 -12.5 -86t-33 -71.5t-48 -48 t-60.5 -17.5q-57 0 -90 33t-50.5 76t-22.5 87t-5 66zM221 473q0 -23 2 -50.5t9.5 -52t19.5 -42t33 -17.5q20 0 34.5 21.5t22.5 50.5t11 56.5t3 39.5q0 31 -6 65t-24 68q-4 -2 -11 -2q-8 0 -13 2t-9 2q-25 0 -39 -13t-21.5 -34.5t-9.5 -46t-2 -47.5z" />
<glyph unicode="&#xf5;" horiz-adv-x="573" d="M31 915q0 12 23.5 40t55 55.5t63.5 49t48 21.5q20 0 43 -25.5t45 -54.5q31 -39 53.5 -63.5t43.5 -24.5q23 0 28.5 24t5.5 44q0 4 -1 8t-1 8q16 16 27.5 21.5t26.5 5.5q25 0 39 -20.5t14 -32.5q0 -23 -8.5 -47.5t-25.5 -46t-43 -36t-60 -14.5q-27 0 -55.5 14.5t-55.5 36 t-50.5 49t-41.5 56.5l-111 -86q-16 -12 -33 -12q-23 0 -26.5 8t-3.5 22zM127 481q0 37 11.5 83t30.5 85t44 65.5t51 26.5q6 0 19.5 -4t28 -12t25.5 -20.5t15 -28.5q23 -2 45.5 -16.5t24.5 -22.5q16 -53 21.5 -106.5t5.5 -88.5q0 -45 -12.5 -86t-33 -71.5t-48 -48 t-60.5 -17.5q-57 0 -90 33t-50.5 76t-22.5 87t-5 66zM221 473q0 -23 2 -50.5t9.5 -52t19.5 -42t33 -17.5q20 0 34.5 21.5t22.5 50.5t11 56.5t3 39.5q0 31 -6 65t-24 68q-4 -2 -11 -2q-8 0 -13 2t-9 2q-25 0 -39 -13t-21.5 -34.5t-9.5 -46t-2 -47.5z" />
<glyph unicode="&#xf6;" horiz-adv-x="573" d="M70 883q0 29 20.5 54.5t52.5 25.5q6 0 23.5 -5.5t36 -13.5t33 -18.5t14.5 -22.5q0 -4 -10.5 -16.5t-25.5 -25.5t-32.5 -23.5t-29.5 -10.5q-8 0 -21.5 1t-27 7.5t-23.5 17.5t-10 30zM127 481q0 37 11.5 83t30.5 85t44 65.5t51 26.5q6 0 19.5 -4t28 -12t25.5 -20.5 t15 -28.5q23 -2 45.5 -16.5t24.5 -22.5q16 -53 21.5 -106.5t5.5 -88.5q0 -45 -12.5 -86t-33 -71.5t-48 -48t-60.5 -17.5q-57 0 -90 33t-50.5 76t-22.5 87t-5 66zM221 473q0 -23 2 -50.5t9.5 -52t19.5 -42t33 -17.5q20 0 34.5 21.5t22.5 50.5t11 56.5t3 39.5q0 31 -6 65 t-24 68q-4 -2 -11 -2q-8 0 -13 2t-9 2q-25 0 -39 -13t-21.5 -34.5t-9.5 -46t-2 -47.5zM367 911q0 8 4 21.5t12 26t19.5 21.5t25.5 9q27 0 50.5 -22.5t23.5 -57.5q0 -12 -12.5 -23.5t-28 -20.5t-29.5 -14t-16 -5q-18 0 -27.5 9t-14.5 20.5t-6 21.5t-1 14z" />
<glyph unicode="&#xf7;" horiz-adv-x="733" d="M78 401q0 20 14 34t33.5 21t37 11t23.5 4q68 8 103 7t63 3q59 8 126 27.5t112 19.5q23 0 32 -11t9 -21q0 -12 -7.5 -26.5t-17.5 -18.5q-16 -6 -75.5 -19.5t-147.5 -23.5q-29 -4 -73 -6.5t-99 -8.5q-10 -2 -43 -13t-55 -11q-14 0 -24.5 6t-10.5 26zM287 215 q0 41 23.5 72.5t51.5 31.5q8 0 20.5 -8t23 -20t18.5 -27.5t8 -27.5q0 -23 -25.5 -42.5t-68.5 -19.5q-16 0 -33.5 10.5t-17.5 30.5zM289 629q0 8 4 21.5t12 25.5t19.5 21.5t25.5 9.5q27 0 50.5 -22.5t23.5 -57.5q0 -12 -12.5 -23.5t-27.5 -21t-29.5 -14.5t-16.5 -5 q-18 0 -27.5 9.5t-14.5 20.5t-6 21.5t-1 14.5z" />
<glyph unicode="&#xf8;" horiz-adv-x="819" d="M113 365q0 49 12 97t25.5 90t25.5 74.5t12 53.5q0 4 -1 10t-1 12q0 18 22.5 30.5t33.5 12.5q14 0 40.5 -7t36.5 -7h23.5t28.5 2l32 4q10 0 24.5 -1t31.5 -3q33 94 64.5 158.5t47.5 64.5q4 0 11.5 -3t15.5 -7q10 -6 10 -22t-9 -44t-20.5 -60t-23.5 -61.5t-18 -47.5 q55 -23 100 -75.5t45 -148.5q0 -86 -21.5 -148.5t-53.5 -106.5t-71.5 -71.5t-76.5 -43t-67 -21.5t-42 -6q-23 0 -33 2q-51 -100 -108 -180q-16 -20 -19 -21q-6 0 -13 19.5t-7 23.5t55 140l19 47q-57 35 -94 98.5t-37 145.5zM211 406q0 -47 12 -103.5t53 -89.5q37 102 78 218 t76 220q-6 2 -20 2q-41 0 -72 -6t-66 -6q-6 -18 -16 -49t-20.5 -64.5t-17.5 -65.5t-7 -56zM360 186q55 0 98.5 23.5t73 64.5t44 95.5t14.5 113.5q0 53 -22.5 89t-57.5 55q-33 -111 -70 -224t-80 -217z" />
<glyph unicode="&#xf9;" d="M29 1116q0 2 1 3t1 3q6 6 14 6q10 0 25.5 -7t29.5 -17t43 -40t57.5 -63.5t53.5 -62.5t33 -35q2 -2 10 -4t18.5 -5t18.5 -7t8 -10q0 -16 -21.5 -39t-35.5 -23q-12 0 -39 14q-29 14 -66 54.5t-70.5 85.5t-57 87t-23.5 60zM90 604q0 14 15.5 23.5t23.5 9.5q29 0 39 -19.5 t10 -42.5q0 -18 11.5 -65t27.5 -96t34.5 -87t33.5 -38q27 0 46 33.5t31.5 77.5t18.5 84t6 53q0 2 1 13t3 23.5t3 22.5t1 14q0 14 -6 19.5t-6 21.5q0 12 12.5 23.5t53.5 11.5q16 0 25 -9t13.5 -21.5t5.5 -23.5t1 -16q0 -2 -2.5 -28.5t-3.5 -58t-3 -60.5t-2 -35t6.5 -24.5 t15.5 -38t21.5 -34.5t26.5 -15q25 0 46.5 7t40.5 16t35.5 16.5t31.5 7.5q18 0 33.5 -8.5t15.5 -20.5q0 -18 -24.5 -38.5t-57.5 -38t-67 -30t-50 -12.5q-18 0 -39.5 10.5t-41 24.5t-34 26.5t-18.5 16.5q-6 -6 -18.5 -24.5t-30 -40t-37 -38t-39.5 -16.5q-53 0 -92 57.5 t-64.5 131t-39 142.5t-13.5 93z" />
<glyph unicode="&#xfa;" d="M90 604q0 14 15.5 23.5t23.5 9.5q29 0 39 -19.5t10 -42.5q0 -18 11.5 -65t27.5 -96t34.5 -87t33.5 -38q27 0 46 33.5t31.5 77.5t18.5 84t6 53q0 2 1 13t3 23.5t3 22.5t1 14q0 14 -6 19.5t-6 21.5q0 12 12.5 23.5t53.5 11.5q16 0 25 -9t13.5 -21.5t5.5 -23.5t1 -16 q0 -2 -2.5 -28.5t-3.5 -58t-3 -60.5t-2 -35t6.5 -24.5t15.5 -38t21.5 -34.5t26.5 -15q25 0 46.5 7t40.5 16t35.5 16.5t31.5 7.5q18 0 33.5 -8.5t15.5 -20.5q0 -18 -24.5 -38.5t-57.5 -38t-67 -30t-50 -12.5q-18 0 -39.5 10.5t-41 24.5t-34 26.5t-18.5 16.5 q-6 -6 -18.5 -24.5t-30 -40t-37 -38t-39.5 -16.5q-53 0 -92 57.5t-64.5 131t-39 142.5t-13.5 93zM170 829q0 4 18.5 11.5t40.5 19.5q20 12 54 40t68 55.5t61.5 48t38.5 20.5q14 0 28.5 -8.5t14.5 -18.5q0 -16 -25 -46.5t-58.5 -63.5t-69.5 -60.5t-56 -38.5q-16 -8 -28.5 -10 t-20.5 -2q-16 0 -41 18.5t-25 34.5z" />
<glyph unicode="&#xfb;" d="M53 932q0 12 10 22q25 25 49.5 57.5t49 63.5t47 51.5t41.5 20.5q37 0 64.5 -30t55 -71.5t58.5 -86t76 -74.5q20 0 38.5 -8.5t18.5 -22.5q0 -10 -8 -18.5t-12 -12.5q-4 -2 -15.5 -7t-21.5 -5q-23 0 -43.5 8t-36.5 19q-35 18 -60.5 45.5t-46 56.5t-37 55.5t-28.5 40.5 q-29 -35 -63.5 -65.5t-84.5 -61.5q-16 -8 -22 -8q-14 0 -21.5 11.5t-7.5 19.5zM90 604q0 14 15.5 23.5t23.5 9.5q29 0 39 -19.5t10 -42.5q0 -18 11.5 -65t27.5 -96t34.5 -87t33.5 -38q27 0 46 33.5t31.5 77.5t18.5 84t6 53q0 2 1 13t3 23.5t3 22.5t1 14q0 14 -6 19.5 t-6 21.5q0 12 12.5 23.5t53.5 11.5q16 0 25 -9t13.5 -21.5t5.5 -23.5t1 -16q0 -2 -2.5 -28.5t-3.5 -58t-3 -60.5t-2 -35t6.5 -24.5t15.5 -38t21.5 -34.5t26.5 -15q25 0 46.5 7t40.5 16t35.5 16.5t31.5 7.5q18 0 33.5 -8.5t15.5 -20.5q0 -18 -24.5 -38.5t-57.5 -38t-67 -30 t-50 -12.5q-18 0 -39.5 10.5t-41 24.5t-34 26.5t-18.5 16.5q-6 -6 -18.5 -24.5t-30 -40t-37 -38t-39.5 -16.5q-53 0 -92 57.5t-64.5 131t-39 142.5t-13.5 93z" />
<glyph unicode="&#xfc;" d="M82 883q0 29 20.5 54.5t53.5 25.5q6 0 23.5 -5.5t35.5 -13.5t32.5 -18.5t14.5 -22.5q0 -4 -10 -16.5t-25.5 -25.5t-33 -23.5t-29.5 -10.5q-8 0 -21.5 1t-27 7.5t-23.5 17.5t-10 30zM90 604q0 14 15.5 23.5t23.5 9.5q29 0 39 -19.5t10 -42.5q0 -18 11.5 -65t27.5 -96 t34.5 -87t33.5 -38q27 0 46 33.5t31.5 77.5t18.5 84t6 53q0 2 1 13t3 23.5t3 22.5t1 14q0 14 -6 19.5t-6 21.5q0 12 12.5 23.5t53.5 11.5q16 0 25 -9t13.5 -21.5t5.5 -23.5t1 -16q0 -2 -2.5 -28.5t-3.5 -58t-3 -60.5t-2 -35t6.5 -24.5t15.5 -38t21.5 -34.5t26.5 -15 q25 0 46.5 7t40.5 16t35.5 16.5t31.5 7.5q18 0 33.5 -8.5t15.5 -20.5q0 -18 -24.5 -38.5t-57.5 -38t-67 -30t-50 -12.5q-18 0 -39.5 10.5t-41 24.5t-34 26.5t-18.5 16.5q-6 -6 -18.5 -24.5t-30 -40t-37 -38t-39.5 -16.5q-53 0 -92 57.5t-64.5 131t-39 142.5t-13.5 93z M379 911q0 8 4 21.5t12 26t19.5 21.5t25.5 9q27 0 50.5 -22.5t23.5 -57.5q0 -12 -12.5 -23.5t-27.5 -20.5t-29.5 -14t-16.5 -5q-18 0 -27.5 9t-14.5 20.5t-6 21.5t-1 14z" />
<glyph unicode="&#xfd;" horiz-adv-x="577" d="M35 494q0 10 10 21t23 11q8 0 16 -8q47 -41 108.5 -91t120.5 -91q4 37 17.5 112.5t28 162.5t27.5 169t20 131q0 8 4 26.5t12 37t18.5 32t22.5 13.5q6 0 26.5 -11.5t20.5 -50.5q-27 -141 -49 -272q-10 -55 -20.5 -115.5t-19.5 -119t-16.5 -110.5t-11.5 -95 q-8 -66 -12 -150t-8 -159q-4 -88 -4 -179q0 -18 -4.5 -40.5t-4.5 -45.5q0 -20 -9 -34.5t-27 -14.5q-16 0 -25.5 25.5t-16 59.5t-8.5 68t-2 48v39.5t3.5 70t9.5 121t18 195.5q0 2 -27.5 20.5t-67.5 46t-82 60.5t-71 63q-4 4 -12 18.5t-8 35.5zM193 1071q0 4 18 11.5t41 19.5 q20 12 54 39.5t68 55.5t61.5 48.5t37.5 20.5q14 0 28.5 -8.5t14.5 -18.5q0 -16 -24.5 -47t-58.5 -63.5t-69.5 -60.5t-56.5 -38q-16 -8 -28.5 -10t-20.5 -2q-16 0 -40.5 18.5t-24.5 34.5z" />
<glyph unicode="&#xfe;" horiz-adv-x="704" d="M74 1227q0 20 5 51t34 31q23 0 32 -6.5t17 -42.5q8 -43 13 -103.5t8 -124t5 -126t9 -111.5q10 -78 15 -144.5t15 -128.5q12 33 30.5 71t42.5 69.5t52.5 53t61.5 21.5q18 0 51 -16t63.5 -55t54 -102.5t23.5 -155.5q0 -74 -18.5 -131.5t-45 -95.5t-56 -57.5t-50.5 -19.5 q-29 0 -57.5 20.5t-28.5 43.5q0 33 27 33q10 0 22.5 -2t20.5 -6q35 29 60.5 81t25.5 134q0 49 -12.5 89t-30 68.5t-33.5 44t-22 15.5q-20 0 -46 -38t-48.5 -87t-40 -97.5t-19.5 -70.5q6 -51 17.5 -106.5t21.5 -121.5l86 -510q0 -25 -12.5 -37t-30.5 -12q-14 0 -32.5 53.5 t-39 132.5t-39 173t-34 175t-24.5 137t-9 60q0 8 -6.5 58.5t-15.5 128.5t-20.5 175t-20.5 200.5t-15 204t-6 184.5z" />
<glyph unicode="&#xff;" horiz-adv-x="577" d="M-80 883q0 29 20.5 54.5t53.5 25.5q6 0 23.5 -5.5t36 -13.5t32.5 -18.5t14 -22.5q0 -4 -10 -16.5t-25.5 -25.5t-33 -23.5t-29.5 -10.5q-8 0 -21.5 1t-26.5 7.5t-23.5 17.5t-10.5 30zM35 494q0 10 10 21t23 11q8 0 16 -8q47 -41 108.5 -91t120.5 -91q4 37 17.5 112.5 t28 162.5t27.5 169t20 131q0 8 4 26.5t12 37t18.5 32t22.5 13.5q6 0 26.5 -11.5t20.5 -50.5q-27 -141 -49 -272q-10 -55 -20.5 -115.5t-19.5 -119t-16.5 -110.5t-11.5 -95q-8 -66 -12 -150t-8 -159q-4 -88 -4 -179q0 -18 -4.5 -40.5t-4.5 -45.5q0 -20 -9 -34.5t-27 -14.5 q-16 0 -25.5 25.5t-16 59.5t-8.5 68t-2 48v39.5t3.5 70t9.5 121t18 195.5q0 2 -27.5 20.5t-67.5 46t-82 60.5t-71 63q-4 4 -12 18.5t-8 35.5zM217 911q0 8 4 21.5t12.5 26t19.5 21.5t26 9q27 0 50 -22.5t23 -57.5q0 -12 -12 -23.5t-27.5 -20.5t-30 -14t-16.5 -5 q-18 0 -27.5 9t-14.5 20.5t-6 21.5t-1 14z" />
<glyph unicode="&#x152;" horiz-adv-x="1284" d="M102 514q0 119 15.5 204t44.5 148q0 6 -7.5 12.5t-7.5 16.5t19.5 26.5t47.5 32t55.5 26.5t41.5 11q8 0 27.5 -8t50.5 -8q10 0 20.5 2t22.5 2q35 0 75 -26.5t78 -70.5t69.5 -103.5t54.5 -123.5q27 86 73 172q-16 0 -34.5 4.5t-18.5 28.5q0 29 34 63.5t78 65.5t87 52.5 t61 21.5q8 0 11.5 -3t11.5 -3q16 0 41.5 6t54.5 14t54.5 14.5t41.5 6.5q18 0 27.5 -12.5t9.5 -26.5q0 -16 -20.5 -23.5t-36.5 -11.5q-57 -10 -120 -35.5t-116 -56.5q-20 -23 -49 -65t-55.5 -95t-48 -110.5t-27.5 -108.5l35 16q158 76 257 119t154 43q11 0 19 -8q2 -4 4 -5 t2 -5q0 -12 -51 -46t-127 -76t-160 -84t-149 -69q0 -4 -4.5 -26.5t-4.5 -28.5v-39q0 -47 14.5 -93t44 -83t73 -59.5t100.5 -22.5q25 0 60.5 9t69.5 26.5t60.5 42t32.5 55.5q25 -2 30 -14t5 -17q0 -53 -25.5 -91t-63.5 -61.5t-80 -34.5t-75 -11q-129 0 -204.5 51t-106.5 143 q-33 -57 -84 -96t-125 -39t-139.5 42t-116.5 108.5t-81 149.5t-30 165zM199 537q0 -23 12 -87.5t44 -133t85 -122t135 -53.5q51 0 85 30t54.5 74t29.5 93t11 88q-10 4 -26.5 12t-16.5 35q0 25 35 43q-10 51 -29.5 114.5t-50 119t-70.5 93.5t-89 38q-4 0 -15.5 1t-26 2 t-26.5 2t-14 1q-33 0 -56.5 -31t-39 -80t-23.5 -112.5t-8 -126.5z" />
<glyph unicode="&#x153;" horiz-adv-x="944" d="M98 481q0 37 11.5 83t31 85t44 65.5t51.5 26.5q6 0 19 -4t27.5 -12t25.5 -20.5t16 -28.5q23 -2 45 -16.5t24 -22.5q33 66 77 103.5t85 37.5q33 0 66.5 -13t61.5 -33.5t44 -46.5t16 -52q0 -31 -27.5 -63.5t-66.5 -60.5t-78 -45.5t-61 -17.5q-12 0 -21.5 11.5t-9.5 27.5 q0 29 25.5 45.5t56.5 29.5t56.5 31.5t25.5 51.5q0 4 -10 20.5t-55 16.5q-20 0 -47 -23.5t-51.5 -63.5t-41 -94.5t-16.5 -117.5q0 -53 19.5 -96t50 -73t71.5 -46t84 -16q31 0 67 13t67.5 28.5t55 28.5t29.5 13t13.5 -6t9.5 -12q2 -4 2 -12q0 -12 -19 -37q-6 -8 -26.5 -26.5 t-55 -37t-85 -33t-117.5 -14.5q-72 0 -138.5 51.5t-95.5 151.5q-39 -39 -88 -39q-57 0 -90 33t-50 76t-22.5 87t-5.5 66zM193 473q0 -23 2 -50.5t9 -52t19.5 -42t32.5 -17.5t34.5 21.5t23 50.5t11.5 56.5t3 39.5q0 31 -6.5 65t-24.5 68q-4 -2 -10 -2q-8 0 -13.5 2t-9.5 2 q-25 0 -39 -13t-21 -34.5t-9 -46t-2 -47.5z" />
<glyph unicode="&#x178;" horiz-adv-x="643" d="M-41 1378q0 29 20.5 54.5t53.5 25.5q6 0 23.5 -5t36 -13t32.5 -18.5t14 -22.5q0 -4 -10 -16.5t-25.5 -26t-33 -23.5t-29.5 -10q-8 0 -21.5 1t-26.5 7t-23.5 17.5t-10.5 29.5zM-18 1079q0 29 12 51.5t33 22.5q6 0 18 -15.5t30.5 -38t43 -50t55.5 -52.5q20 -18 57 -45.5 t73 -54.5t62.5 -46.5t28.5 -19.5q8 0 10.5 16.5t2.5 20.5l10 123q10 104 25.5 189.5t15.5 148.5q0 6 -4 24.5t-4 24.5q0 12 8 19.5t18 11.5q12 6 29 8q29 0 41 -21.5t12 -39.5q0 -74 -9 -143.5t-20.5 -139t-20.5 -142.5t-9 -153q0 -12 14 -25.5t35.5 -24.5t48 -22.5 t51.5 -19.5q0 -29 -13 -41t-30 -12q-18 0 -35.5 6t-44.5 16l-30 13q-4 -10 -5.5 -25.5t-1.5 -26.5q0 -72 6.5 -155.5t14.5 -167.5t19.5 -164t19.5 -144.5t14 -108.5t6 -56v-51q0 -23 -5 -41.5t-21 -18.5q-31 0 -52.5 50.5t-35 115t-19.5 124.5t-6 81q0 14 -5 69.5t-11 124 t-11.5 139t-5.5 119.5q0 20 -1 46t-1 49v63q0 33 -46 68t-111.5 77t-135 96t-114.5 130q-6 2 -6 18zM256 1407q0 8 4 21.5t12.5 25.5t19.5 21.5t25 9.5q27 0 50.5 -22.5t23.5 -57.5q0 -12 -12 -23.5t-27.5 -20.5t-30 -14.5t-16.5 -5.5q-18 0 -27.5 9.5t-14.5 20.5t-6 21.5 t-1 14.5z" />
<glyph unicode="&#x2c6;" horiz-adv-x="614" d="M82 932q0 12 10 22q25 25 49.5 57.5t49 63.5t47 51.5t41.5 20.5q37 0 64.5 -30t55 -71.5t58 -86t75.5 -74.5q20 0 39 -8.5t19 -22.5q0 -10 -8.5 -18.5l-12.5 -12.5q-4 -2 -15 -7t-22 -5q-23 0 -43 8t-36 19q-35 18 -60.5 45.5t-46 56.5t-37 55.5t-28.5 40.5 q-29 -35 -64 -65.5t-84 -61.5q-16 -8 -22 -8q-14 0 -21.5 11.5t-7.5 19.5z" />
<glyph unicode="&#x2dc;" horiz-adv-x="661" d="M68 915q0 12 23.5 40t55 55.5t63.5 49t48 21.5q20 0 43 -25.5t45 -54.5q31 -39 53.5 -63.5t42.5 -24.5q23 0 29 24t6 44q0 4 -1 8t-1 8q16 16 27.5 21.5t25.5 5.5q25 0 39.5 -20.5t14.5 -32.5q0 -23 -8.5 -47.5t-26 -46t-43 -36t-60.5 -14.5q-27 0 -55.5 14.5t-55 36 t-50 49t-41.5 56.5l-111 -86q-16 -12 -33 -12q-23 0 -26.5 8t-3.5 22z" />
<glyph unicode="&#x2000;" horiz-adv-x="855" />
<glyph unicode="&#x2001;" horiz-adv-x="1710" />
<glyph unicode="&#x2002;" horiz-adv-x="855" />
<glyph unicode="&#x2003;" horiz-adv-x="1710" />
<glyph unicode="&#x2004;" horiz-adv-x="570" />
<glyph unicode="&#x2005;" horiz-adv-x="427" />
<glyph unicode="&#x2006;" horiz-adv-x="285" />
<glyph unicode="&#x2007;" horiz-adv-x="285" />
<glyph unicode="&#x2008;" horiz-adv-x="213" />
<glyph unicode="&#x2009;" horiz-adv-x="342" />
<glyph unicode="&#x200a;" horiz-adv-x="95" />
<glyph unicode="&#x2010;" horiz-adv-x="524" d="M98 420q0 8 3 10t16 2q23 0 66.5 10.5t87.5 22.5t81 22.5t45 10.5q10 0 22.5 -15.5t12.5 -23.5q0 -20 -33.5 -40t-76.5 -34t-82 -23.5t-50 -9.5q-37 0 -50 4t-23 27q-6 8 -12.5 19.5t-6.5 17.5z" />
<glyph unicode="&#x2011;" horiz-adv-x="524" d="M98 420q0 8 3 10t16 2q23 0 66.5 10.5t87.5 22.5t81 22.5t45 10.5q10 0 22.5 -15.5t12.5 -23.5q0 -20 -33.5 -40t-76.5 -34t-82 -23.5t-50 -9.5q-37 0 -50 4t-23 27q-6 8 -12.5 19.5t-6.5 17.5z" />
<glyph unicode="&#x2012;" horiz-adv-x="524" d="M98 420q0 8 3 10t16 2q23 0 66.5 10.5t87.5 22.5t81 22.5t45 10.5q10 0 22.5 -15.5t12.5 -23.5q0 -20 -33.5 -40t-76.5 -34t-82 -23.5t-50 -9.5q-37 0 -50 4t-23 27q-6 8 -12.5 19.5t-6.5 17.5z" />
<glyph unicode="&#x2013;" horiz-adv-x="716" d="M90 420q0 23 16.5 35t36 18t39 7t25.5 1q68 0 102.5 -5t63.5 -5t61.5 2t65 5t61.5 6t49 3q23 0 32 -13t9 -23t-9 -24.5t-21 -16.5q-6 -2 -69 -8.5t-159 -6.5q-29 0 -73 3t-99 3q-10 0 -43 -6t-49 -6q-39 0 -39 31z" />
<glyph unicode="&#x2014;" horiz-adv-x="913" d="M82 401q0 23 16.5 35.5t36 18.5t39 7t25.5 1q33 0 87 -2t107 -4t96 -4t58 -2q29 0 61.5 2t65.5 5t61.5 6t48.5 3q23 0 32 -13.5t9 -23.5t-9 -24.5t-21 -16.5q-6 -2 -68.5 -8t-159.5 -6q-14 0 -61 1t-102.5 3t-109.5 3t-81 1q-10 0 -43 -6t-49 -6q-39 0 -39 30z" />
<glyph unicode="&#x2018;" horiz-adv-x="307" d="M49 637q0 39 16.5 83t40 81t51 61.5t50.5 24.5q6 0 14 -7.5t8 -11.5q0 -10 -14 -28.5t-31.5 -46t-32 -67.5t-14.5 -93q0 -55 13.5 -99.5t68.5 -87.5q0 -16 -12 -24t-27 -8q-35 0 -59.5 24.5t-41 59t-23.5 72.5t-7 67z" />
<glyph unicode="&#x2019;" horiz-adv-x="313" d="M98 479q0 2 8.5 14.5t19.5 30t19.5 41t8.5 49.5q0 53 -10.5 95.5t-26.5 83.5q-2 6 -5 14t-3 12q0 14 9 18.5t19 4.5q14 0 32.5 -25.5t34 -60.5t26 -75t10.5 -67q0 -37 -15.5 -67.5t-36 -52t-39 -33.5t-26.5 -12q-6 0 -15.5 9t-9.5 21z" />
<glyph unicode="&#x201a;" horiz-adv-x="266" d="M59 -170q0 2 8.5 14.5t19.5 29.5t19.5 41t8.5 50q0 53 -10.5 95t-26.5 83q-2 6 -5 14.5t-3 12.5q0 14 9 18.5t19 4.5q14 0 33 -26t34 -60.5t25.5 -74.5t10.5 -67q0 -37 -15.5 -67.5t-36 -52t-39 -34t-26.5 -12.5q-6 0 -15.5 9.5t-9.5 21.5z" />
<glyph unicode="&#x201c;" horiz-adv-x="487" d="M96 623q0 23 2 37t2 18q0 12 7.5 46t18.5 70.5t25.5 65.5t30.5 29q23 0 32 -15.5t9 -31.5q0 -20 -6 -51t-14 -65t-14.5 -68.5t-6.5 -63.5q0 -39 -3 -76t-17 -37q-20 0 -32.5 15.5t-20 37t-10.5 46t-3 43.5zM297 653q0 14 3 38t7 47.5t11.5 42t13.5 24.5q16 14 32.5 25.5 t38.5 11.5q10 0 20.5 -3t10.5 -16q0 -2 -1 -4t-1 -4q-2 0 -9 -21.5t-16.5 -50t-16.5 -57.5t-7 -41t5 -31.5t22 -52.5l-18.5 -18.5t-18.5 -10.5q-16 0 -29.5 13.5t-24 33t-16.5 40t-6 34.5z" />
<glyph unicode="&#x201d;" horiz-adv-x="421" d="M8 813q0 45 43 45q16 0 38 -23.5t40 -55t30.5 -63.5t12.5 -48q0 -29 -7 -56.5t-18.5 -49t-24.5 -35t-26 -13.5q-23 0 -22 27q0 29 11 53t11 47q0 20 -13 47t-30.5 52.5t-31 46t-13.5 26.5zM207 807q0 16 8 20t23 4q33 0 54 -24.5t33.5 -56t17.5 -61.5t5 -38 q0 -10 -5 -28.5t-13 -37t-18.5 -32.5t-20.5 -14q-18 0 -23.5 10t-5.5 26q0 2 1 14.5t3 29t3 33t1 24.5q0 10 -10 27.5t-21.5 36t-21.5 37t-10 30.5z" />
<glyph unicode="&#x201e;" horiz-adv-x="421" d="M8 221q0 45 43 45q16 0 38 -23.5t40 -55t30.5 -63.5t12.5 -48q0 -29 -7 -56.5t-18.5 -49t-24.5 -35t-26 -13.5q-23 0 -22 27q0 29 11 53.5t11 46.5q0 20 -13 47t-30.5 52.5t-31 46t-13.5 26.5zM207 215q0 16 8 20.5t23 4.5q33 0 54 -25t33.5 -56.5t17.5 -61.5t5 -38 q0 -10 -5 -28.5t-13 -37t-18.5 -32.5t-20.5 -14q-18 0 -23.5 10t-5.5 27q0 2 1 14t3 28.5t3 33t1 24.5q0 10 -10 27.5t-21.5 36t-21.5 37t-10 30.5z" />
<glyph unicode="&#x2022;" horiz-adv-x="733" d="M156 428q0 29 11 63.5t30.5 65.5t45 51.5t52.5 20.5q6 0 18.5 -3t26.5 -9.5t26.5 -15.5t16.5 -23q23 -2 45.5 -12.5t24.5 -14.5q16 -41 21 -82t5 -68q0 -72 -45 -122t-110 -50q-57 0 -90 25t-50.5 57.5t-22.5 66.5t-5 50z" />
<glyph unicode="&#x2026;" horiz-adv-x="854" d="M78 133q0 8 4 21.5t12 26t19.5 21.5t25.5 9q27 0 50.5 -22.5t23.5 -57.5q0 -12 -12.5 -23.5t-27.5 -20.5t-29.5 -14t-16.5 -5q-18 0 -27.5 9t-14.5 20.5t-6 21.5t-1 14zM342 106q0 29 20.5 54.5t53.5 25.5q6 0 22.5 -5t31.5 -13t27.5 -18.5t12.5 -22.5q0 -4 -8 -16.5 t-21.5 -25.5t-29 -23.5t-27.5 -10.5q-8 0 -21.5 1t-27 7.5t-23.5 17.5t-10 29zM647 147q0 12 12.5 23.5t27.5 21t29.5 14.5t16.5 5q18 0 27.5 -9t14.5 -20.5t6 -21.5t1 -15q0 -8 -4 -21t-12 -25.5t-19.5 -21.5t-25.5 -9q-27 0 -50.5 22t-23.5 57z" />
<glyph unicode="&#x202f;" horiz-adv-x="342" />
<glyph unicode="&#x2039;" horiz-adv-x="720" d="M236 395q0 2 1 4t4 12.5t9 30t18 56.5q6 23 14.5 61.5t18.5 83.5t21.5 90t22.5 82t21.5 59.5t20.5 22.5t31.5 -7t21.5 -30l-6 -34q-6 -33 -16 -80.5t-22.5 -101.5t-24.5 -97l-7.5 -22.5t-10.5 -35t-9 -34t-4 -19.5q0 -18 29.5 -43.5t66.5 -49.5t71 -40t42 -16q6 0 16 2 t17 2q16 0 25 -18.5t9 -24.5q0 -39 -23.5 -53.5t-49.5 -14.5q-47 0 -106.5 42t-125.5 95l-57 45q-18 12 -18 33z" />
<glyph unicode="&#x203a;" horiz-adv-x="671" d="M127 872q0 14 12.5 28.5t22.5 14.5q29 0 42 -14t21 -37q8 -31 19.5 -66.5t33 -75.5t56.5 -84t88 -93q4 -4 10 -13.5t6 -25.5l-22 -98q0 -4 -9.5 -45t-24.5 -88.5t-39 -85t-52 -37.5q-20 0 -32.5 15t-12.5 21q0 14 15 56.5t32.5 89.5t33 90t15.5 61q0 8 -34 49t-73.5 97.5 t-73.5 121t-34 119.5z" />
<glyph unicode="&#x205f;" horiz-adv-x="427" />
<glyph unicode="&#x20ac;" horiz-adv-x="849" d="M49 295q0 23 10.5 31t18.5 8q10 0 17 -6t16 -6q6 0 34 6v16q0 8 3.5 35t3.5 37q0 6 -11.5 9t-25 7t-24.5 12.5t-11 22.5q0 10 10 18.5t24.5 15.5t30 13t23.5 12q20 92 65.5 167t106.5 127t136 80t155 28q16 0 24.5 -11.5t8.5 -23.5t-25 -20.5t-37 -10.5 q-57 -10 -108.5 -30.5t-96.5 -58.5t-81.5 -96.5t-65.5 -139.5q63 25 126.5 41t117 26t93.5 14.5t56 4.5q10 0 15.5 -8.5t5.5 -16.5t-7 -10q-29 -10 -78 -28.5t-109 -40t-122.5 -44t-114.5 -41.5l-4 -24q-2 -10 -2 -17.5v-11.5v-35q39 8 81 19.5t81 19.5t67.5 14.5t41.5 6.5 q23 0 44 -4.5t21 -20.5q0 -10 -32.5 -24.5t-82 -31t-106.5 -31.5t-106 -28q20 -76 77.5 -132t151.5 -56q25 0 61.5 9t71.5 27.5t61.5 43t32.5 55.5q18 -2 22.5 -12.5t4.5 -14.5q0 -53 -25.5 -91t-62.5 -61.5t-78 -33.5t-74 -10q-150 0 -227.5 68.5t-97.5 187.5 q-35 -6 -41 -6q-35 0 -49.5 12t-14.5 43z" />
<glyph unicode="&#x2122;" horiz-adv-x="966" d="M-4 1100q0 16 7 31.5t24 15.5q6 0 12 -2t10 -2q-2 0 23.5 2t56.5 6q37 4 82 10q2 8 7 15.5t15 7.5q2 0 7.5 -3t13.5 -7l18 -9q33 16 119 20.5t193 16.5q16 -4 26.5 -13.5t10.5 -19.5q0 -23 -21.5 -29.5t-49.5 -10t-54.5 -3.5t-38.5 -6q-8 0 -42 -2t-53 -6l-65 -16 l45 -156q6 -20 14.5 -43t16.5 -43l28 -68q4 -12 9.5 -29.5t10.5 -36t8 -33.5t3 -23q0 -16 -12 -36t-33 -20q-14 0 -18 4t-7.5 15.5t-6.5 32t-13 55.5q-53 125 -77.5 215t-47.5 151q-12 -2 -36.5 -4t-50.5 -5t-48.5 -5t-32.5 -2q-35 0 -44 12.5t-9 22.5zM457 956q0 23 1 34 t7 20v49q0 43 43 43q18 0 40.5 -33t45 -73t42 -72.5t32.5 -32.5q10 0 20 31.5t17.5 71.5t11.5 77t4 47v18.5t-2 18.5q0 14 9 35.5t36 21.5q29 0 34 -22.5t5 -36.5q0 -20 -1 -35.5t-1 -40.5q0 -43 9 -107.5t24.5 -132t34 -131t36.5 -106.5q2 -6 4 -14q2 -6 4 -12.5t2 -12.5 q0 -12 -7 -19t-16 -11.5t-16.5 -6.5t-9.5 -2q-6 0 -21.5 26.5t-31.5 76t-34.5 117t-30.5 149.5q-10 -33 -31 -55.5t-55 -22.5q-29 0 -60 29.5t-53 64.5q2 -12 9 -36.5t14.5 -51t13.5 -50.5t6 -36q0 -18 -15.5 -29.5t-27.5 -11.5q-8 0 -23.5 33t-31 77t-26.5 88t-11 66z" />
<glyph unicode="&#xe000;" horiz-adv-x="839" d="M0 0v840h840v-840h-840z" />
<glyph unicode="&#xfb01;" horiz-adv-x="1118" d="M47 625q0 23 13.5 36t25.5 19q18 10 57 22.5t78 20.5q14 4 26.5 7t12.5 13q-6 20 -17.5 54t-22.5 81.5t-19 105.5t-8 126q0 74 17 156t55 150.5t95.5 112.5t137.5 44q37 0 82 -7t82.5 -20.5t63.5 -33t26 -44.5q2 -4 2 -14v-22q0 -14 -11 -15q-4 0 -10 2t-10 4 q-37 16 -89 42t-118 26q-74 0 -119 -55.5t-68.5 -128t-30.5 -142t-7 -100.5q0 -23 7 -71t19.5 -99t28.5 -93t33 -52q12 0 44 2t52 2q35 0 65.5 -6.5t63.5 -6.5h24.5t34 -2t30 -7t12.5 -13q0 -10 -14.5 -18.5t-33 -13.5t-37 -7t-28.5 -2t-26.5 1t-36 3t-37 3t-29.5 1 q-33 0 -40 -7t-7 -28q0 -31 27.5 -83t60.5 -111.5t60.5 -123t27.5 -116.5q0 -10 -5 -37.5t-14.5 -56.5t-26 -51.5t-36.5 -22.5q-16 0 -29.5 9.5t-13.5 31.5q0 33 17.5 61.5t17.5 61.5q0 16 -15.5 55t-38 87t-49 101.5t-50 97.5t-40 72.5t-18.5 30.5q-41 -14 -84 -28.5 t-78 -42.5q-14 -14 -27 -15q-20 0 -37.5 16.5t-17.5 37.5zM801 922q0 29 20.5 54t52.5 25q6 0 28 -5t44.5 -13t40 -18.5t17.5 -22.5q0 -4 -14.5 -16.5t-34 -25.5t-40 -23.5t-32.5 -10.5q-8 0 -21.5 1t-27 7.5t-23.5 17.5t-10 30zM862 514q0 29 11.5 53.5t27.5 24.5 q20 0 40 -28.5t39 -73t35.5 -96.5t29 -98t19.5 -80t7 -40q0 -14 -21.5 -24.5t-31.5 -10.5q-20 0 -36.5 27t-29 61.5t-20.5 66.5t-12 44q-6 20 -16.5 49t-20 55.5t-15.5 47t-6 22.5z" />
<glyph unicode="&#xfb02;" horiz-adv-x="1232" d="M47 625q0 23 13.5 36t25.5 19q18 10 57 22.5t78 20.5q14 4 26.5 7t12.5 13q-6 20 -17.5 54t-22.5 81.5t-19 105.5t-8 126q0 74 17 156t55 150.5t95.5 112.5t137.5 44q37 0 82 -7t82.5 -20.5t63.5 -33t26 -44.5q2 -4 2 -14v-22q0 -14 -11 -15q-4 0 -10 2t-10 4 q-37 16 -89 42t-118 26q-74 0 -119 -55.5t-68.5 -128t-30.5 -142t-7 -100.5q0 -23 7 -71t19.5 -99t28.5 -93t33 -52q12 0 44 2t52 2q35 0 65.5 -6.5t63.5 -6.5h24.5t34 -2t30 -7t12.5 -13q0 -10 -14.5 -18.5t-33 -13.5t-37 -7t-28.5 -2t-26.5 1t-36 3t-37 3t-29.5 1 q-33 0 -40 -7t-7 -28q0 -31 27.5 -83t60.5 -111.5t60.5 -123t27.5 -116.5q0 -10 -5 -37.5t-14.5 -56.5t-26 -51.5t-36.5 -22.5q-16 0 -29.5 9.5t-13.5 31.5q0 33 17.5 61.5t17.5 61.5q0 16 -15.5 55t-38 87t-49 101.5t-50 97.5t-40 72.5t-18.5 30.5q-41 -14 -84 -28.5 t-78 -42.5q-14 -14 -27 -15q-20 0 -37.5 16.5t-17.5 37.5zM870 1149q0 18 6.5 47t28.5 29q29 0 44.5 -39t24.5 -96.5t13 -120t10 -109.5q8 -66 15.5 -119t14.5 -105t18.5 -109.5t27.5 -127.5l82 -340q0 -16 -12.5 -24t-28.5 -8q-18 0 -37.5 34.5t-38 88t-35 116t-28.5 116.5 t-19.5 91t-7.5 41q0 8 -7 43t-18.5 108.5t-24.5 191.5t-28 292z" />
</font>
</defs>
</svg>
